SplineFontDB: 3.2
FontName: IBMPlexMono-Bold
FullName: IBM Plex Mono Bold
FamilyName: IBM Plex Mono
Weight: Bold
Copyright: Copyright 2017 IBM Corp. All rights reserved.
Version: 001.001
ItalicAngle: 0
UnderlinePosition: -150
UnderlineWidth: 100
Ascent: 780
Descent: 220
InvalidEm: 0
sfntRevision: 0x00020106
LayerCount: 2
Layer: 0 0 "Back" 1
Layer: 1 0 "Fore" 0
XUID: [1021 882 1051320642 15597]
StyleMap: 0x0020
FSType: 0
OS2Version: 4
OS2_WeightWidthSlopeOnly: 1
OS2_UseTypoMetrics: 0
CreationTime: 1703161126
ModificationTime: 1716580327
PfmFamily: 17
TTFWeight: 700
TTFWidth: 5
LineGap: 0
VLineGap: 0
Panose: 2 11 8 9 5 2 3 0 2 3
OS2TypoAscent: 780
OS2TypoAOffset: 0
OS2TypoDescent: -220
OS2TypoDOffset: 0
OS2TypoLinegap: 300
OS2WinAscent: 1025
OS2WinAOffset: 0
OS2WinDescent: 275
OS2WinDOffset: 0
HheadAscent: 1025
HheadAOffset: 0
HheadDescent: -275
HheadDOffset: 0
OS2SubXSize: 650
OS2SubYSize: 600
OS2SubXOff: 0
OS2SubYOff: 75
OS2SupXSize: 650
OS2SupYSize: 600
OS2SupXOff: 0
OS2SupYOff: 350
OS2StrikeYSize: 100
OS2StrikeYPos: 309
OS2CapHeight: 698
OS2XHeight: 516
OS2FamilyClass: 2057
OS2Vendor: 'IBM '
OS2CodePages: 60000197.00000000
OS2UnicodeRanges: a000026f.4000383b.00000000.00000000
Lookup: 1 0 0 "'aalt' Access All Alternates lookup 0" { "'aalt' Access All Alternates lookup 0 subtable"  } ['aalt' ('DFLT' <'dflt' > 'cyrl' <'BGR ' 'dflt' > 'latn' <'MOL ' 'ROM ' 'dflt' > ) ]
Lookup: 3 0 0 "'aalt' Access All Alternates lookup 1" { "'aalt' Access All Alternates lookup 1 subtable"  } ['aalt' ('DFLT' <'dflt' > 'cyrl' <'BGR ' 'dflt' > 'latn' <'MOL ' 'ROM ' 'dflt' > ) ]
Lookup: 1 0 0 "'locl' Localized Forms in Latin lookup 2" { "'locl' Localized Forms in Latin lookup 2 subtable"  } ['locl' ('latn' <'MOL ' > ) ]
Lookup: 1 0 0 "'locl' Localized Forms in Latin lookup 3" { "'locl' Localized Forms in Latin lookup 3 subtable"  } ['locl' ('latn' <'ROM ' > ) ]

StartChar: .notdef
Encoding: 65536 -1 0
Width: 600
GlyphClass: 1
Flags: MW
HStem: 0 100<132 468 132 568> 680 100<132 468 132 132>
VStem: 32 100<100 100 100 680> 468 100<100 680 680 680>
LayerCount: 2
Fore
SplineSet
32 0 m 1
 32 780 l 1
 568 780 l 1
 568 0 l 1
 32 0 l 1
132 100 m 1
 468 100 l 1
 468 680 l 1
 132 680 l 1
 132 100 l 1
EndSplineSet
Validated: 1
EndChar

StartChar: a
Encoding: 97 97 1
Width: 600
GlyphClass: 2
Flags: MW
HStem: -12 97<250.5 257.5> 0 107<456.5 572 515 572 515 572> 221 80<284 288 288 367> 420 108<242 307>
VStem: 52 145<122 140 140 160 122 196> 367 148<159 221 221 221 301 327 327 333 107 357.5>
AnchorPoint: "Anchor-2" 292 516 basechar 0
AnchorPoint: "Anchor-1" 572 0 basechar 0
AnchorPoint: "Anchor-0" 292 0 basechar 0
LayerCount: 2
Fore
SplineSet
572 0 m 1x7c
 487 0 l 2x7c
 426 0 386 33 380 91 c 1
 375 91 l 1
 357 24 297 -12 218 -12 c 0xbc
 118 -12 52 45 52 142 c 0
 52 250 133 301 284 301 c 2
 367 301 l 1
 367 327 l 2
 367 388 341 420 273 420 c 0
 211 420 175 393 147 355 c 1
 66 427 l 1
 100 485 175 528 290 528 c 0
 431 528 515 463 515 333 c 2
 515 107 l 1
 572 107 l 1
 572 0 l 1x7c
274 85 m 0xbc
 326 85 367 111 367 159 c 2
 367 221 l 1
 288 221 l 2
 229 221 197 200 197 160 c 2
 197 140 l 2
 197 104 227 85 274 85 c 0xbc
EndSplineSet
Validated: 1
Substitution2: "'salt' Stylistic Alternatives lookup 23 subtable" a.alt01
Substitution2: "'ss01' Style Set 1 lookup 16 subtable" a.alt01
Substitution2: "'ordn' Ordinals lookup 6 subtable" ordfeminine
Substitution2: "'aalt' Access All Alternates lookup 0 subtable" a.alt01
EndChar

StartChar: a.alt01
Encoding: 65537 -1 2
Width: 600
GlyphClass: 2
Flags: MW
HStem: -12 115<264 274.5> 0 21G<393 393 393 541> 413 115<264 274.5 176 323> 496 20G<393 541 541 541>
VStem: 39 154<182 218 218 298 182 351.5> 393 148<0 94 94 94 182 334 334 361 422 516 0 516>
AnchorPoint: "Anchor-2" 291 516 basechar 0
AnchorPoint: "Anchor-1" 541 0 basechar 0
AnchorPoint: "Anchor-0" 291 0 basechar 0
LayerCount: 2
Fore
SplineSet
393 0 m 1x5c
 393 94 l 1
 386 94 l 1
 360 32 316 -12 233 -12 c 0
 119 -12 39 71 39 258 c 0
 39 445 119 528 233 528 c 0xac
 316 528 360 484 386 422 c 1
 393 422 l 1
 393 516 l 1
 541 516 l 1
 541 0 l 1
 393 0 l 1x5c
297 103 m 0xac
 349 103 393 128 393 182 c 2
 393 334 l 2
 393 388 349 413 297 413 c 0
 231 413 193 370 193 298 c 2
 193 218 l 2
 193 146 231 103 297 103 c 0xac
EndSplineSet
Validated: 1
EndChar

StartChar: b
Encoding: 98 98 3
Width: 600
GlyphClass: 2
Flags: MW
HStem: -12 115<325.5 336 277 424> 0 21G<59 59 59 207> 413 115<325.5 336> 720 20G<59 207 207 207>
VStem: 59 148<0 94 155 182 182 334 422 740> 407 154<218 298 298 334>
AnchorPoint: "Anchor-0" 310 0 basechar 0
LayerCount: 2
Fore
SplineSet
59 0 m 1x7c
 59 740 l 1
 207 740 l 1
 207 422 l 1
 214 422 l 1
 240 484 284 528 367 528 c 0
 481 528 561 445 561 258 c 0
 561 71 481 -12 367 -12 c 0xbc
 284 -12 240 32 214 94 c 1
 207 94 l 1
 207 0 l 1
 59 0 l 1x7c
303 103 m 0xbc
 369 103 407 146 407 218 c 2
 407 298 l 2
 407 370 369 413 303 413 c 0
 251 413 207 388 207 334 c 2
 207 182 l 2
 207 128 251 103 303 103 c 0xbc
EndSplineSet
Validated: 1
EndChar

StartChar: c
Encoding: 99 99 4
Width: 600
GlyphClass: 2
Flags: MW
HStem: -12 118<287 350.5 287 378.5> 410 118<286.5 347.5>
VStem: 60 154<182 216 216 300 182 341.5>
AnchorPoint: "Anchor-2" 314 516 basechar 0
AnchorPoint: "Anchor-0" 301 0 basechar 0
LayerCount: 2
Fore
SplineSet
321 -12 m 0
 158 -12 60 91 60 258 c 0
 60 425 159 528 320 528 c 0
 433 528 499 477 535 402 c 1
 421 340 l 1
 403 380 375 410 320 410 c 0
 253 410 214 368 214 300 c 2
 214 216 l 2
 214 148 252 106 322 106 c 0
 379 106 409 136 431 178 c 1
 543 114 l 1
 506 39 436 -12 321 -12 c 0
EndSplineSet
Validated: 1
EndChar

StartChar: d
Encoding: 100 100 5
Width: 600
GlyphClass: 2
Flags: MW
HStem: -12 115<264 274.5> 0 21G<393 393 393 541> 413 115<264 274.5 176 323> 720 20G<393 541 541 541>
VStem: 39 154<182 218 218 298 182 351.5> 393 148<0 94 94 94 182 334 334 361 422 740 0 740>
AnchorPoint: "Anchor-3" 592 740 basechar 0
AnchorPoint: "Anchor-0" 290 0 basechar 0
LayerCount: 2
Fore
SplineSet
393 0 m 1x7c
 393 94 l 1
 386 94 l 1
 360 32 316 -12 233 -12 c 0xbc
 119 -12 39 71 39 258 c 0
 39 445 119 528 233 528 c 0
 316 528 360 484 386 422 c 1
 393 422 l 1
 393 740 l 1
 541 740 l 1
 541 0 l 1
 393 0 l 1x7c
297 103 m 0xbc
 349 103 393 128 393 182 c 2
 393 334 l 2
 393 388 349 413 297 413 c 0
 231 413 193 370 193 298 c 2
 193 218 l 2
 193 146 231 103 297 103 c 0xbc
EndSplineSet
Validated: 1
EndChar

StartChar: e
Encoding: 101 101 6
Width: 600
GlyphClass: 2
Flags: MW
HStem: -12 114<279.5 349.5 279.5 369.5> 222 83<197 405 197 550 197 405> 422 106<270 334>
VStem: 50 147<180 213 213 222 180 305 305 313 180 340.5> 405 145<222 313 222 346.5>
AnchorPoint: "Anchor-2" 301 516 basechar 0
AnchorPoint: "Anchor-1" 409 0 basechar 0
AnchorPoint: "Anchor-0" 306 0 basechar 0
LayerCount: 2
Fore
SplineSet
314 -12 m 0
 141 -12 50 91 50 256 c 0
 50 425 146 528 301 528 c 0
 455 528 550 427 550 266 c 2
 550 222 l 1
 197 222 l 1
 197 213 l 2
 197 147 240 102 319 102 c 0
 380 102 423 128 455 166 c 1
 535 79 l 1
 495 30 425 -12 314 -12 c 0
302 422 m 0
 238 422 197 379 197 313 c 2
 197 305 l 1
 405 305 l 1
 405 313 l 2
 405 380 366 422 302 422 c 0
EndSplineSet
Validated: 1
EndChar

StartChar: f
Encoding: 102 102 7
Width: 600
GlyphClass: 2
Flags: MW
HStem: 0 115<71 223 71 223 371 533> 401 115<61 223 61 223 371 556> 625 115<381 556 381 556 371 556>
VStem: 223 148<115 401 115 401 516 591 591 625>
AnchorPoint: "Anchor-0" 297 0 basechar 0
LayerCount: 2
Fore
SplineSet
71 0 m 1
 71 115 l 1
 223 115 l 1
 223 401 l 1
 61 401 l 1
 61 516 l 1
 223 516 l 1
 223 591 l 2
 223 678 273 740 381 740 c 2
 556 740 l 1
 556 625 l 1
 371 625 l 1
 371 516 l 1
 556 516 l 1
 556 401 l 1
 371 401 l 1
 371 115 l 1
 533 115 l 1
 533 0 l 1
 71 0 l 1
EndSplineSet
Validated: 1
EndChar

StartChar: g
Encoding: 103 103 8
Width: 600
GlyphClass: 2
Flags: MW
HStem: -212 95<259 346 346 379.5 259 395> -20 117<260 366 189 378> 160 94<279 323.5 265 362> 434 94<265 310.5 226.5 323.5> 507 108<464 555 464 555 431 555>
VStem: 47 122<-78 -64> 70 140<309.5 332 332 356 309.5 404> 74 110<115.5 120> 380 140<332 356 356 378.5> 443 140<-80.5 -49.5>
AnchorPoint: "Anchor-2" 294 516 basechar 0
LayerCount: 2
Fore
SplineSet
583 -52 m 0xf140
 583 -161 493 -212 297 -212 c 0
 101 -212 47 -163 47 -93 c 0xf440
 47 -35 84 -8 146 8 c 1
 146 14 l 1
 102 27 74 50 74 95 c 0xf180
 74 145 111 166 167 179 c 1
 167 185 l 1
 106 214 70 268 70 344 c 0
 70 464 159 528 294 528 c 0xf280
 327 528 358 524 385 517 c 1
 385 545 l 2
 385 585 415 615 464 615 c 2
 555 615 l 1
 555 507 l 1
 431 507 l 1
 431 498 l 1
 487 469 520 417 520 344 c 0
 520 225 430 160 294 160 c 0
 264 160 235 163 210 170 c 1xea80
 195 162 184 150 184 132 c 0
 184 99 219 97 260 97 c 2
 378 97 l 2
 526 97 583 35 583 -52 c 0xf140
443 -63 m 0
 443 -36 426 -20 366 -20 c 2
 189 -20 l 1
 176 -31 169 -45 169 -62 c 0
 169 -94 194 -117 259 -117 c 2
 346 -117 l 2
 413 -117 443 -98 443 -63 c 0
294 254 m 0
 353 254 380 287 380 332 c 2
 380 356 l 2
 380 401 353 434 294 434 c 0
 236 434 210 401 210 356 c 2
 210 332 l 2xf280
 210 287 236 254 294 254 c 0
EndSplineSet
Validated: 1
Substitution2: "'salt' Stylistic Alternatives lookup 23 subtable" g.alt01
Substitution2: "'ss02' Style Set 2 lookup 17 subtable" g.alt01
AlternateSubs2: "'aalt' Access All Alternates lookup 1 subtable" g.alt01 g.alt02
EndChar

StartChar: g.alt01
Encoding: 65538 -1 9
Width: 600
GlyphClass: 2
Flags: MW
HStem: -212 116<250.5 316 250.5 366.5> 14 115<264 274.5> 413 115<264 274.5 176 323> 496 20G<393 541 541 541>
VStem: 39 154<209 245 245 298 209 357.5> 393 148<18 31 31 121 121 121 208 334 334 361 422 516>
AnchorPoint: "Anchor-2" 291 516 basechar 0
LayerCount: 2
Fore
SplineSet
541 516 m 1xdc
 541 31 l 2
 541 -122 453 -212 280 -212 c 0
 177 -212 111 -180 70 -137 c 1
 149 -43 l 1
 183 -78 225 -96 276 -96 c 0
 356 -96 393 -53 393 18 c 2
 393 121 l 1
 386 121 l 1
 360 59 316 14 233 14 c 0
 119 14 39 98 39 271 c 0
 39 444 119 528 233 528 c 0xec
 316 528 360 484 386 422 c 1
 393 422 l 1
 393 516 l 1
 541 516 l 1xdc
297 129 m 0xdc
 349 129 393 154 393 208 c 2
 393 334 l 2
 393 388 349 413 297 413 c 0xec
 231 413 193 370 193 298 c 2
 193 245 l 2
 193 173 231 129 297 129 c 0xdc
EndSplineSet
Validated: 1
EndChar

StartChar: g.alt02
Encoding: 65539 -1 10
Width: 600
GlyphClass: 2
Flags: MW
HStem: -212 95<259 346 346 379.5 259 395> -20 117<260 366 189 378> 160 94<279 323.5 265 362> 418 98<498 581 498 498> 434 94<265 312.5 227.5 323.5>
VStem: 47 122<-78 -64> 70 140<309.5 332 332 356 309.5 404.5> 74 110<115.5 120> 380 140<332 356 356 357.5 284 378.5> 443 140<-80.5 -49.5>
AnchorPoint: "Anchor-2" 296 516 basechar 0
LayerCount: 2
Fore
SplineSet
297 -212 m 0xf140
 101 -212 47 -163 47 -93 c 0xf480
 47 -35 84 -8 146 8 c 1
 146 14 l 1
 102 27 74 50 74 95 c 0xf180
 74 145 111 166 167 179 c 1
 167 185 l 1
 106 215 70 269 70 345 c 0
 70 464 159 528 296 528 c 0xea80
 329 528 360 524 387 516 c 1
 581 516 l 1
 581 418 l 1
 498 418 l 1
 514 397 520 373 520 342 c 0
 520 226 430 160 294 160 c 0
 264 160 235 163 210 170 c 1xf280
 195 162 184 150 184 132 c 0
 184 99 219 97 260 97 c 2
 378 97 l 2
 526 97 583 35 583 -52 c 0
 583 -161 493 -212 297 -212 c 0xf140
294 254 m 0
 353 254 380 287 380 332 c 2
 380 356 l 2
 380 401 353 434 294 434 c 0
 236 434 210 401 210 356 c 2
 210 332 l 2xea80
 210 287 236 254 294 254 c 0
443 -63 m 0xf440
 443 -36 426 -20 366 -20 c 2
 189 -20 l 1
 176 -31 169 -45 169 -62 c 0
 169 -94 194 -117 259 -117 c 2
 346 -117 l 2
 413 -117 443 -98 443 -63 c 0xf440
EndSplineSet
Validated: 1
EndChar

StartChar: h
Encoding: 104 104 11
Width: 600
GlyphClass: 2
Flags: MW
HStem: 0 21G<65 65 65 213 391 391 391 539> 414 114<329.5 333> 720 20G<65 213 213 213>
VStem: 65 148<0 339 422 740> 391 148<0 314 314 334 0 346.5>
AnchorPoint: "Anchor-2" 139 698 basechar 0
AnchorPoint: "Anchor-0" 302 0 basechar 0
LayerCount: 2
Fore
SplineSet
65 0 m 1
 65 740 l 1
 213 740 l 1
 213 422 l 1
 219 422 l 1
 242 480 288 528 371 528 c 0
 470 528 539 459 539 334 c 2
 539 0 l 1
 391 0 l 1
 391 314 l 2
 391 379 362 414 304 414 c 0
 258 414 213 389 213 339 c 2
 213 0 l 1
 65 0 l 1
EndSplineSet
Validated: 1
EndChar

StartChar: i
Encoding: 105 105 12
Width: 600
GlyphClass: 2
Flags: MW
HStem: 0 115<94 258 94 258 406 558> 401 115<94 258 94 406> 582 169<299 365>
VStem: 243 178<652 681 632.5 701> 258 148<115 401 401 401>
AnchorPoint: "Anchor-1" 558 0 basechar 0
AnchorPoint: "Anchor-0" 332 0 basechar 0
LayerCount: 2
Fore
SplineSet
332 582 m 0xf0
 266 582 243 613 243 652 c 2
 243 681 l 2
 243 721 266 751 332 751 c 0
 398 751 421 721 421 681 c 2
 421 652 l 2
 421 613 398 582 332 582 c 0xf0
94 0 m 1
 94 115 l 1
 258 115 l 1
 258 401 l 1
 94 401 l 1
 94 516 l 1
 406 516 l 1
 406 115 l 1xe8
 558 115 l 1
 558 0 l 1
 94 0 l 1
EndSplineSet
Validated: 1
Substitution2: "Single Substitution lookup 26 subtable" dotlessi
EndChar

StartChar: j
Encoding: 106 106 13
Width: 600
GlyphClass: 1
Flags: MW
HStem: -200 115<92 290 92 281> 401 115<90 290 90 438> 582 169<331 396.5>
VStem: 275 178<652 681 632.5 701> 290 148<-85 -51 -51 401 401 401>
LayerCount: 2
Fore
SplineSet
92 -200 m 1xe8
 92 -85 l 1
 290 -85 l 1
 290 401 l 1
 90 401 l 1
 90 516 l 1
 438 516 l 1
 438 -51 l 2
 438 -138 387 -200 281 -200 c 2
 92 -200 l 1xe8
364 582 m 0
 298 582 275 613 275 652 c 2
 275 681 l 2
 275 721 298 751 364 751 c 0
 429 751 453 721 453 681 c 2
 453 652 l 2xf0
 453 613 429 582 364 582 c 0
EndSplineSet
Validated: 1
Substitution2: "Single Substitution lookup 26 subtable" uni0237
EndChar

StartChar: k
Encoding: 107 107 14
Width: 600
GlyphClass: 2
Flags: MW
HStem: 0 21G<65 65 65 213 412 412 412 588> 496 20G<397 567 567 567> 720 20G<65 213 213 213>
VStem: 65 148<0 179 320 740>
AnchorPoint: "Anchor-0" 308 0 basechar 0
LayerCount: 2
Fore
SplineSet
65 0 m 1
 65 740 l 1
 213 740 l 1
 213 320 l 1
 220 320 l 1
 289 401 l 1
 397 516 l 1
 567 516 l 1
 367 312 l 1
 588 0 l 1
 412 0 l 1
 262 228 l 1
 213 179 l 1
 213 0 l 1
 65 0 l 1
EndSplineSet
Validated: 1
EndChar

StartChar: l
Encoding: 108 108 15
Width: 600
GlyphClass: 2
Flags: MW
HStem: 0 115<68 226 68 226 374 532> 625 115<68 226 68 374>
VStem: 226 148<115 625 625 625>
AnchorPoint: "Anchor-3" 437 740 basechar 0
AnchorPoint: "Anchor-2" 300 698 basechar 0
AnchorPoint: "Anchor-0" 300 0 basechar 0
LayerCount: 2
Fore
SplineSet
68 0 m 1
 68 115 l 1
 226 115 l 1
 226 625 l 1
 68 625 l 1
 68 740 l 1
 374 740 l 1
 374 115 l 1
 532 115 l 1
 532 0 l 1
 68 0 l 1
EndSplineSet
Validated: 1
EndChar

StartChar: m
Encoding: 109 109 16
Width: 600
GlyphClass: 2
Flags: MW
HStem: 0 21G<30 149 30 30 240 240 240 360 451 451 451 570> 419 109<183.5 278.5> 496 20G<30 149 149 149>
VStem: 30 119<0 368 440 516> 240 120<0 354 354 368 0 378> 451 119<0 354 354 369 0 378>
AnchorPoint: "Anchor-2" 300 516 basechar 0
AnchorPoint: "Anchor-0" 300 0 basechar 0
LayerCount: 2
Fore
SplineSet
149 0 m 1xdc
 30 0 l 1
 30 516 l 1
 149 516 l 1xbc
 149 440 l 1
 156 440 l 1
 172 488 199 528 254 528 c 0
 303 528 335 497 346 440 c 1
 352 440 l 1
 369 487 398 528 462 528 c 0
 534 528 570 475 570 369 c 2
 570 0 l 1
 451 0 l 1
 451 354 l 2
 451 402 433 419 406 419 c 0
 381 419 360 403 360 368 c 2
 360 0 l 1
 240 0 l 1
 240 354 l 2
 240 402 223 419 197 419 c 0
 170 419 149 403 149 368 c 2
 149 0 l 1xdc
EndSplineSet
Validated: 1
EndChar

StartChar: n
Encoding: 110 110 17
Width: 600
GlyphClass: 2
Flags: MW
HStem: 0 21G<65 213 65 65 391 391 391 539> 414 114<329.5 333> 496 20G<65 213 213 213>
VStem: 65 148<0 339 422 516> 391 148<0 314 314 334 0 346.5>
AnchorPoint: "Anchor-2" 302 516 basechar 0
AnchorPoint: "Anchor-0" 302 0 basechar 0
LayerCount: 2
Fore
SplineSet
213 0 m 1xd8
 65 0 l 1
 65 516 l 1
 213 516 l 1xb8
 213 422 l 1
 219 422 l 1
 242 480 288 528 371 528 c 0
 470 528 539 459 539 334 c 2
 539 0 l 1
 391 0 l 1
 391 314 l 2
 391 379 362 414 304 414 c 0
 258 414 213 389 213 339 c 2
 213 0 l 1xd8
EndSplineSet
Validated: 1
EndChar

StartChar: o
Encoding: 111 111 18
Width: 600
GlyphClass: 2
Flags: MW
HStem: -12 110<267 333 267 380.5> 418 110<267 333>
VStem: 41 153<179 217 217 299 179 341.5> 406 153<217 299 299 337>
AnchorPoint: "Anchor-2" 300 516 basechar 0
AnchorPoint: "Anchor-0" 300 0 basechar 0
LayerCount: 2
Fore
SplineSet
300 -12 m 0
 139 -12 41 91 41 258 c 0
 41 425 139 528 300 528 c 0
 461 528 559 425 559 258 c 0
 559 91 461 -12 300 -12 c 0
300 98 m 0
 366 98 406 141 406 217 c 2
 406 299 l 2
 406 375 366 418 300 418 c 0
 234 418 194 375 194 299 c 2
 194 217 l 2
 194 141 234 98 300 98 c 0
EndSplineSet
Validated: 1
Substitution2: "'ordn' Ordinals lookup 6 subtable" ordmasculine
EndChar

StartChar: p
Encoding: 112 112 19
Width: 600
GlyphClass: 2
Flags: MW
HStem: -200 21G<59 59 59 207> -12 115<325.5 336 277 424> 413 115<325.5 336> 496 20G<59 207 207 207>
VStem: 59 148<-200 94 155 182 182 334 422 516> 407 154<218 298 298 334>
AnchorPoint: "Anchor-2" 310 516 basechar 0
LayerCount: 2
Fore
SplineSet
59 -200 m 1xec
 59 516 l 1
 207 516 l 1xdc
 207 422 l 1
 214 422 l 1
 240 484 284 528 367 528 c 0
 481 528 561 445 561 258 c 0
 561 71 481 -12 367 -12 c 0
 284 -12 240 32 214 94 c 1
 207 94 l 1
 207 -200 l 1
 59 -200 l 1xec
303 103 m 0
 369 103 407 146 407 218 c 2
 407 298 l 2
 407 370 369 413 303 413 c 0xec
 251 413 207 388 207 334 c 2
 207 182 l 2
 207 128 251 103 303 103 c 0
EndSplineSet
Validated: 1
EndChar

StartChar: q
Encoding: 113 113 20
Width: 600
GlyphClass: 2
Flags: MW
HStem: -200 21G<393 393 393 541> -12 115<264 274.5> 413 115<264 274.5 176 323> 496 20G<393 541 541 541>
VStem: 39 154<182 218 218 298 182 351.5> 393 148<-200 94 94 94 182 334 334 361 422 516 -200 516>
AnchorPoint: "Anchor-2" 290 516 basechar 0
LayerCount: 2
Fore
SplineSet
393 -200 m 1xdc
 393 94 l 1
 386 94 l 1
 360 32 316 -12 233 -12 c 0
 119 -12 39 71 39 258 c 0
 39 445 119 528 233 528 c 0xec
 316 528 360 484 386 422 c 1
 393 422 l 1
 393 516 l 1
 541 516 l 1
 541 -200 l 1
 393 -200 l 1xdc
297 103 m 0
 349 103 393 128 393 182 c 2
 393 334 l 2
 393 388 349 413 297 413 c 0
 231 413 193 370 193 298 c 2
 193 218 l 2
 193 146 231 103 297 103 c 0
EndSplineSet
Validated: 1
EndChar

StartChar: r
Encoding: 114 114 21
Width: 600
GlyphClass: 2
Flags: MW
HStem: 0 115<74 193 74 193 341 470> 380 136<74 452 513 562> 401 115<74 193 74 341>
VStem: 193 148<115 268 370 401 401 401>
AnchorPoint: "Anchor-2" 325 516 basechar 0
AnchorPoint: "Anchor-0" 267 0 basechar 0
LayerCount: 2
Fore
SplineSet
74 0 m 1xd0
 74 115 l 1
 193 115 l 1
 193 401 l 1
 74 401 l 1xb0
 74 516 l 1
 341 516 l 1
 341 370 l 1
 348 370 l 1
 367 446 411 516 513 516 c 2
 562 516 l 1
 562 380 l 1
 452 380 l 2
 379 380 341 330 341 268 c 2
 341 115 l 1
 470 115 l 1
 470 0 l 1
 74 0 l 1xd0
EndSplineSet
Validated: 1
EndChar

StartChar: s
Encoding: 115 115 22
Width: 600
GlyphClass: 2
Flags: MW
HStem: -12 104<260.5 324 260.5 370.5> 424 104<280 341.5>
VStem: 77 145<357 389 357 409> 389 145<128.5 161.5>
AnchorPoint: "Anchor-2" 305 516 basechar 0
AnchorPoint: "Anchor-0" 293 0 basechar 0
LayerCount: 2
Fore
SplineSet
294 -12 m 0
 180 -12 91 25 49 85 c 1
 132 162 l 1
 172 118 226 92 295 92 c 0
 353 92 389 110 389 147 c 0
 389 176 365 185 325 191 c 2
 242 204 l 2
 150 218 77 257 77 355 c 0
 77 463 164 528 313 528 c 0
 414 528 485 499 528 449 c 1
 454 365 l 1
 424 398 375 424 308 424 c 0
 252 424 222 406 222 372 c 0
 222 342 246 333 286 327 c 2
 368 314 l 2
 461 300 534 261 534 163 c 0
 534 56 447 -12 294 -12 c 0
EndSplineSet
Validated: 1
EndChar

StartChar: t
Encoding: 116 116 23
Width: 600
GlyphClass: 2
Flags: MW
HStem: 0 115<330 340 340 531> 401 115<42 133 133 155 42 182 42 133 330 531> 678 20G<194 330 330 330>
VStem: 182 148<149 401 115 401>
AnchorPoint: "Anchor-3" 396 780 basechar 0
AnchorPoint: "Anchor-0" 361 0 basechar 0
LayerCount: 2
Fore
SplineSet
531 0 m 1
 340 0 l 2
 233 0 182 62 182 149 c 2
 182 401 l 1
 42 401 l 1
 42 516 l 1
 133 516 l 2
 177 516 194 531 194 577 c 2
 194 698 l 1
 330 698 l 1
 330 516 l 1
 531 516 l 1
 531 401 l 1
 330 401 l 1
 330 115 l 1
 531 115 l 1
 531 0 l 1
EndSplineSet
Validated: 1
EndChar

StartChar: u
Encoding: 117 117 24
Width: 600
GlyphClass: 2
Flags: MW
HStem: -12 114<267 270.5> 0 21G<387 387 387 535> 496 20G<61 209 209 209 387 535 535 535>
VStem: 61 148<182 202 202 516> 387 148<0 94 94 94 177 516 0 516>
AnchorPoint: "Anchor-2" 298 516 basechar 0
AnchorPoint: "Anchor-1" 535 0 basechar 0
AnchorPoint: "Anchor-0" 298 0 basechar 0
LayerCount: 2
Fore
SplineSet
387 0 m 1x78
 387 94 l 1
 381 94 l 1
 358 36 312 -12 229 -12 c 0
 130 -12 61 57 61 182 c 2
 61 516 l 1
 209 516 l 1
 209 202 l 2
 209 137 238 102 296 102 c 0xb8
 342 102 387 127 387 177 c 2
 387 516 l 1
 535 516 l 1
 535 0 l 1
 387 0 l 1x78
EndSplineSet
Validated: 1
EndChar

StartChar: v
Encoding: 118 118 25
Width: 600
GlyphClass: 2
Flags: MW
HStem: 0 123<299 307 299 388 212 307> 496 20G<27 183 183 183 423 573 573 573>
VStem: 27 546<516 516>
AnchorPoint: "Anchor-2" 300 516 basechar 0
AnchorPoint: "Anchor-0" 300 0 basechar 0
LayerCount: 2
Fore
SplineSet
388 0 m 5
 212 0 l 5
 27 516 l 5
 183 516 l 5
 250 295 l 5
 299 123 l 5
 307 123 l 5
 356 295 l 5
 423 516 l 5
 573 516 l 5
 388 0 l 5
EndSplineSet
Validated: 1
EndChar

StartChar: w
Encoding: 119 119 26
Width: 600
GlyphClass: 2
Flags: MW
HStem: 0 98<167 177 167 244 428 438> 356 160<295 305 295 295>
VStem: 7 586<516 516>
AnchorPoint: "Anchor-2" 300 516 basechar 0
AnchorPoint: "Anchor-0" 300 0 basechar 0
LayerCount: 2
Fore
SplineSet
68 0 m 1
 7 516 l 1
 130 516 l 1
 167 98 l 1
 177 98 l 1
 238 516 l 1
 368 516 l 1
 428 98 l 1
 438 98 l 1
 476 516 l 1
 593 516 l 1
 532 0 l 1
 356 0 l 1
 305 356 l 1
 295 356 l 1
 244 0 l 1
 68 0 l 1
EndSplineSet
Validated: 1
EndChar

StartChar: x
Encoding: 120 120 27
Width: 600
GlyphClass: 2
Flags: MW
HStem: 0 21G<23 179 23 23 407 407 407 577> 496 20G<36 205 205 205 409 564 564 564>
VStem: 23 554<0 0>
AnchorPoint: "Anchor-2" 300 516 basechar 0
AnchorPoint: "Anchor-0" 300 0 basechar 0
LayerCount: 2
Fore
SplineSet
179 0 m 1
 23 0 l 1
 216 262 l 1
 36 516 l 1
 205 516 l 1
 260 433 l 1
 302 366 l 1
 310 366 l 1
 353 433 l 1
 409 516 l 1
 564 516 l 1
 384 270 l 1
 577 0 l 1
 407 0 l 1
 342 97 l 1
 297 166 l 1
 289 166 l 1
 245 97 l 1
 179 0 l 1
EndSplineSet
Validated: 1
EndChar

StartChar: y
Encoding: 121 121 28
Width: 600
GlyphClass: 2
Flags: MW
HStem: -200 115<71 173 71 195> 496 20G<19 178 178 178 430 581 581 581>
VStem: 19 562<516 516>
AnchorPoint: "Anchor-2" 303 516 basechar 0
AnchorPoint: "Anchor-0" 482 0 basechar 0
LayerCount: 2
Fore
SplineSet
353 299 m 1
 430 516 l 1
 581 516 l 1
 338 -83 l 2
 308 -158 261 -200 173 -200 c 2
 71 -200 l 1
 71 -85 l 1
 195 -85 l 1
 227 3 l 1
 19 516 l 1
 178 516 l 1
 253 299 l 1
 300 149 l 1
 308 149 l 1
 353 299 l 1
EndSplineSet
Validated: 1
EndChar

StartChar: z
Encoding: 122 122 29
Width: 600
GlyphClass: 2
Flags: MW
HStem: 0 115<237 534 237 534> 401 115<76 353 76 524>
VStem: 66 468<0 115 0 123 0 123>
AnchorPoint: "Anchor-2" 300 516 basechar 0
AnchorPoint: "Anchor-0" 300 0 basechar 0
LayerCount: 2
Fore
SplineSet
534 0 m 1
 66 0 l 1
 66 123 l 1
 353 401 l 1
 76 401 l 1
 76 516 l 1
 524 516 l 1
 524 393 l 1
 237 115 l 1
 534 115 l 1
 534 0 l 1
EndSplineSet
Validated: 1
EndChar

StartChar: A
Encoding: 65 65 30
Width: 600
GlyphClass: 2
Flags: MW
HStem: 0 21G<5 157 5 5 435 595 435 435> 168 121<224 368 224 391 200 368> 553 145<292 300 292 292>
VStem: 5 590<0 0>
AnchorPoint: "Anchor-2" 300 698 basechar 0
AnchorPoint: "Anchor-1" 595 0 basechar 0
AnchorPoint: "Anchor-0" 300 0 basechar 0
LayerCount: 2
Fore
SplineSet
595 0 m 1
 435 0 l 1
 391 168 l 1
 200 168 l 1
 157 0 l 1
 5 0 l 1
 194 698 l 1
 406 698 l 1
 595 0 l 1
368 289 m 1
 300 553 l 1
 292 553 l 1
 224 289 l 1
 368 289 l 1
EndSplineSet
Validated: 1
EndChar

StartChar: B
Encoding: 66 66 31
Width: 600
GlyphClass: 2
Flags: MW
HStem: 0 105<223 299 299 334.5 223 345> 302 100<223 280 280 299 223 280> 593 105<223 280 223 223>
VStem: 77 146<105 105 105 302 402 593> 381 153<483 513 513 543.5> 403 153<189 218 218 239 133.5 249.5>
AnchorPoint: "Anchor-2" 295 698 basechar 0
AnchorPoint: "Anchor-0" 300 0 basechar 0
LayerCount: 2
Fore
SplineSet
77 0 m 1xf4
 77 698 l 1
 322 698 l 2
 458 698 534 626 534 512 c 0xf8
 534 433 493 386 420 365 c 1
 420 359 l 1
 506 338 556 286 556 192 c 0
 556 75 477 0 345 0 c 2
 77 0 l 1xf4
223 105 m 1
 299 105 l 2
 370 105 403 125 403 189 c 2
 403 218 l 2xf4
 403 281 370 302 299 302 c 2
 223 302 l 1
 223 105 l 1
223 402 m 1
 280 402 l 2
 350 402 381 422 381 483 c 2
 381 513 l 2xf8
 381 574 350 593 280 593 c 2
 223 593 l 1
 223 402 l 1
EndSplineSet
Validated: 1
EndChar

StartChar: C
Encoding: 67 67 32
Width: 600
GlyphClass: 2
Flags: MW
HStem: -12 121<272.5 348 272.5 388> 589 121<272.5 348>
VStem: 41 160<234.5 288 288 410 232.5 463.5>
AnchorPoint: "Anchor-2" 312 698 basechar 0
AnchorPoint: "Anchor-0" 303 0 basechar 0
LayerCount: 2
Fore
SplineSet
316 -12 m 0
 129 -12 41 120 41 349 c 0
 41 578 129 710 316 710 c 0
 460 710 535 631 563 509 c 1
 423 475 l 1
 408 541 383 589 313 589 c 0
 232 589 201 521 201 410 c 2
 201 288 l 2
 201 177 232 109 313 109 c 0
 383 109 408 157 423 223 c 1
 563 189 l 1
 535 67 460 -12 316 -12 c 0
EndSplineSet
Validated: 1
EndChar

StartChar: D
Encoding: 68 68 33
Width: 600
GlyphClass: 2
Flags: MW
HStem: 0 118<212 279 279 289> 580 118<212 279 212 212>
VStem: 64 148<118 118 118 580> 408 158<286 413 413 461 237 467>
AnchorPoint: "Anchor-2" 278 698 basechar 0
AnchorPoint: "Anchor-0" 278 0 basechar 0
LayerCount: 2
Fore
SplineSet
64 0 m 1
 64 698 l 1
 289 698 l 2
 476 698 566 573 566 349 c 0
 566 125 476 0 289 0 c 2
 64 0 l 1
212 118 m 1
 279 118 l 2
 368 118 408 177 408 286 c 2
 408 413 l 2
 408 521 368 580 279 580 c 2
 212 580 l 1
 212 118 l 1
EndSplineSet
Validated: 1
EndChar

StartChar: E
Encoding: 69 69 34
Width: 600
GlyphClass: 2
Flags: MW
HStem: 0 123<230 526 230 526> 292 123<230 516 230 516> 575 123<230 526 230 230>
VStem: 80 150<123 292 415 575>
AnchorPoint: "Anchor-2" 303 698 basechar 0
AnchorPoint: "Anchor-1" 526 0 basechar 0
AnchorPoint: "Anchor-0" 303 0 basechar 0
LayerCount: 2
Fore
SplineSet
526 0 m 1
 80 0 l 1
 80 698 l 1
 526 698 l 1
 526 575 l 1
 230 575 l 1
 230 415 l 1
 516 415 l 1
 516 292 l 1
 230 292 l 1
 230 123 l 1
 526 123 l 1
 526 0 l 1
EndSplineSet
Validated: 1
EndChar

StartChar: F
Encoding: 70 70 35
Width: 600
GlyphClass: 2
Flags: MW
HStem: 0 21G<80 230 80 80> 292 123<230 510 230 510> 575 123<230 543 230 230>
VStem: 80 150<0 292 415 575>
AnchorPoint: "Anchor-2" 311 698 basechar 0
AnchorPoint: "Anchor-0" 151 0 basechar 0
LayerCount: 2
Fore
SplineSet
230 0 m 1
 80 0 l 1
 80 698 l 1
 543 698 l 1
 543 575 l 1
 230 575 l 1
 230 415 l 1
 510 415 l 1
 510 292 l 1
 230 292 l 1
 230 0 l 1
EndSplineSet
Validated: 1
EndChar

StartChar: G
Encoding: 71 71 36
Width: 600
GlyphClass: 2
Flags: MW
HStem: -12 121<266.5 289> 0 21G<411 411 411 545> 267 106<292 411 292 545> 589 121<260 332.5>
VStem: 35 159<239.5 296 296 410 239.5 461.5> 411 134<0 99 99 99 216 267 267 267>
AnchorPoint: "Anchor-2" 301 698 basechar 0
AnchorPoint: "Anchor-0" 298 0 basechar 0
LayerCount: 2
Fore
SplineSet
411 0 m 1x7c
 411 99 l 1
 402 99 l 1
 379 41 332 -12 246 -12 c 0
 109 -12 35 121 35 343 c 0
 35 580 120 710 301 710 c 0
 445 710 517 629 545 509 c 1
 405 475 l 1
 390 534 367 589 298 589 c 0
 222 589 194 522 194 410 c 2
 194 296 l 2
 194 183 223 109 310 109 c 0xbc
 377 109 411 154 411 216 c 2
 411 267 l 1
 292 267 l 1
 292 373 l 1
 545 373 l 1
 545 0 l 1
 411 0 l 1x7c
EndSplineSet
Validated: 1
EndChar

StartChar: H
Encoding: 72 72 37
Width: 600
GlyphClass: 2
Flags: MW
HStem: 0 21G<61 212 61 61 388 539 388 388> 292 123<212 388 212 388> 678 20G<61 212 212 212 388 539 539 539>
VStem: 61 151<0 292 0 415 415 698> 388 151<0 292 292 292 415 698 0 698>
AnchorPoint: "Anchor-2" 300 698 basechar 0
AnchorPoint: "Anchor-0" 300 0 basechar 0
LayerCount: 2
Fore
SplineSet
388 0 m 1
 388 292 l 1
 212 292 l 1
 212 0 l 1
 61 0 l 1
 61 698 l 1
 212 698 l 1
 212 415 l 1
 388 415 l 1
 388 698 l 1
 539 698 l 1
 539 0 l 1
 388 0 l 1
EndSplineSet
Validated: 1
EndChar

StartChar: I
Encoding: 73 73 38
Width: 600
GlyphClass: 2
Flags: MW
HStem: 0 111<75 225 375 525 75 225> 587 111<75 225 75 525 375 375 375 525>
VStem: 225 150<111 587 111 587>
AnchorPoint: "Anchor-2" 300 698 basechar 0
AnchorPoint: "Anchor-1" 525 0 basechar 0
AnchorPoint: "Anchor-0" 300 0 basechar 0
LayerCount: 2
Fore
SplineSet
525 0 m 1
 75 0 l 1
 75 111 l 1
 225 111 l 1
 225 587 l 1
 75 587 l 1
 75 698 l 1
 525 698 l 1
 525 587 l 1
 375 587 l 1
 375 111 l 1
 525 111 l 1
 525 0 l 1
EndSplineSet
Validated: 1
EndChar

StartChar: J
Encoding: 74 74 39
Width: 600
GlyphClass: 2
Flags: MW
HStem: -12 122<248 303.5 248 349> 575 123<129 359 129 511>
VStem: 359 152<210 575 575 575>
AnchorPoint: "Anchor-2" 321 698 basechar 0
AnchorPoint: "Anchor-0" 275 0 basechar 0
LayerCount: 2
Fore
SplineSet
129 698 m 1
 511 698 l 1
 511 195 l 2
 511 69 420 -12 278 -12 c 0
 135 -12 60 66 38 182 c 1
 180 211 l 1
 191 152 218 110 278 110 c 0
 329 110 359 142 359 210 c 2
 359 575 l 1
 129 575 l 1
 129 698 l 1
EndSplineSet
Validated: 1
EndChar

StartChar: K
Encoding: 75 75 40
Width: 600
GlyphClass: 2
Flags: MW
HStem: 0 21G<68 218 68 68 434 603 434 434> 678 20G<68 218 218 218 425 593 593 593>
VStem: 68 150<0 204 406 698>
AnchorPoint: "Anchor-2" 317 698 basechar 0
AnchorPoint: "Anchor-0" 325 0 basechar 0
LayerCount: 2
Fore
SplineSet
434 0 m 1
 280 291 l 1
 218 204 l 1
 218 0 l 1
 68 0 l 1
 68 698 l 1
 218 698 l 1
 218 406 l 1
 226 406 l 1
 302 522 l 1
 425 698 l 1
 593 698 l 1
 384 403 l 1
 603 0 l 1
 434 0 l 1
EndSplineSet
Validated: 1
EndChar

StartChar: L
Encoding: 76 76 41
Width: 600
GlyphClass: 2
Flags: MW
HStem: 0 123<243 543 243 543> 678 20G<92 243 243 243>
VStem: 92 151<123 698 123 698 123 698>
AnchorPoint: "Anchor-3" 320 740 basechar 0
AnchorPoint: "Anchor-2" 167 698 basechar 0
AnchorPoint: "Anchor-0" 317 0 basechar 0
LayerCount: 2
Fore
SplineSet
543 0 m 1
 92 0 l 1
 92 698 l 1
 243 698 l 1
 243 123 l 1
 543 123 l 1
 543 0 l 1
EndSplineSet
Validated: 1
EndChar

StartChar: M
Encoding: 77 77 42
Width: 600
GlyphClass: 2
Flags: MW
HStem: 0 21G<39 169 39 39 431 561 431 431> 147 316<300 310> 506 192<161 170 161 161 430 439 430 430>
VStem: 39 130<0 311 0 698> 431 130<0 311 311 311>
AnchorPoint: "Anchor-2" 300 698 basechar 0
AnchorPoint: "Anchor-0" 300 0 basechar 0
LayerCount: 2
Fore
SplineSet
431 0 m 1
 431 311 l 1
 439 506 l 1
 430 506 l 1
 300 147 l 1
 170 506 l 1
 161 506 l 1
 169 311 l 1
 169 0 l 1
 39 0 l 1
 39 698 l 1
 216 698 l 1
 302 463 l 1
 310 463 l 1
 396 698 l 1
 561 698 l 1
 561 0 l 1
 431 0 l 1
EndSplineSet
Validated: 1
EndChar

StartChar: N
Encoding: 78 78 43
Width: 600
GlyphClass: 2
Flags: MW
HStem: 0 234<61 411 400 411 400 539 359 411> 464 234<189 200 189 189>
VStem: 61 128<0 464 0 698> 411 128<234 698 0 698>
AnchorPoint: "Anchor-2" 300 698 basechar 0
AnchorPoint: "Anchor-0" 300 0 basechar 0
LayerCount: 2
Fore
SplineSet
359 0 m 1
 200 464 l 1
 189 464 l 1
 189 0 l 1
 61 0 l 1
 61 698 l 1
 241 698 l 1
 400 234 l 1
 411 234 l 1
 411 698 l 1
 539 698 l 1
 539 0 l 1
 359 0 l 1
EndSplineSet
Validated: 1
EndChar

StartChar: O
Encoding: 79 79 44
Width: 600
GlyphClass: 2
Flags: MW
HStem: -12 121<257.5 342.5 257.5 393.5> 589 121<257.5 342.5>
VStem: 27 160<235 288 288 410 232 463> 413 160<289 410 410 463 235 466>
AnchorPoint: "Anchor-2" 300 698 basechar 0
AnchorPoint: "Anchor-0" 300 0 basechar 0
LayerCount: 2
Fore
SplineSet
300 -12 m 0
 113 -12 27 121 27 349 c 0
 27 577 113 710 300 710 c 0
 487 710 573 577 573 349 c 0
 573 121 487 -12 300 -12 c 0
300 109 m 0
 385 109 413 176 413 289 c 2
 413 410 l 2
 413 522 385 589 300 589 c 0
 215 589 187 522 187 410 c 2
 187 288 l 2
 187 176 215 109 300 109 c 0
EndSplineSet
Validated: 1
EndChar

StartChar: P
Encoding: 80 80 45
Width: 600
GlyphClass: 2
Flags: MW
HStem: 0 21G<76 227 76 76> 254 121<227 308 308 343 227 346 227 308> 577 121<227 227 227 308>
VStem: 76 151<0 254 375 577> 402 158<461 491 491 521.5>
AnchorPoint: "Anchor-2" 300 698 basechar 0
AnchorPoint: "Anchor-0" 151 0 basechar 0
LayerCount: 2
Fore
SplineSet
227 0 m 1
 76 0 l 1
 76 698 l 1
 346 698 l 2
 483 698 560 611 560 476 c 0
 560 341 483 254 346 254 c 2
 227 254 l 1
 227 0 l 1
227 577 m 1
 227 375 l 1
 308 375 l 2
 378 375 402 400 402 461 c 2
 402 491 l 2
 402 552 378 577 308 577 c 2
 227 577 l 1
EndSplineSet
Validated: 1
EndChar

StartChar: Q
Encoding: 81 81 46
Width: 600
GlyphClass: 2
Flags: MW
HStem: -191 107<365 384 384 526> -6 115<235 342.5 257.5 365> 589 121<257.5 342.5>
VStem: 27 160<249 288 288 410 232 463> 235 130<-47 -6 -84 -6> 413 160<289 410 410 463 249 466>
AnchorPoint: "Anchor-2" 300 698 basechar 0
LayerCount: 2
Fore
SplineSet
526 -84 m 1
 526 -191 l 1
 384 -191 l 2
 276 -191 235 -134 235 -47 c 2
 235 -6 l 1
 93 22 27 149 27 349 c 0
 27 577 113 710 300 710 c 0
 487 710 573 577 573 349 c 0
 573 149 507 22 365 -6 c 1
 365 -84 l 1
 526 -84 l 1
300 109 m 0
 385 109 413 176 413 289 c 2
 413 410 l 2
 413 522 385 589 300 589 c 0
 215 589 187 522 187 410 c 2
 187 288 l 2
 187 176 215 109 300 109 c 0
EndSplineSet
Validated: 1
EndChar

StartChar: R
Encoding: 82 82 47
Width: 600
GlyphClass: 2
Flags: MW
HStem: 0 21G<76 224 76 76 410 410 410 574> 259 116<224 310 224 293> 577 121<224 310 224 224>
VStem: 76 148<0 259 375 577> 404 156<461 491 491 521.5>
AnchorPoint: "Anchor-2" 304 698 basechar 0
AnchorPoint: "Anchor-0" 315 0 basechar 0
LayerCount: 2
Fore
SplineSet
224 259 m 1
 224 0 l 1
 76 0 l 1
 76 698 l 1
 346 698 l 2
 483 698 560 611 560 476 c 0
 560 378 515 301 437 279 c 1
 574 0 l 1
 410 0 l 1
 293 259 l 1
 224 259 l 1
224 375 m 1
 310 375 l 2
 380 375 404 400 404 461 c 2
 404 491 l 2
 404 552 380 577 310 577 c 2
 224 577 l 1
 224 375 l 1
EndSplineSet
Validated: 1
EndChar

StartChar: S
Encoding: 83 83 48
Width: 600
GlyphClass: 2
Flags: MW
HStem: -12 122<263 329.5 263 376.5> 588 122<277.5 342.5>
VStem: 59 151<481 532.5 481 565> 404 152<173 227.5>
AnchorPoint: "Anchor-2" 305 698 basechar 0
AnchorPoint: "Anchor-0" 292 0 basechar 0
LayerCount: 2
Fore
SplineSet
289 -12 m 0
 173 -12 84 30 31 96 c 1
 118 192 l 1
 169 136 232 110 294 110 c 0
 365 110 404 143 404 203 c 0
 404 252 378 275 310 286 c 2
 237 298 l 2
 112 319 59 396 59 498 c 0
 59 632 152 710 310 710 c 0
 417 710 499 674 548 617 c 1
 463 522 l 1
 426 563 374 588 311 588 c 0
 244 588 210 560 210 505 c 0
 210 457 238 436 306 424 c 2
 379 411 l 2
 491 391 556 325 556 215 c 0
 556 84 464 -12 289 -12 c 0
EndSplineSet
Validated: 1
EndChar

StartChar: T
Encoding: 84 84 49
Width: 600
GlyphClass: 2
Flags: MW
HStem: 0 21G<225 375 225 225> 575 123<24 225 24 576 375 576 375 375>
VStem: 225 150<0 575 0 575>
AnchorPoint: "Anchor-2" 300 698 basechar 0
AnchorPoint: "Anchor-0" 300 0 basechar 0
LayerCount: 2
Fore
SplineSet
576 575 m 1
 375 575 l 1
 375 0 l 1
 225 0 l 1
 225 575 l 1
 24 575 l 1
 24 698 l 1
 576 698 l 1
 576 575 l 1
EndSplineSet
Validated: 1
EndChar

StartChar: U
Encoding: 85 85 50
Width: 600
GlyphClass: 2
Flags: MW
HStem: -12 121<256 344 256 401.5> 678 20G<55 205 205 205 395 545 545 545>
VStem: 55 150<276 698> 395 150<256 276 276 698>
AnchorPoint: "Anchor-2" 300 698 basechar 0
AnchorPoint: "Anchor-1" 404 0 basechar 0
AnchorPoint: "Anchor-0" 300 0 basechar 0
LayerCount: 2
Fore
SplineSet
55 698 m 1
 205 698 l 1
 205 256 l 2
 205 167 212 109 300 109 c 0
 388 109 395 167 395 256 c 2
 395 698 l 1
 545 698 l 1
 545 276 l 2
 545 85 503 -12 300 -12 c 0
 97 -12 55 85 55 276 c 2
 55 698 l 1
EndSplineSet
Validated: 1
EndChar

StartChar: V
Encoding: 86 86 51
Width: 600
GlyphClass: 2
Flags: MW
HStem: 0 142<299 307 299 406 194 307> 678 20G<9 176 176 176 432 591 591 591>
VStem: 9 582<698 698>
AnchorPoint: "Anchor-2" 300 698 basechar 0
AnchorPoint: "Anchor-0" 300 0 basechar 0
LayerCount: 2
Fore
SplineSet
406 0 m 1
 194 0 l 1
 9 698 l 1
 176 698 l 1
 258 343 l 1
 299 142 l 1
 307 142 l 1
 349 343 l 1
 432 698 l 1
 591 698 l 1
 406 0 l 1
EndSplineSet
Validated: 1
EndChar

StartChar: W
Encoding: 87 87 52
Width: 600
GlyphClass: 2
Flags: MW
HStem: 0 148<166 175 166 244 54 175 430 439> 385 161<295 305 295 295> 678 20G<11 140 140 140 465 589 589 589>
VStem: 11 578<698 698>
AnchorPoint: "Anchor-2" 300 698 basechar 0
AnchorPoint: "Anchor-0" 300 0 basechar 0
LayerCount: 2
Fore
SplineSet
244 0 m 1
 54 0 l 1
 11 698 l 1
 140 698 l 1
 160 280 l 1
 166 148 l 1
 175 148 l 1
 235 546 l 1
 370 546 l 1
 430 148 l 1
 439 148 l 1
 445 276 l 1
 465 698 l 1
 589 698 l 1
 546 0 l 1
 356 0 l 1
 305 385 l 1
 295 385 l 1
 244 0 l 1
EndSplineSet
Validated: 1
EndChar

StartChar: X
Encoding: 88 88 53
Width: 600
GlyphClass: 2
Flags: MW
HStem: 0 21G<9 166 9 9 420 591 420 420> 678 20G<22 193 193 193 421 578 578 578>
VStem: 9 582<0 0>
AnchorPoint: "Anchor-2" 300 698 basechar 0
AnchorPoint: "Anchor-0" 300 0 basechar 0
LayerCount: 2
Fore
SplineSet
395 359 m 1
 591 0 l 1
 420 0 l 1
 348 139 l 1
 299 249 l 1
 290 249 l 1
 240 139 l 1
 166 0 l 1
 9 0 l 1
 205 361 l 1
 22 698 l 1
 193 698 l 1
 250 587 l 1
 301 475 l 1
 309 475 l 1
 361 587 l 1
 421 698 l 1
 578 698 l 1
 395 359 l 1
EndSplineSet
Validated: 1
EndChar

StartChar: Y
Encoding: 89 89 54
Width: 600
GlyphClass: 2
Flags: MW
HStem: 0 21G<225 375 225 225> 678 20G<4 171 171 171 435 596 596 596>
VStem: 225 150<0 247>
AnchorPoint: "Anchor-2" 300 698 basechar 0
AnchorPoint: "Anchor-0" 300 0 basechar 0
LayerCount: 2
Fore
SplineSet
375 0 m 1
 225 0 l 1
 225 247 l 1
 4 698 l 1
 171 698 l 1
 245 536 l 1
 299 399 l 1
 307 399 l 1
 361 536 l 1
 435 698 l 1
 596 698 l 1
 375 247 l 1
 375 0 l 1
EndSplineSet
Validated: 1
EndChar

StartChar: Z
Encoding: 90 90 55
Width: 600
GlyphClass: 2
Flags: MW
HStem: 0 123<216 551 216 551> 575 123<58 373 58 541>
VStem: 48 503<0 123 0 131 0 131>
AnchorPoint: "Anchor-2" 300 698 basechar 0
AnchorPoint: "Anchor-0" 299 0 basechar 0
LayerCount: 2
Fore
SplineSet
551 123 m 1
 551 0 l 1
 48 0 l 1
 48 131 l 1
 373 575 l 1
 58 575 l 1
 58 698 l 1
 541 698 l 1
 541 567 l 1
 216 123 l 1
 551 123 l 1
EndSplineSet
Validated: 1
EndChar

StartChar: zero
Encoding: 48 48 56
Width: 600
GlyphClass: 1
Flags: MW
HStem: -12 118<255.5 344.5 255.5 393.5> 290 118<277 323> 592 118<255.5 344.5>
VStem: 27 153<235 284 284 414 228.5 463> 238 124<338 360 324.5 373.5> 420 153<284 414 414 463 235 469.5>
CounterMasks: 1 fc
LayerCount: 2
Fore
SplineSet
300 -12 m 0
 113 -12 27 121 27 349 c 0
 27 577 113 710 300 710 c 0
 487 710 573 577 573 349 c 0
 573 121 487 -12 300 -12 c 0
300 106 m 0
 389 106 420 173 420 284 c 2
 420 414 l 2
 420 525 389 592 300 592 c 0
 211 592 180 525 180 414 c 2
 180 284 l 2
 180 173 211 106 300 106 c 0
300 290 m 0
 254 290 238 311 238 338 c 2
 238 360 l 2
 238 387 254 408 300 408 c 0
 346 408 362 387 362 360 c 2
 362 338 l 2
 362 311 346 290 300 290 c 0
EndSplineSet
Validated: 1
Substitution2: "'salt' Stylistic Alternatives lookup 23 subtable" zero.alt02
Substitution2: "'ss04' Style Set 4 lookup 19 subtable" zero.alt02
Substitution2: "'ss03' Style Set 3 lookup 18 subtable" zero.alt01
Substitution2: "'zero' Slashed Zero lookup 15 subtable" zero.alt01
Substitution2: "'onum' Oldstyle Figures lookup 13 subtable" zero.tosf
Substitution2: "'subs' Subscript lookup 12 subtable" uni2080
Substitution2: "'sinf' Scientific Inferiors lookup 11 subtable" uni2080
Substitution2: "'sups' Superscript lookup 10 subtable" uni2070
Substitution2: "'dnom' Denominators lookup 9 subtable" zero.dnom
Substitution2: "'numr' Numerators lookup 8 subtable" zero.numr
AlternateSubs2: "'aalt' Access All Alternates lookup 1 subtable" zero.alt01 zero.alt02 zero.tosf zero.tosf.alt01 zero.tosf.alt02 zero.numr zero.dnom
EndChar

StartChar: zero.alt01
Encoding: 65540 -1 57
Width: 600
GlyphClass: 1
Flags: MW
HStem: -12 113<273.5 346.5 273.5 393.5> 597 113<253.5 326.5>
VStem: 27 147<290.5 292 292 414 290.5 463> 426 147<284 406 406 407.5>
LayerCount: 2
Fore
SplineSet
300 -12 m 0
 113 -12 27 121 27 349 c 0
 27 577 113 710 300 710 c 0
 487 710 573 577 573 349 c 0
 573 121 487 -12 300 -12 c 0
300 597 m 0
 207 597 174 529 174 414 c 2
 174 292 l 2
 174 289 174 286 175 282 c 1
 405 533 l 1
 387 574 353 597 300 597 c 0
300 101 m 0
 393 101 426 169 426 284 c 2
 426 406 l 2
 426 409 426 412 425 416 c 1
 195 165 l 1
 213 124 247 101 300 101 c 0
EndSplineSet
Validated: 1
EndChar

StartChar: zero.alt02
Encoding: 65541 -1 58
Width: 600
GlyphClass: 1
Flags: MW
HStem: -12 121<257.5 342.5 257.5 393.5> 589 121<257.5 342.5>
VStem: 27 160<235 288 288 410 232 463> 413 160<289 410 410 463 235 466>
LayerCount: 2
Fore
SplineSet
300 -12 m 0
 113 -12 27 121 27 349 c 0
 27 577 113 710 300 710 c 0
 487 710 573 577 573 349 c 0
 573 121 487 -12 300 -12 c 0
300 109 m 0
 385 109 413 176 413 289 c 2
 413 410 l 2
 413 522 385 589 300 589 c 0
 215 589 187 522 187 410 c 2
 187 288 l 2
 187 176 215 109 300 109 c 0
EndSplineSet
Validated: 1
EndChar

StartChar: one
Encoding: 49 49 59
Width: 600
GlyphClass: 1
Flags: MW
HStem: 0 121<94 282 432 580 94 282> 589 109<273 282 273 273>
VStem: 282 150<121 589 589 589>
LayerCount: 2
Fore
SplineSet
580 0 m 1
 94 0 l 1
 94 121 l 1
 282 121 l 1
 282 589 l 1
 273 589 l 1
 131 403 l 1
 35 478 l 1
 202 698 l 1
 432 698 l 1
 432 121 l 1
 580 121 l 1
 580 0 l 1
EndSplineSet
Validated: 1
Substitution2: "'onum' Oldstyle Figures lookup 13 subtable" one.tosf
Substitution2: "'subs' Subscript lookup 12 subtable" uni2081
Substitution2: "'sinf' Scientific Inferiors lookup 11 subtable" uni2081
Substitution2: "'sups' Superscript lookup 10 subtable" onesuperior
Substitution2: "'dnom' Denominators lookup 9 subtable" one.dnom
Substitution2: "'numr' Numerators lookup 8 subtable" one.numr
AlternateSubs2: "'aalt' Access All Alternates lookup 1 subtable" one.tosf one.numr one.dnom
EndChar

StartChar: two
Encoding: 50 50 60
Width: 600
GlyphClass: 1
Flags: MW
HStem: 0 126<219 555 219 555> 580 130<250.5 313>
VStem: 380 160<481 491 491 520>
LayerCount: 2
Fore
SplineSet
555 126 m 1
 555 0 l 1
 53 0 l 1
 53 137 l 1
 273 320 l 2
 349 385 380 428 380 481 c 2
 380 491 l 2
 380 549 342 580 284 580 c 0
 217 580 184 535 169 482 c 1
 38 532 l 1
 69 628 151 710 299 710 c 0
 452 710 540 621 540 500 c 0
 540 384 457 309 352 229 c 2
 219 126 l 1
 555 126 l 1
EndSplineSet
Validated: 1
Substitution2: "'onum' Oldstyle Figures lookup 13 subtable" two.tosf
Substitution2: "'subs' Subscript lookup 12 subtable" uni2082
Substitution2: "'sinf' Scientific Inferiors lookup 11 subtable" uni2082
Substitution2: "'sups' Superscript lookup 10 subtable" twosuperior
Substitution2: "'dnom' Denominators lookup 9 subtable" two.dnom
Substitution2: "'numr' Numerators lookup 8 subtable" two.numr
AlternateSubs2: "'aalt' Access All Alternates lookup 1 subtable" two.tosf two.numr two.dnom
EndChar

StartChar: three
Encoding: 51 51 61
Width: 600
GlyphClass: 1
Flags: MW
HStem: -12 122<246.5 320.5 246.5 364.5> 297 125<207 272 207 273> 588 122<257.5 317>
VStem: 384 158<498 505 505 530> 397 158<204 211 211 239.5>
LayerCount: 2
Fore
SplineSet
207 422 m 1xe8
 273 422 l 2
 350 422 384 455 384 498 c 2
 384 505 l 2
 384 555 348 588 286 588 c 0
 229 588 177 558 142 505 c 1
 47 593 l 1
 101 662 170 710 292 710 c 0
 443 710 542 637 542 525 c 0xf0
 542 436 480 381 406 368 c 1
 406 362 l 1
 491 347 555 290 555 194 c 0
 555 69 447 -12 282 -12 c 0
 142 -12 69 52 24 122 c 1
 135 208 l 1
 166 151 208 110 285 110 c 0
 356 110 397 146 397 204 c 2
 397 211 l 2
 397 268 350 297 272 297 c 2
 207 297 l 1
 207 422 l 1xe8
EndSplineSet
Validated: 1
Substitution2: "'onum' Oldstyle Figures lookup 13 subtable" three.tosf
Substitution2: "'subs' Subscript lookup 12 subtable" uni2083
Substitution2: "'sinf' Scientific Inferiors lookup 11 subtable" uni2083
Substitution2: "'sups' Superscript lookup 10 subtable" threesuperior
Substitution2: "'dnom' Denominators lookup 9 subtable" three.dnom
Substitution2: "'numr' Numerators lookup 8 subtable" three.numr
AlternateSubs2: "'aalt' Access All Alternates lookup 1 subtable" three.tosf three.numr three.dnom
EndChar

StartChar: four
Encoding: 52 52 62
Width: 600
GlyphClass: 1
Flags: MW
HStem: 0 21G<339 483 339 339> 134 116<146 339 146 339 483 573> 543 155<330 330 330 339>
VStem: 339 144<0 134 0 134 250 543 543 543>
LayerCount: 2
Fore
SplineSet
483 0 m 1
 339 0 l 1
 339 134 l 1
 25 134 l 1
 25 262 l 1
 303 698 l 1
 483 698 l 1
 483 250 l 1
 573 250 l 1
 573 134 l 1
 483 134 l 1
 483 0 l 1
330 543 m 1
 146 250 l 1
 339 250 l 1
 339 543 l 1
 330 543 l 1
EndSplineSet
Validated: 1
Substitution2: "'onum' Oldstyle Figures lookup 13 subtable" four.tosf
Substitution2: "'subs' Subscript lookup 12 subtable" uni2084
Substitution2: "'sinf' Scientific Inferiors lookup 11 subtable" uni2084
Substitution2: "'sups' Superscript lookup 10 subtable" uni2074
Substitution2: "'dnom' Denominators lookup 9 subtable" four.dnom
Substitution2: "'numr' Numerators lookup 8 subtable" four.numr
AlternateSubs2: "'aalt' Access All Alternates lookup 1 subtable" four.tosf four.numr four.dnom
EndChar

StartChar: five
Encoding: 53 53 63
Width: 600
GlyphClass: 1
Flags: MW
HStem: -12 122<259 333 259 382> 335 121<311 333.5> 567 131<202 525 202 202>
VStem: 409 158<222 230 230 262.5>
LayerCount: 2
Fore
SplineSet
525 698 m 1
 525 567 l 1
 202 567 l 1
 186 346 l 1
 195 346 l 1
 224 411 268 456 354 456 c 0
 469 456 567 374 567 234 c 0
 567 93 469 -12 295 -12 c 0
 158 -12 85 52 42 122 c 1
 151 208 l 1
 182 154 222 110 296 110 c 0
 370 110 409 154 409 222 c 2
 409 230 l 2
 409 295 367 335 300 335 c 0
 244 335 208 307 189 286 c 1
 66 303 l 1
 92 698 l 1
 525 698 l 1
EndSplineSet
Validated: 1
Substitution2: "'onum' Oldstyle Figures lookup 13 subtable" five.tosf
Substitution2: "'subs' Subscript lookup 12 subtable" uni2085
Substitution2: "'sinf' Scientific Inferiors lookup 11 subtable" uni2085
Substitution2: "'sups' Superscript lookup 10 subtable" uni2075
Substitution2: "'dnom' Denominators lookup 9 subtable" five.dnom
Substitution2: "'numr' Numerators lookup 8 subtable" five.numr
AlternateSubs2: "'aalt' Access All Alternates lookup 1 subtable" five.tosf five.numr five.dnom
EndChar

StartChar: six
Encoding: 54 54 64
Width: 600
GlyphClass: 1
Flags: MW
HStem: -12 117<267.5 339 267.5 384.5> 335 115<316.5 338> 678 20G<293 500 500 500>
VStem: 38 156<181 214 214 228 179.5 363> 413 156<214 228 228 262.5>
LayerCount: 2
Fore
SplineSet
304 -12 m 0
 136 -12 38 97 38 265 c 0
 38 461 172 617 293 698 c 1
 500 698 l 1
 327 577 224 483 195 348 c 1
 204 345 l 1
 229 398 271 450 362 450 c 0
 479 450 569 365 569 232 c 0
 569 90 465 -12 304 -12 c 0
303 105 m 0
 375 105 413 145 413 214 c 2
 413 228 l 2
 413 297 373 335 303 335 c 0
 235 335 194 297 194 228 c 2
 194 214 l 2
 194 145 232 105 303 105 c 0
EndSplineSet
Validated: 1
Substitution2: "'onum' Oldstyle Figures lookup 13 subtable" six.tosf
Substitution2: "'subs' Subscript lookup 12 subtable" uni2086
Substitution2: "'sinf' Scientific Inferiors lookup 11 subtable" uni2086
Substitution2: "'sups' Superscript lookup 10 subtable" uni2076
Substitution2: "'dnom' Denominators lookup 9 subtable" six.dnom
Substitution2: "'numr' Numerators lookup 8 subtable" six.numr
AlternateSubs2: "'aalt' Access All Alternates lookup 1 subtable" six.tosf six.numr six.dnom
EndChar

StartChar: seven
Encoding: 55 55 65
Width: 600
GlyphClass: 1
Flags: MW
HStem: 0 21G<164 322 164 164> 576 122<178 404 178 178>
VStem: 51 127<449 576 449 698 449 698>
LayerCount: 2
Fore
SplineSet
322 0 m 1
 164 0 l 1
 404 576 l 1
 178 576 l 1
 178 449 l 1
 51 449 l 1
 51 698 l 1
 553 698 l 1
 553 568 l 1
 322 0 l 1
EndSplineSet
Validated: 1
Substitution2: "'onum' Oldstyle Figures lookup 13 subtable" seven.tosf
Substitution2: "'subs' Subscript lookup 12 subtable" uni2087
Substitution2: "'sinf' Scientific Inferiors lookup 11 subtable" uni2087
Substitution2: "'sups' Superscript lookup 10 subtable" uni2077
Substitution2: "'dnom' Denominators lookup 9 subtable" seven.dnom
Substitution2: "'numr' Numerators lookup 8 subtable" seven.numr
AlternateSubs2: "'aalt' Access All Alternates lookup 1 subtable" seven.tosf seven.numr seven.dnom
EndChar

StartChar: eight
Encoding: 56 56 66
Width: 600
GlyphClass: 1
Flags: MW
HStem: -12 115<265.5 334.5 265.5 384> 301 110<267 333 267 335> 595 115<267.5 332.5>
VStem: 36 157<165 192 192 212 165 237> 57 141<485.5 496 496 511 470 579.5> 402 141<496 511 511 537> 407 157<192 212 212 237 133 239.5>
LayerCount: 2
Fore
SplineSet
300 -12 m 0xf2
 132 -12 36 74 36 192 c 0xf2
 36 282 94 338 175 360 c 1
 175 368 l 1
 106 393 57 445 57 526 c 0
 57 633 144 710 300 710 c 0
 456 710 543 633 543 526 c 0xec
 543 445 494 393 425 368 c 1
 425 360 l 1
 506 338 564 282 564 192 c 0
 564 74 468 -12 300 -12 c 0xf2
300 103 m 0
 369 103 407 138 407 192 c 2
 407 212 l 2
 407 267 370 301 300 301 c 0
 230 301 193 267 193 212 c 2
 193 192 l 2
 193 138 231 103 300 103 c 0
300 411 m 0
 366 411 402 444 402 496 c 2
 402 511 l 2
 402 563 365 595 300 595 c 0
 235 595 198 563 198 511 c 2
 198 496 l 2xec
 198 444 234 411 300 411 c 0
EndSplineSet
Validated: 1
Substitution2: "'onum' Oldstyle Figures lookup 13 subtable" eight.tosf
Substitution2: "'subs' Subscript lookup 12 subtable" uni2088
Substitution2: "'sinf' Scientific Inferiors lookup 11 subtable" uni2088
Substitution2: "'sups' Superscript lookup 10 subtable" uni2078
Substitution2: "'dnom' Denominators lookup 9 subtable" eight.dnom
Substitution2: "'numr' Numerators lookup 8 subtable" eight.numr
AlternateSubs2: "'aalt' Access All Alternates lookup 1 subtable" eight.tosf eight.numr eight.dnom
EndChar

StartChar: nine
Encoding: 57 57 67
Width: 600
GlyphClass: 1
Flags: MW
HStem: 0 21G<100 307 100 100> 248 115<262 283.5> 593 117<261 332.5>
VStem: 31 156<435.5 470 470 484 435.5 537> 406 156<470 484 484 517 335 518.5>
LayerCount: 2
Fore
SplineSet
562 433 m 0
 562 237 428 81 307 0 c 1
 100 0 l 1
 273 121 376 215 405 350 c 1
 396 353 l 1
 371 300 329 248 238 248 c 0
 121 248 31 333 31 466 c 0
 31 608 135 710 296 710 c 0
 464 710 562 601 562 433 c 0
297 363 m 0
 365 363 406 401 406 470 c 2
 406 484 l 2
 406 553 368 593 297 593 c 0
 225 593 187 553 187 484 c 2
 187 470 l 2
 187 401 227 363 297 363 c 0
EndSplineSet
Validated: 1
Substitution2: "'onum' Oldstyle Figures lookup 13 subtable" nine.tosf
Substitution2: "'subs' Subscript lookup 12 subtable" uni2089
Substitution2: "'sinf' Scientific Inferiors lookup 11 subtable" uni2089
Substitution2: "'sups' Superscript lookup 10 subtable" uni2079
Substitution2: "'dnom' Denominators lookup 9 subtable" nine.dnom
Substitution2: "'numr' Numerators lookup 8 subtable" nine.numr
AlternateSubs2: "'aalt' Access All Alternates lookup 1 subtable" nine.tosf nine.numr nine.dnom
EndChar

StartChar: zero.tosf
Encoding: 65542 -1 68
Width: 600
GlyphClass: 1
Flags: MW
HStem: -12 122<267.5 332.5 267.5 377> 211 114<280.5 319.5> 426 122<267.5 332.5>
VStem: 35 157<186 220 220 316 186 351> 242 116<261 275 246.5 289.5> 408 157<220 316 316 350>
CounterMasks: 1 fc
LayerCount: 2
Fore
SplineSet
300 211 m 0
 261 211 242 232 242 261 c 2
 242 275 l 2
 242 304 261 325 300 325 c 0
 339 325 358 304 358 275 c 2
 358 261 l 2
 358 232 339 211 300 211 c 0
300 110 m 0
 365 110 408 152 408 220 c 2
 408 316 l 2
 408 384 365 426 300 426 c 0
 235 426 192 384 192 316 c 2
 192 220 l 2
 192 152 235 110 300 110 c 0
300 -12 m 0
 146 -12 35 102 35 268 c 0
 35 434 146 548 300 548 c 0
 454 548 565 434 565 268 c 0
 565 102 454 -12 300 -12 c 0
EndSplineSet
Validated: 1
Substitution2: "'ss04' Style Set 4 lookup 19 subtable" zero.tosf.alt02
Substitution2: "'ss03' Style Set 3 lookup 18 subtable" zero.tosf.alt01
Substitution2: "'zero' Slashed Zero lookup 15 subtable" zero.tosf.alt01
Substitution2: "'lnum' Lining Figures lookup 14 subtable" zero
EndChar

StartChar: zero.tosf.alt01
Encoding: 65543 -1 69
Width: 600
GlyphClass: 1
Flags: MW
HStem: -12 117<283 335.5 283 377> 431 117<264.5 317>
VStem: 35 149<221 312 221 352.5> 416 149<224 315 315 315>
LayerCount: 2
Fore
SplineSet
300 -12 m 0
 146 -12 35 99 35 268 c 0
 35 437 146 548 300 548 c 0
 454 548 565 437 565 268 c 0
 565 99 454 -12 300 -12 c 0
300 105 m 0
 371 105 416 151 416 224 c 2
 416 315 l 1
 219 136 l 1
 239 116 266 105 300 105 c 0
300 431 m 0
 229 431 184 385 184 312 c 2
 184 221 l 1
 381 400 l 1
 361 420 334 431 300 431 c 0
EndSplineSet
Validated: 1
EndChar

StartChar: zero.tosf.alt02
Encoding: 65544 -1 70
Width: 600
GlyphClass: 1
Flags: MW
HStem: -12 122<267.5 332.5 267.5 377> 426 122<267.5 332.5>
VStem: 35 158<186 220 220 316 186 351> 407 158<220 316 316 350>
LayerCount: 2
Fore
SplineSet
300 -12 m 0
 146 -12 35 102 35 268 c 0
 35 434 146 548 300 548 c 0
 454 548 565 434 565 268 c 0
 565 102 454 -12 300 -12 c 0
300 110 m 0
 365 110 407 152 407 220 c 2
 407 316 l 2
 407 384 365 426 300 426 c 0
 235 426 193 384 193 316 c 2
 193 220 l 2
 193 152 235 110 300 110 c 0
EndSplineSet
Validated: 1
EndChar

StartChar: one.tosf
Encoding: 65545 -1 71
Width: 600
GlyphClass: 1
Flags: MW
HStem: 0 115<104 280 428 578 104 280> 516 20G<261 428 428 428>
VStem: 280 148<115 407 407 407>
LayerCount: 2
Fore
SplineSet
578 0 m 1
 104 0 l 1
 104 115 l 1
 280 115 l 1
 280 407 l 1
 271 407 l 1
 120 316 l 1
 59 419 l 1
 261 536 l 1
 428 536 l 1
 428 115 l 1
 578 115 l 1
 578 0 l 1
EndSplineSet
Validated: 1
Substitution2: "'lnum' Lining Figures lookup 14 subtable" one
EndChar

StartChar: two.tosf
Encoding: 65546 -1 72
Width: 600
GlyphClass: 1
Flags: MW
HStem: 0 115<257 546 257 546> 432 116<239.5 291.5>
VStem: 356 154<343 356 356 382>
LayerCount: 2
Fore
SplineSet
64 0 m 1
 64 119 l 1
 256 229 l 2
 322 267 356 306 356 343 c 2
 356 356 l 2
 356 408 314 432 269 432 c 0
 210 432 175 394 154 351 c 1
 54 416 l 1
 89 484 164 548 287 548 c 0
 424 548 510 486 510 363 c 0
 510 248 409 190 322 147 c 2
 257 115 l 1
 546 115 l 1
 546 0 l 1
 64 0 l 1
EndSplineSet
Validated: 1
Substitution2: "'lnum' Lining Figures lookup 14 subtable" two
EndChar

StartChar: three.tosf
Encoding: 65547 -1 73
Width: 600
GlyphClass: 1
Flags: MW
HStem: -166 117<237 304 237 349> 143 115<199 258 199 260> 431 117<246.5 301>
VStem: 361 154<335 349 349 374> 374 154<42 54 54 82>
LayerCount: 2
Fore
SplineSet
272 -166 m 0xe8
 141 -166 72 -107 27 -36 c 1
 132 46 l 1
 163 -11 202 -49 272 -49 c 0
 336 -49 374 -16 374 42 c 2
 374 54 l 2xe8
 374 110 331 143 258 143 c 2
 199 143 l 1
 199 258 l 1
 260 258 l 2
 331 258 361 293 361 335 c 2
 361 349 l 2
 361 399 329 431 273 431 c 0
 220 431 174 405 139 352 c 1
 50 435 l 1
 103 502 164 548 278 548 c 0
 423 548 515 476 515 365 c 0xf0
 515 278 456 224 384 209 c 1
 384 203 l 1
 466 187 528 128 528 37 c 0
 528 -87 426 -166 272 -166 c 0xe8
EndSplineSet
Validated: 1
Substitution2: "'lnum' Lining Figures lookup 14 subtable" three
EndChar

StartChar: four.tosf
Encoding: 65548 -1 74
Width: 600
GlyphClass: 1
Flags: MW
HStem: -154 21G<337 482 337 337> 0 110<145 337 145 337 482 568> 516 20G<304 482 482 482>
VStem: 337 145<-154 0 110 379 379 379>
LayerCount: 2
Fore
SplineSet
482 -154 m 1
 337 -154 l 1
 337 0 l 1
 20 0 l 1
 20 118 l 1
 304 536 l 1
 482 536 l 1
 482 110 l 1
 568 110 l 1
 568 0 l 1
 482 0 l 1
 482 -154 l 1
327 379 m 1
 145 110 l 1
 337 110 l 1
 337 379 l 1
 327 379 l 1
EndSplineSet
Validated: 1
Substitution2: "'lnum' Lining Figures lookup 14 subtable" four
EndChar

StartChar: five.tosf
Encoding: 65549 -1 75
Width: 600
GlyphClass: 1
Flags: MW
HStem: -166 117<259.5 327.5 259.5 375> 179 117<301 326> 416 120<210 512 210 210>
VStem: 398 154<62 71 71 102.5>
LayerCount: 2
Fore
SplineSet
291 -166 m 0
 166 -166 95 -108 53 -38 c 1
 158 44 l 1
 189 -10 225 -49 294 -49 c 0
 361 -49 398 -4 398 62 c 2
 398 71 l 2
 398 134 357 179 295 179 c 0
 243 179 214 153 195 132 c 1
 72 149 l 1
 100 536 l 1
 512 536 l 1
 512 416 l 1
 210 416 l 1
 193 195 l 1
 201 195 l 1
 225 253 261 296 341 296 c 0
 458 296 552 217 552 78 c 0
 552 -62 459 -166 291 -166 c 0
EndSplineSet
Validated: 1
Substitution2: "'lnum' Lining Figures lookup 14 subtable" five
EndChar

StartChar: six.tosf
Encoding: 65550 -1 76
Width: 600
GlyphClass: 1
Flags: MW
HStem: -12 117<270.5 337.5 270.5 383.5> 335 115<317.5 337.5> 678 20G<292 483 483 483>
VStem: 44 154<181 211 211 229 177 362> 410 154<211 229 229 263>
LayerCount: 2
Fore
SplineSet
304 -12 m 0
 138 -12 44 97 44 265 c 0
 44 459 173 619 292 698 c 1
 483 698 l 1
 318 576 226 481 199 348 c 1
 208 345 l 1
 232 398 273 450 362 450 c 0
 478 450 564 365 564 233 c 0
 564 89 463 -12 304 -12 c 0
304 105 m 0
 371 105 410 143 410 211 c 2
 410 229 l 2
 410 297 371 335 304 335 c 0
 237 335 198 297 198 229 c 2
 198 211 l 2
 198 143 237 105 304 105 c 0
EndSplineSet
Validated: 1
Substitution2: "'lnum' Lining Figures lookup 14 subtable" six
EndChar

StartChar: seven.tosf
Encoding: 65551 -1 77
Width: 600
GlyphClass: 1
Flags: MW
HStem: -154 21G<162 320 162 162> 419 117<186 396 186 186>
VStem: 59 127<295 419 295 536 295 536>
LayerCount: 2
Fore
SplineSet
320 -154 m 1
 162 -154 l 1
 396 419 l 1
 186 419 l 1
 186 295 l 1
 59 295 l 1
 59 536 l 1
 545 536 l 1
 545 421 l 1
 320 -154 l 1
EndSplineSet
Validated: 1
Substitution2: "'lnum' Lining Figures lookup 14 subtable" seven
EndChar

StartChar: eight.tosf
Encoding: 65552 -1 78
Width: 600
GlyphClass: 1
Flags: MW
HStem: -12 113<266.5 333.5 266.5 381.5> 304 104<268.5 331.5 268.5 333.5> 597 113<268 332>
VStem: 42 153<164.5 192 192 212 164.5 236> 63 137<481.5 495 495 511 469 577.5> 400 137<495 511 511 536.5> 405 153<192 212 212 236 133.5 240>
LayerCount: 2
Fore
SplineSet
300 -12 m 0xea
 137 -12 42 76 42 191 c 0xf2
 42 281 99 339 183 360 c 1
 183 368 l 1
 115 390 63 439 63 524 c 0
 63 631 147 710 300 710 c 0
 453 710 537 631 537 524 c 0xec
 537 439 486 390 418 368 c 1
 418 360 l 1
 502 339 558 281 558 191 c 0
 558 76 463 -12 300 -12 c 0xea
300 101 m 0
 367 101 405 137 405 192 c 2
 405 212 l 2
 405 268 367 304 300 304 c 0
 233 304 195 268 195 212 c 2
 195 192 l 2
 195 137 233 101 300 101 c 0
300 408 m 0
 363 408 400 443 400 495 c 2
 400 511 l 2
 400 562 364 597 300 597 c 0
 236 597 200 562 200 511 c 2
 200 495 l 2xec
 200 443 237 408 300 408 c 0
EndSplineSet
Validated: 1
Substitution2: "'lnum' Lining Figures lookup 14 subtable" eight
EndChar

StartChar: nine.tosf
Encoding: 65553 -1 79
Width: 600
GlyphClass: 1
Flags: MW
HStem: -154 21G<128 319 128 128> 86 115<262.5 282.5> 431 117<262.5 329.5>
VStem: 36 154<273 307 307 325 273 375> 402 154<307 325 325 355 176 359>
LayerCount: 2
Fore
SplineSet
296 548 m 0
 462 548 556 439 556 271 c 0
 556 81 429 -78 319 -154 c 1
 128 -154 l 1
 284 -36 375 58 401 188 c 1
 392 191 l 1
 368 138 327 86 238 86 c 0
 122 86 36 171 36 303 c 0
 36 447 137 548 296 548 c 0
296 201 m 0
 363 201 402 239 402 307 c 2
 402 325 l 2
 402 393 363 431 296 431 c 0
 229 431 190 393 190 325 c 2
 190 307 l 2
 190 239 229 201 296 201 c 0
EndSplineSet
Validated: 1
Substitution2: "'lnum' Lining Figures lookup 14 subtable" nine
EndChar

StartChar: ampersand
Encoding: 38 38 80
Width: 600
GlyphClass: 1
Flags: MW
HStem: -12 113<215.5 248> 0 21G<441 599 441 441> 292 110<510 580 510 510> 600 110<244 284>
VStem: 14 136<166.5 198 198 200 166.5 232> 67 130<511 530 530 535 511 584>
LayerCount: 2
Fore
SplineSet
207 -12 m 0xb8
 82 -12 14 82 14 190 c 0xb8
 14 274 55 336 132 381 c 1
 89 440 67 483 67 534 c 0
 67 634 150 710 262 710 c 0
 362 710 432 650 453 586 c 1
 351 531 l 1
 337 574 304 600 264 600 c 0
 224 600 197 573 197 535 c 2
 197 530 l 2
 197 492 217 469 280 389 c 2
 337 317 l 1
 385 243 l 1
 391 243 l 1
 399 288 402 358 402 402 c 1
 580 402 l 1
 580 292 l 1
 510 292 l 1
 503 250 490 205 469 158 c 1
 599 0 l 1
 441 0 l 1x74
 361 97 l 1
 354 97 l 1
 345 29 289 -12 207 -12 c 0xb8
244 101 m 0
 274 101 303 111 321 141 c 1
 192 305 l 1
 158 272 150 238 150 200 c 2
 150 198 l 2
 150 135 187 101 244 101 c 0
EndSplineSet
Validated: 1
EndChar

StartChar: at
Encoding: 64 64 81
Width: 600
GlyphClass: 1
Flags: MW
HStem: -113 96<230 446 341 446> 79 86<306 407.5> 423 86<306 407.5> 615 95<258 348.5>
VStem: 38 112<164.5 229 229 358> 221 112<224 261 261 327 224 368> 446 107<91 152 152 152 224 364 364 382 436 463 91 519.5>
LayerCount: 2
Fore
SplineSet
446 -17 m 1
 446 -113 l 1
 341 -113 l 2
 119 -113 38 24 38 305 c 0
 38 608 132 710 301 710 c 0
 474 710 553 602 553 463 c 2
 553 91 l 1
 446 91 l 1
 446 152 l 1
 439 152 l 1
 424 103 391 79 345 79 c 0
 267 79 221 146 221 294 c 0
 221 442 267 509 345 509 c 0
 391 509 424 485 439 436 c 1
 446 436 l 1
 446 463 l 2
 446 576 390 615 307 615 c 0
 209 615 150 559 150 358 c 2
 150 229 l 2
 150 74 203 -17 341 -17 c 2
 446 -17 l 1
389 165 m 0
 426 165 446 188 446 224 c 2
 446 364 l 2
 446 400 426 423 389 423 c 0
 353 423 333 401 333 327 c 2
 333 261 l 2
 333 187 353 165 389 165 c 0
EndSplineSet
Validated: 1
EndChar

StartChar: hyphen
Encoding: 45 45 82
Width: 600
GlyphClass: 1
Flags: MW
HStem: 234 142<140 460 140 460>
VStem: 140 320<234 376 234 376>
LayerCount: 2
Fore
SplineSet
460 234 m 1
 140 234 l 1
 140 376 l 1
 460 376 l 1
 460 234 l 1
EndSplineSet
Validated: 1
EndChar

StartChar: uni2010
Encoding: 8208 8208 83
Width: 600
GlyphClass: 1
Flags: MW
HStem: 234 142<140 460 140 460>
VStem: 140 320<234 376 234 376>
LayerCount: 2
Fore
SplineSet
460 234 m 1
 140 234 l 1
 140 376 l 1
 460 376 l 1
 460 234 l 1
EndSplineSet
Validated: 1
EndChar

StartChar: uni2011
Encoding: 8209 8209 84
Width: 600
GlyphClass: 1
Flags: MW
HStem: 234 142<140 460 140 460>
VStem: 140 320<234 376 234 376>
LayerCount: 2
Fore
SplineSet
460 234 m 1
 140 234 l 1
 140 376 l 1
 460 376 l 1
 460 234 l 1
EndSplineSet
Validated: 1
EndChar

StartChar: uni2012
Encoding: 8210 8210 85
Width: 600
GlyphClass: 1
Flags: MW
HStem: 244 121<60 540 60 540>
VStem: 60 480<244 365 244 365>
LayerCount: 2
Fore
SplineSet
540 244 m 1
 60 244 l 1
 60 365 l 1
 540 365 l 1
 540 244 l 1
EndSplineSet
Validated: 1
EndChar

StartChar: endash
Encoding: 8211 8211 86
Width: 600
GlyphClass: 1
Flags: MW
HStem: 244 121<60 540 60 540>
VStem: 60 480<244 365 244 365>
LayerCount: 2
Fore
SplineSet
540 244 m 1
 60 244 l 1
 60 365 l 1
 540 365 l 1
 540 244 l 1
EndSplineSet
Validated: 1
EndChar

StartChar: emdash
Encoding: 8212 8212 87
Width: 600
GlyphClass: 1
Flags: MW
HStem: 244 121<0 600 0 600>
VStem: 0 600<244 365 244 365>
LayerCount: 2
Fore
SplineSet
600 244 m 1
 0 244 l 1
 0 365 l 1
 600 365 l 1
 600 244 l 1
EndSplineSet
Validated: 1
EndChar

StartChar: uni2015
Encoding: 8213 8213 88
Width: 600
GlyphClass: 1
Flags: MW
HStem: 244 121<0 600 0 600>
VStem: 0 600<244 365 244 365>
LayerCount: 2
Fore
SplineSet
600 244 m 1
 0 244 l 1
 0 365 l 1
 600 365 l 1
 600 244 l 1
EndSplineSet
Validated: 1
EndChar

StartChar: underscore
Encoding: 95 95 89
Width: 600
GlyphClass: 1
Flags: MW
HStem: -192 121<60 540 60 540>
VStem: 60 480<-192 -71 -192 -71>
LayerCount: 2
Fore
SplineSet
540 -192 m 1
 60 -192 l 1
 60 -71 l 1
 540 -71 l 1
 540 -192 l 1
EndSplineSet
Validated: 1
EndChar

StartChar: period
Encoding: 46 46 90
Width: 600
GlyphClass: 1
Flags: MW
HStem: -12 201<262.5 337.5>
VStem: 195 210<71 106 48.5 128.5>
LayerCount: 2
Fore
SplineSet
300 -12 m 0
 225 -12 195 26 195 71 c 2
 195 106 l 2
 195 151 225 189 300 189 c 0
 375 189 405 151 405 106 c 2
 405 71 l 2
 405 26 375 -12 300 -12 c 0
EndSplineSet
Validated: 1
EndChar

StartChar: ellipsis
Encoding: 8230 8230 91
Width: 600
GlyphClass: 1
Flags: MW
HStem: -7 154<77 126 275.5 324.5 474 522.5>
VStem: 29 145<47 93 32.5 107.5> 227 146<47 93 32.5 107.5> 426 145<47 93 32.5 107.5>
CounterMasks: 1 70
LayerCount: 2
Fore
SplineSet
102 -7 m 0
 52 -7 29 18 29 47 c 2
 29 93 l 2
 29 122 52 147 102 147 c 0
 150 147 174 122 174 93 c 2
 174 47 l 2
 174 18 150 -7 102 -7 c 0
300 -7 m 0
 251 -7 227 18 227 47 c 2
 227 93 l 2
 227 122 251 147 300 147 c 0
 349 147 373 122 373 93 c 2
 373 47 l 2
 373 18 349 -7 300 -7 c 0
498 -7 m 0
 450 -7 426 18 426 47 c 2
 426 93 l 2
 426 122 450 147 498 147 c 0
 547 147 571 122 571 93 c 2
 571 47 l 2
 571 18 547 -7 498 -7 c 0
EndSplineSet
Validated: 1
EndChar

StartChar: colon
Encoding: 58 58 92
Width: 600
GlyphClass: 1
Flags: MW
HStem: -12 201<262.5 337.5> 327 201<262.5 337.5>
VStem: 195 210<71 106 48.5 128.5 410 445>
LayerCount: 2
Fore
SplineSet
300 -12 m 0
 225 -12 195 26 195 71 c 2
 195 106 l 2
 195 151 225 189 300 189 c 0
 375 189 405 151 405 106 c 2
 405 71 l 2
 405 26 375 -12 300 -12 c 0
300 327 m 0x60
 225 327 195 365 195 410 c 2
 195 445 l 2
 195 490 225 528 300 528 c 0
 375 528 405 490 405 445 c 2
 405 410 l 2
 405 365 375 327 300 327 c 0x60
EndSplineSet
Validated: 1
EndChar

StartChar: comma
Encoding: 44 44 93
Width: 600
GlyphClass: 1
Flags: MW
HStem: -151 325<170 417 227 280>
VStem: 170 247
LayerCount: 2
Fore
SplineSet
170 -151 m 1
 227 174 l 1
 417 174 l 1
 280 -151 l 1
 170 -151 l 1
EndSplineSet
Validated: 1
EndChar

StartChar: semicolon
Encoding: 59 59 94
Width: 600
GlyphClass: 1
Flags: MW
HStem: -151 325<170 417 227 280> 327 201<262.5 337.5>
VStem: 170 247 195 210<410 445 387.5 467.5>
LayerCount: 2
Fore
SplineSet
170 -151 m 1xa0
 227 174 l 1
 417 174 l 1
 280 -151 l 1
 170 -151 l 1xa0
300 327 m 0x50
 225 327 195 365 195 410 c 2
 195 445 l 2
 195 490 225 528 300 528 c 0
 375 528 405 490 405 445 c 2
 405 410 l 2
 405 365 375 327 300 327 c 0x50
EndSplineSet
Validated: 1
EndChar

StartChar: quotesingle
Encoding: 39 39 95
Width: 600
GlyphClass: 1
Flags: MW
HStem: 720 20G<234 366 366 366>
VStem: 234 132<414 740>
LayerCount: 2
Fore
SplineSet
366 414 m 1
 234 414 l 1
 234 740 l 1
 366 740 l 1
 366 414 l 1
EndSplineSet
Validated: 1
EndChar

StartChar: quotedbl
Encoding: 34 34 96
Width: 600
GlyphClass: 1
Flags: MW
HStem: 720 20G<121 253 253 253 347 479 479 479>
VStem: 121 132<414 740> 347 132<414 740>
LayerCount: 2
Fore
SplineSet
253 414 m 1
 121 414 l 1
 121 740 l 1
 253 740 l 1
 253 414 l 1
479 414 m 1xa0
 347 414 l 1
 347 740 l 1
 479 740 l 1
 479 414 l 1xa0
EndSplineSet
Validated: 1
EndChar

StartChar: quoteleft
Encoding: 8216 8216 97
Width: 600
GlyphClass: 1
Flags: MW
HStem: 720 20G<300 409 409 409>
VStem: 162 247
LayerCount: 2
Fore
SplineSet
162 414 m 1
 300 740 l 1
 409 740 l 1
 352 414 l 1
 162 414 l 1
EndSplineSet
Validated: 1
EndChar

StartChar: quoteright
Encoding: 8217 8217 98
Width: 600
GlyphClass: 1
Flags: MW
HStem: 720 20G<248 438 438 438>
VStem: 191 247
LayerCount: 2
Fore
SplineSet
191 414 m 1
 248 740 l 1
 438 740 l 1
 300 414 l 1
 191 414 l 1
EndSplineSet
Validated: 1
EndChar

StartChar: quotedblleft
Encoding: 8220 8220 99
Width: 600
GlyphClass: 1
Flags: MW
HStem: 720 20G<171 280 280 280 430 539 539 539>
VStem: 33 247 292 247
LayerCount: 2
Fore
SplineSet
33 414 m 1
 171 740 l 1
 280 740 l 1
 223 414 l 1
 33 414 l 1
292 414 m 1xa0
 430 740 l 1
 539 740 l 1
 482 414 l 1
 292 414 l 1xa0
EndSplineSet
Validated: 1
EndChar

StartChar: quotedblright
Encoding: 8221 8221 100
Width: 600
GlyphClass: 1
Flags: MW
HStem: 720 20G<119 309 309 309 378 568 568 568>
VStem: 62 247 321 247
LayerCount: 2
Fore
SplineSet
62 414 m 1
 119 740 l 1
 309 740 l 1
 171 414 l 1
 62 414 l 1
321 414 m 1xa0
 378 740 l 1
 568 740 l 1
 430 414 l 1
 321 414 l 1xa0
EndSplineSet
Validated: 1
EndChar

StartChar: quotesinglbase
Encoding: 8218 8218 101
Width: 600
GlyphClass: 1
Flags: MW
HStem: -151 325<170 417 227 280>
VStem: 170 247
LayerCount: 2
Fore
SplineSet
170 -151 m 1
 227 174 l 1
 417 174 l 1
 280 -151 l 1
 170 -151 l 1
EndSplineSet
Validated: 1
EndChar

StartChar: quotedblbase
Encoding: 8222 8222 102
Width: 600
GlyphClass: 1
Flags: MW
HStem: -151 325<44 291 101 154 360 413 101 303>
VStem: 44 247 303 247
LayerCount: 2
Fore
SplineSet
44 -151 m 1
 101 174 l 1
 291 174 l 1
 154 -151 l 1
 44 -151 l 1
303 -151 m 1xa0
 360 174 l 1
 550 174 l 1
 413 -151 l 1
 303 -151 l 1xa0
EndSplineSet
Validated: 1
EndChar

StartChar: guilsinglleft
Encoding: 8249 8249 103
Width: 600
GlyphClass: 1
Flags: MW
HStem: 38 468<373 373>
VStem: 173 245<133 338 133 338>
LayerCount: 2
Fore
SplineSet
418 133 m 1
 373 38 l 1
 173 206 l 1
 173 338 l 1
 373 506 l 1
 418 410 l 1
 288 272 l 1
 418 133 l 1
EndSplineSet
Validated: 1
EndChar

StartChar: guilsinglright
Encoding: 8250 8250 104
Width: 600
GlyphClass: 1
Flags: MW
HStem: 38 468<227 227>
VStem: 182 245<133 338 206 410>
LayerCount: 2
Fore
SplineSet
227 38 m 1
 182 133 l 1
 312 272 l 1
 182 410 l 1
 227 506 l 1
 427 338 l 1
 427 206 l 1
 227 38 l 1
EndSplineSet
Validated: 1
EndChar

StartChar: guillemotleft
Encoding: 171 171 105
Width: 600
GlyphClass: 1
Flags: MW
HStem: 38 468<259 259 259 506>
VStem: 59 245<133 338 133 338> 306 245<133 338 133 338>
LayerCount: 2
Fore
SplineSet
304 133 m 1
 259 38 l 1
 59 206 l 1
 59 338 l 1
 259 506 l 1
 304 410 l 1
 174 272 l 1
 304 133 l 1
551 133 m 1xa0
 506 38 l 1
 306 206 l 1
 306 338 l 1
 506 506 l 1
 551 410 l 1
 421 272 l 1
 551 133 l 1xa0
EndSplineSet
Validated: 1
EndChar

StartChar: guillemotright
Encoding: 187 187 106
Width: 600
GlyphClass: 1
Flags: MW
HStem: 38 468<94 94 94 341>
VStem: 49 245<133 338 206 410> 296 245<133 338 206 410>
LayerCount: 2
Fore
SplineSet
94 38 m 1
 49 133 l 1
 179 272 l 1
 49 410 l 1
 94 506 l 1
 294 338 l 1
 294 206 l 1
 94 38 l 1
341 38 m 1xa0
 296 133 l 1
 426 272 l 1
 296 410 l 1
 341 506 l 1
 541 338 l 1
 541 206 l 1
 341 38 l 1xa0
EndSplineSet
Validated: 1
EndChar

StartChar: exclamdown
Encoding: 161 161 107
Width: 600
GlyphClass: 1
Flags: MW
HStem: 341 187<264.5 335.5>
VStem: 202 196<418 450 397 471.5> 219 162<-182 21>
LayerCount: 2
Fore
SplineSet
381 -182 m 1xa0
 219 -182 l 1
 219 21 l 1
 276 273 l 1
 324 273 l 1
 381 21 l 1
 381 -182 l 1xa0
300 341 m 0
 229 341 202 376 202 418 c 2
 202 450 l 2
 202 493 229 528 300 528 c 0
 371 528 398 493 398 450 c 2
 398 418 l 2xc0
 398 376 371 341 300 341 c 0
EndSplineSet
Validated: 1
EndChar

StartChar: exclam
Encoding: 33 33 108
Width: 600
GlyphClass: 1
Flags: MW
HStem: -12 187<264.5 335.5> 678 20G<219 381 381 381>
VStem: 202 196<66 98 44.5 119> 219 162<495 698 495 698>
LayerCount: 2
Fore
SplineSet
324 243 m 1xd0
 276 243 l 1
 219 495 l 1
 219 698 l 1
 381 698 l 1
 381 495 l 1
 324 243 l 1xd0
300 -12 m 0
 229 -12 202 23 202 66 c 2
 202 98 l 2
 202 140 229 175 300 175 c 0
 371 175 398 140 398 98 c 2
 398 66 l 2xe0
 398 23 371 -12 300 -12 c 0
EndSplineSet
Validated: 1
EndChar

StartChar: questiondown
Encoding: 191 191 109
Width: 600
GlyphClass: 1
Flags: MW
HStem: -194 126<290 341 290 378> 341 187<284.5 355>
VStem: 73 156<-17.5 10 10 24 -17.5 67.5> 221 197<418 450 397 471.5> 252 140<211 283 130 283>
LayerCount: 2
Fore
SplineSet
309 -194 m 0xe8
 167 -194 73 -110 73 11 c 0
 73 124 156 195 252 211 c 1
 252 283 l 1
 392 283 l 1
 392 130 l 1
 292 126 229 100 229 24 c 2
 229 10 l 2
 229 -45 266 -68 314 -68 c 0
 368 -68 404 -33 417 17 c 1
 539 -34 l 1
 516 -114 447 -194 309 -194 c 0xe8
320 341 m 0
 249 341 221 376 221 418 c 2
 221 450 l 2
 221 493 249 528 320 528 c 0
 390 528 418 493 418 450 c 2
 418 418 l 2xd0
 418 376 390 341 320 341 c 0
EndSplineSet
Validated: 1
EndChar

StartChar: question
Encoding: 63 63 110
Width: 600
GlyphClass: 1
Flags: MW
HStem: -12 187<245 315.5> 584 126<259 310>
VStem: 182 197<66 98 44.5 119> 208 140<233 305 233 386> 371 156<492 506 506 533.5>
LayerCount: 2
Fore
SplineSet
348 233 m 1xd8
 208 233 l 1
 208 386 l 1
 308 390 371 416 371 492 c 2
 371 506 l 2
 371 561 334 584 286 584 c 0
 232 584 196 549 183 499 c 1
 61 550 l 1
 84 630 153 710 291 710 c 0
 433 710 527 626 527 505 c 0
 527 392 444 321 348 305 c 1
 348 233 l 1xd8
280 -12 m 0
 210 -12 182 23 182 66 c 2
 182 98 l 2
 182 140 210 175 280 175 c 0
 351 175 379 140 379 98 c 2
 379 66 l 2xe0
 379 23 351 -12 280 -12 c 0
EndSplineSet
Validated: 1
EndChar

StartChar: parenleft
Encoding: 40 40 111
Width: 600
GlyphClass: 1
Flags: MW
HStem: -138 898<382 530 382 530>
VStem: 174 124<213.5 260 260 362 176.5 408.5>
LayerCount: 2
Fore
SplineSet
174 311 m 0
 174 506 269 676 382 760 c 1
 530 760 l 1
 406 675 298 529 298 362 c 2
 298 260 l 2
 298 93 406 -53 530 -138 c 1
 382 -138 l 1
 269 -54 174 116 174 311 c 0
EndSplineSet
Validated: 1
EndChar

StartChar: parenright
Encoding: 41 41 112
Width: 600
GlyphClass: 1
Flags: MW
HStem: -138 898<70 218 70 218>
VStem: 302 124<260 362 362 408.5 213.5 445.5>
LayerCount: 2
Fore
SplineSet
426 311 m 0
 426 116 331 -54 218 -138 c 1
 70 -138 l 1
 194 -53 302 93 302 260 c 2
 302 362 l 2
 302 529 194 675 70 760 c 1
 218 760 l 1
 331 676 426 506 426 311 c 0
EndSplineSet
Validated: 1
EndChar

StartChar: bracketleft
Encoding: 91 91 113
Width: 600
GlyphClass: 1
Flags: MW
HStem: -138 99<302 507 302 507> 661 99<302 507 302 302>
VStem: 183 119<-39 661 -39 760 -39 760>
LayerCount: 2
Fore
SplineSet
507 -138 m 1
 183 -138 l 1
 183 760 l 1
 507 760 l 1
 507 661 l 1
 302 661 l 1
 302 -39 l 1
 507 -39 l 1
 507 -138 l 1
EndSplineSet
Validated: 1
EndChar

StartChar: bracketright
Encoding: 93 93 114
Width: 600
GlyphClass: 1
Flags: MW
HStem: -138 99<93 298 93 417 93 298> 661 99<93 298 93 417>
VStem: 298 119<-39 661 661 661>
LayerCount: 2
Fore
SplineSet
93 760 m 1
 417 760 l 1
 417 -138 l 1
 93 -138 l 1
 93 -39 l 1
 298 -39 l 1
 298 661 l 1
 93 661 l 1
 93 760 l 1
EndSplineSet
Validated: 1
EndChar

StartChar: braceleft
Encoding: 123 123 115
Width: 600
GlyphClass: 1
Flags: MW
HStem: -138 99<323 330 330 508> 261 100<92 182 92 182> 661 99<330 508 330 508 323 508>
VStem: 204 119<-30 9 -39 15 -39 48.5 607 613 613 652 652 661> 290 120<196.5 224 398 425.5>
LayerCount: 2
Fore
SplineSet
508 -138 m 1xf0
 330 -138 l 2
 239 -138 204 -93 204 -30 c 2
 204 15 l 2xf0
 204 82 236 114 260 142 c 0
 282 169 290 186 290 207 c 0
 290 241 253 261 182 261 c 2
 92 261 l 1
 92 361 l 1
 182 361 l 2
 253 361 290 381 290 415 c 0xe8
 290 436 282 453 260 480 c 0
 236 508 204 540 204 607 c 2
 204 652 l 2
 204 715 239 760 330 760 c 2
 508 760 l 1
 508 661 l 1
 323 661 l 1
 323 613 l 2xf0
 323 563 343 541 363 515 c 0
 386 487 410 456 410 414 c 0
 410 359 372 324 292 315 c 1
 292 307 l 1
 372 298 410 263 410 208 c 0xe8
 410 166 386 135 363 107 c 0
 343 81 323 59 323 9 c 2
 323 -39 l 1
 508 -39 l 1
 508 -138 l 1xf0
EndSplineSet
Validated: 1
EndChar

StartChar: braceright
Encoding: 125 125 116
Width: 600
GlyphClass: 1
Flags: MW
HStem: -138 99<92 270 92 277> 261 100<382.5 508 418 508> 661 99<92 270 270 277 92 270>
VStem: 190 120<196.5 224 196.5 235.5 398 425.5> 277 119<-39 -30 -30 9 9 15 -61.5 34 613 652>
LayerCount: 2
Fore
SplineSet
92 760 m 1xe8
 270 760 l 2
 361 760 396 715 396 652 c 2
 396 607 l 2xe8
 396 540 364 508 340 480 c 0
 318 453 310 436 310 415 c 0
 310 381 347 361 418 361 c 2
 508 361 l 1
 508 261 l 1
 418 261 l 2
 347 261 310 241 310 207 c 0xf0
 310 186 318 169 340 142 c 0
 364 114 396 82 396 15 c 2
 396 -30 l 2
 396 -93 361 -138 270 -138 c 2
 92 -138 l 1
 92 -39 l 1
 277 -39 l 1
 277 9 l 2xe8
 277 59 257 81 237 107 c 0
 214 135 190 166 190 208 c 0
 190 263 228 298 308 307 c 1
 308 315 l 1
 228 324 190 359 190 414 c 0xf0
 190 456 214 487 237 515 c 0
 257 541 277 563 277 613 c 2
 277 661 l 1
 92 661 l 1
 92 760 l 1xe8
EndSplineSet
Validated: 1
EndChar

StartChar: slash
Encoding: 47 47 117
Width: 600
GlyphClass: 1
Flags: MW
HStem: -138 898<73 527 73 527>
VStem: 73 454
LayerCount: 2
Fore
SplineSet
206 -138 m 1
 73 -138 l 1
 394 760 l 1
 527 760 l 1
 206 -138 l 1
EndSplineSet
Validated: 1
EndChar

StartChar: backslash
Encoding: 92 92 118
Width: 600
GlyphClass: 1
Flags: MW
HStem: -138 898<73 527 73 394>
VStem: 73 454
LayerCount: 2
Fore
SplineSet
527 -138 m 1
 394 -138 l 1
 73 760 l 1
 206 760 l 1
 527 -138 l 1
EndSplineSet
Validated: 1
EndChar

StartChar: fraction
Encoding: 8260 8260 119
Width: 600
GlyphClass: 1
Flags: MW
HStem: 0 21G<1 1 1 104> 678 20G<496 599 599 599>
VStem: 1 598
LayerCount: 2
Fore
SplineSet
323 398 m 1
 496 698 l 1
 599 698 l 1
 426 398 l 1
 323 398 l 1
1 0 m 1
 174 300 l 1
 277 300 l 1
 104 0 l 1
 1 0 l 1
EndSplineSet
Validated: 1
EndChar

StartChar: uni2215
Encoding: 8725 8725 120
Width: 600
GlyphClass: 1
Flags: MW
HStem: 0 21G<1 1 1 104> 678 20G<496 599 599 599>
VStem: 1 598
LayerCount: 2
Fore
SplineSet
323 398 m 1
 496 698 l 1
 599 698 l 1
 426 398 l 1
 323 398 l 1
1 0 m 1
 174 300 l 1
 277 300 l 1
 104 0 l 1
 1 0 l 1
EndSplineSet
Validated: 1
EndChar

StartChar: percent
Encoding: 37 37 121
Width: 600
GlyphClass: 1
Flags: MW
HStem: -12 87<416.5 455.5 416.5 485.5> 0 21G<2 2 2 115> 273 87<416.5 455.5> 338 87<145.5 184.5 145.5 214.5> 623 87<145.5 184.5> 678 20G<485 598 598 598>
VStem: 8 105<478.5 502 502 546 478.5 581.5> 217 105<502 546 546 569.5> 279 105<128.5 152 152 196 128.5 231.5> 488 105<152 196 196 219.5>
LayerCount: 2
Fore
SplineSet
165 338 m 0x9b40
 66 338 8 409 8 524 c 0
 8 639 66 710 165 710 c 0
 264 710 322 639 322 524 c 0
 322 409 264 338 165 338 c 0x9b40
165 425 m 0
 204 425 217 455 217 502 c 2
 217 546 l 2
 217 593 204 623 165 623 c 0
 126 623 113 593 113 546 c 2
 113 502 l 2
 113 455 126 425 165 425 c 0
334 398 m 1
 485 698 l 1
 598 698 l 1x5740
 447 398 l 1
 334 398 l 1
2 0 m 1
 153 300 l 1
 266 300 l 1
 115 0 l 1
 2 0 l 1
436 -12 m 0xaac0
 337 -12 279 59 279 174 c 0
 279 289 337 360 436 360 c 0
 535 360 593 289 593 174 c 0
 593 59 535 -12 436 -12 c 0xaac0
436 75 m 0
 475 75 488 105 488 152 c 2
 488 196 l 2
 488 243 475 273 436 273 c 0
 397 273 384 243 384 196 c 2
 384 152 l 2
 384 105 397 75 436 75 c 0
EndSplineSet
Validated: 1
EndChar

StartChar: perthousand
Encoding: 8240 8240 122
Width: 600
GlyphClass: 1
Flags: MW
HStem: -12 79<238 270 238 272.5 436 468> 219 79<238 270 436 468> 400 79<132 164 132 196> 631 79<132 164>
VStem: 0 98<523 539 539 571 523 602> 106 98<111 127 127 159 111 190> 198 98<539 571 571 587> 304 98<127 159 111 175> 502 98<127 159 159 175>
LayerCount: 2
Fore
SplineSet
148 400 m 0xfb80
 52 400 0 462 0 555 c 0
 0 649 52 710 148 710 c 0
 244 710 296 649 296 555 c 0
 296 462 244 400 148 400 c 0xfb80
148 479 m 0
 180 479 198 507 198 539 c 2
 198 571 l 2
 198 603 180 631 148 631 c 0
 116 631 98 603 98 571 c 2
 98 539 l 2
 98 507 116 479 148 479 c 0
79 276 m 1
 59 343 l 1
 521 485 l 1
 541 418 l 1
 79 276 l 1
252 -12 m 0
 161 -12 106 50 106 143 c 0xfd80
 106 237 162 298 252 298 c 0
 294 298 328 281 349 253 c 1
 357 253 l 1
 378 280 413 298 454 298 c 0
 545 298 600 236 600 143 c 0
 600 49 544 -12 454 -12 c 0
 412 -12 378 5 357 33 c 1
 349 33 l 1
 328 6 293 -12 252 -12 c 0
254 67 m 0
 286 67 304 95 304 127 c 2
 304 159 l 2
 304 191 286 219 254 219 c 0
 222 219 204 191 204 159 c 2
 204 127 l 2
 204 95 222 67 254 67 c 0
452 67 m 0
 484 67 502 95 502 127 c 2
 502 159 l 2
 502 191 484 219 452 219 c 0
 420 219 402 191 402 159 c 2
 402 127 l 2
 402 95 420 67 452 67 c 0
EndSplineSet
Validated: 1
EndChar

StartChar: bar
Encoding: 124 124 123
Width: 600
GlyphClass: 1
Flags: MW
HStem: -138 898<237 363 237 363>
VStem: 237 126<-138 760>
LayerCount: 2
Fore
SplineSet
363 -138 m 1
 237 -138 l 1
 237 760 l 1
 363 760 l 1
 363 -138 l 1
EndSplineSet
Validated: 1
EndChar

StartChar: brokenbar
Encoding: 166 166 124
Width: 600
GlyphClass: 1
Flags: MW
HStem: -138 898<237 363 237 363>
VStem: 237 126<-138 221 401 760>
LayerCount: 2
Fore
SplineSet
363 401 m 1
 237 401 l 1
 237 760 l 1
 363 760 l 1
 363 401 l 1
363 -138 m 1
 237 -138 l 1
 237 221 l 1
 363 221 l 1
 363 -138 l 1
EndSplineSet
Validated: 1
EndChar

StartChar: section
Encoding: 167 167 125
Width: 600
GlyphClass: 1
Flags: MW
HStem: -176 105<265 319 265 354.5> 605 105<288 342>
VStem: 65 123<265 266.5> 96 125<519 557.5 519 585.5> 386 125<-23.5 15> 419 123<267.5 269>
LayerCount: 2
Fore
SplineSet
511 3 m 0xe8
 511 -106 420 -176 289 -176 c 0
 220 -176 146 -157 88 -104 c 1
 161 -16 l 1
 196 -51 240 -71 290 -71 c 0
 348 -71 386 -44 386 -3 c 0
 386 33 358 51 297 67 c 2
 219 88 l 2
 104 119 65 179 65 238 c 0xe8
 65 295 100 344 175 375 c 1
 175 391 l 1
 120 426 96 475 96 531 c 0
 96 640 187 710 318 710 c 0
 387 710 461 691 519 638 c 1
 446 550 l 1
 411 585 367 605 317 605 c 0
 259 605 221 578 221 537 c 0
 221 501 249 483 310 467 c 2
 388 446 l 2
 503 415 542 355 542 296 c 0xd4
 542 239 507 190 432 159 c 1
 432 143 l 1
 487 108 511 59 511 3 c 0xe8
419 252 m 0xe4
 419 286 402 316 336 334 c 2
 259 355 l 2
 247 358 236 362 226 366 c 1
 202 340 188 313 188 282 c 0
 188 248 205 218 271 200 c 2
 348 179 l 2
 360 176 371 172 381 168 c 1
 405 194 419 221 419 252 c 0xe4
EndSplineSet
Validated: 1
EndChar

StartChar: paragraph
Encoding: 182 182 126
Width: 600
GlyphClass: 1
Flags: MW
HStem: 582 116<364 433 364 364>
VStem: 245 119<-149 246 246 246 -149 698> 433 119<-149 582 582 582>
LayerCount: 2
Fore
SplineSet
245 -149 m 1
 245 246 l 1
 121 246 20 341 20 472 c 0
 20 603 121 698 245 698 c 2
 552 698 l 1
 552 -149 l 1
 433 -149 l 1
 433 582 l 1
 364 582 l 1
 364 -149 l 1
 245 -149 l 1
EndSplineSet
Validated: 1
EndChar

StartChar: copyright
Encoding: 169 169 127
Width: 600
GlyphClass: 1
Flags: MW
HStem: 18 55<231.5 368.5 231.5 383.5> 153 93<291.5 330.5 291.5 354> 452 93<291 328> 625 55<231.5 368.5>
VStem: 0 63<250.5 319 319 379 250.5 451> 125 122<293.5 313 313 386 293.5 408> 537 63<319 379 379 447.5>
LayerCount: 2
Fore
SplineSet
300 18 m 0
 133 18 0 145 0 349 c 0
 0 553 133 680 300 680 c 0
 467 680 600 553 600 349 c 0
 600 145 467 18 300 18 c 0
300 73 m 0
 437 73 537 182 537 319 c 2
 537 379 l 2
 537 516 437 625 300 625 c 0
 163 625 63 516 63 379 c 2
 63 319 l 2
 63 182 163 73 300 73 c 0
309 153 m 0
 198 153 125 231 125 348 c 0
 125 468 201 545 309 545 c 0
 391 545 439 503 463 443 c 1
 378 400 l 1
 365 431 345 452 311 452 c 0
 271 452 247 424 247 386 c 2
 247 313 l 2
 247 274 271 246 312 246 c 0
 349 246 370 269 384 298 c 1
 469 255 l 1
 446 201 399 153 309 153 c 0
EndSplineSet
Validated: 1
EndChar

StartChar: registered
Encoding: 174 174 128
Width: 600
GlyphClass: 1
Flags: MW
HStem: 346 41<261.5 338.5 261.5 351> 490 41<278 302 278 300> 578 43<278 302 278 278> 669 41<261.5 338.5>
VStem: 117 48<478.5 518 518 538 478.5 580> 222 56<436 490 531 578> 328 58<551 558 558 564> 435 48<518 538 538 577.5>
LayerCount: 2
Fore
SplineSet
300 346 m 0
 198 346 117 424 117 528 c 0
 117 632 198 710 300 710 c 0
 402 710 483 632 483 528 c 0
 483 424 402 346 300 346 c 0
300 387 m 0
 377 387 435 439 435 518 c 2
 435 538 l 2
 435 617 377 669 300 669 c 0
 223 669 165 617 165 538 c 2
 165 518 l 2
 165 439 223 387 300 387 c 0
278 490 m 1
 278 436 l 1
 222 436 l 1
 222 621 l 1
 314 621 l 2
 364 621 386 594 386 558 c 0
 386 530 373 511 352 501 c 1
 391 436 l 1
 330 436 l 1
 300 490 l 1
 278 490 l 1
278 531 m 1
 302 531 l 2
 318 531 328 538 328 551 c 2
 328 558 l 2
 328 570 318 578 302 578 c 2
 278 578 l 1
 278 531 l 1
EndSplineSet
Validated: 1
EndChar

StartChar: trademark
Encoding: 8482 8482 129
Width: 600
GlyphClass: 1
Flags: MW
HStem: 637 61<13 82 13 237 168 168 168 237>
VStem: 82 86<409 637> 258 68<599 599 599 698> 484 68<599 599>
LayerCount: 2
Fore
SplineSet
168 409 m 1
 82 409 l 1
 82 637 l 1
 13 637 l 1
 13 698 l 1
 237 698 l 1
 237 637 l 1
 168 637 l 1
 168 409 l 1
330 409 m 1
 258 409 l 1
 258 698 l 1
 349 698 l 1
 405 591 l 1
 411 591 l 1
 467 698 l 1
 552 698 l 1
 552 409 l 1
 480 409 l 1
 480 506 l 1
 488 599 l 1
 484 599 l 1
 405 453 l 1
 326 599 l 1
 322 599 l 1
 330 506 l 1
 330 409 l 1
EndSplineSet
Validated: 1
EndChar

StartChar: ordfeminine
Encoding: 170 170 130
Width: 600
GlyphClass: 1
Flags: MW
HStem: 332 68<263.5 268.5> 340 75<408 489 449 489 449 489> 495 56<287 290 290 345> 634 76<258 303.5>
VStem: 125 101<425.5 438 438 452 425.5 477.5> 345 104<452 495 495 495 551 569 569 573 415 590.5>
LayerCount: 2
Fore
SplineSet
489 340 m 1x7c
 429 340 l 2x7c
 387 340 359 363 355 404 c 1
 351 404 l 1
 338 357 296 332 241 332 c 0xbc
 171 332 125 372 125 440 c 0
 125 515 182 551 287 551 c 2
 345 551 l 1
 345 569 l 2
 345 612 327 634 280 634 c 0
 236 634 211 615 191 589 c 1
 135 639 l 1
 159 680 211 710 292 710 c 0
 390 710 449 664 449 573 c 2
 449 415 l 1
 489 415 l 1
 489 340 l 1x7c
345 495 m 1
 290 495 l 2
 249 495 226 480 226 452 c 2
 226 438 l 2
 226 413 247 400 280 400 c 0xbc
 317 400 345 418 345 452 c 2
 345 495 l 1
EndSplineSet
Validated: 1
EndChar

StartChar: ordmasculine
Encoding: 186 186 131
Width: 600
GlyphClass: 1
Flags: MW
HStem: 332 77<277 323 277 356.5> 633 77<277 323>
VStem: 119 107<465.5 492 492 550 465.5 579.5> 374 107<492 550 550 576.5>
LayerCount: 2
Fore
SplineSet
300 332 m 0
 187 332 119 404 119 521 c 0
 119 638 187 710 300 710 c 0
 413 710 481 638 481 521 c 0
 481 404 413 332 300 332 c 0
300 409 m 0
 346 409 374 439 374 492 c 2
 374 550 l 2
 374 603 346 633 300 633 c 0
 254 633 226 603 226 550 c 2
 226 492 l 2
 226 439 254 409 300 409 c 0
EndSplineSet
Validated: 1
EndChar

StartChar: degree
Encoding: 176 176 132
Width: 600
GlyphClass: 1
Flags: MW
HStem: 334 95<274 326 274 353> 615 95<274 326>
VStem: 112 102<496 548 496 575.5> 386 102<496 548>
LayerCount: 2
Fore
SplineSet
300 334 m 0
 194 334 112 415 112 522 c 0
 112 629 194 710 300 710 c 0
 406 710 488 629 488 522 c 0
 488 415 406 334 300 334 c 0
300 429 m 0
 352 429 386 470 386 522 c 0
 386 574 352 615 300 615 c 0
 248 615 214 574 214 522 c 0
 214 470 248 429 300 429 c 0
EndSplineSet
Validated: 1
EndChar

StartChar: uni2032
Encoding: 8242 8242 133
Width: 600
GlyphClass: 1
Flags: MW
HStem: 346 352<264 336 202 398>
VStem: 202 196
LayerCount: 2
Fore
SplineSet
336 346 m 1
 202 346 l 1
 264 698 l 1
 398 698 l 1
 336 346 l 1
EndSplineSet
Validated: 1
EndChar

StartChar: uni2033
Encoding: 8243 8243 134
Width: 600
GlyphClass: 1
Flags: MW
HStem: 346 352<152 224 90 286 152 315 377 449>
VStem: 90 196 315 196
LayerCount: 2
Fore
SplineSet
224 346 m 1
 90 346 l 1
 152 698 l 1
 286 698 l 1
 224 346 l 1
449 346 m 1xa0
 315 346 l 1
 377 698 l 1
 511 698 l 1
 449 346 l 1xa0
EndSplineSet
Validated: 1
EndChar

StartChar: asterisk
Encoding: 42 42 135
Width: 600
GlyphClass: 1
Flags: MW
HStem: 40 508<191 364 236 409>
VStem: 30 540<317 317>
LayerCount: 2
Fore
SplineSet
300 189 m 1
 191 40 l 1
 87 109 l 1
 201 259 l 1
 30 317 l 1
 69 432 l 1
 236 371 l 1
 236 548 l 1
 364 548 l 1
 364 371 l 1
 531 432 l 1
 570 317 l 1
 399 259 l 1
 513 109 l 1
 409 40 l 1
 300 189 l 1
EndSplineSet
Validated: 1
EndChar

StartChar: dagger
Encoding: 8224 8224 136
Width: 600
GlyphClass: 1
Flags: MW
HStem: -200 21G<237 363 237 237> 408 108<61 237 61 237 363 539> 720 20G<237 363 363 363>
VStem: 237 126<-200 408 516 740>
LayerCount: 2
Fore
SplineSet
363 -200 m 1
 237 -200 l 1
 237 408 l 1
 61 408 l 1
 61 516 l 1
 237 516 l 1
 237 740 l 1
 363 740 l 1
 363 516 l 1
 539 516 l 1
 539 408 l 1
 363 408 l 1
 363 -200 l 1
EndSplineSet
Validated: 1
EndChar

StartChar: daggerdbl
Encoding: 8225 8225 137
Width: 600
GlyphClass: 1
Flags: MW
HStem: -200 21G<237 363 237 237> 24 108<61 237 61 237 363 539> 408 108<61 237 61 237 363 539> 720 20G<237 363 363 363>
VStem: 237 126<-200 24 132 408 516 740>
LayerCount: 2
Fore
SplineSet
363 -200 m 1
 237 -200 l 1
 237 24 l 1
 61 24 l 1
 61 132 l 1
 237 132 l 1
 237 408 l 1
 61 408 l 1
 61 516 l 1
 237 516 l 1
 237 740 l 1
 363 740 l 1
 363 516 l 1
 539 516 l 1
 539 408 l 1
 363 408 l 1
 363 132 l 1
 539 132 l 1
 539 24 l 1
 363 24 l 1
 363 -200 l 1
EndSplineSet
Validated: 1
EndChar

StartChar: numbersign
Encoding: 35 35 138
Width: 600
GlyphClass: 1
Flags: MW
HStem: 0 21G<83 83 83 200 277 394 277 277> 194 110<9 117 9 137 448 553> 394 110<47 152 47 172 483 591> 678 20G<206 323 323 323 400 517 517 517>
VStem: 9 582<194 504 304 504>
LayerCount: 2
Fore
SplineSet
83 0 m 1
 117 194 l 1
 9 194 l 1
 9 304 l 1
 137 304 l 1
 152 394 l 1
 47 394 l 1
 47 504 l 1
 172 504 l 1
 206 698 l 1
 323 698 l 1
 200 0 l 1
 83 0 l 1
277 0 m 1
 400 698 l 1
 517 698 l 1
 483 504 l 1
 591 504 l 1
 591 394 l 1
 463 394 l 1
 448 304 l 1
 553 304 l 1
 553 194 l 1
 428 194 l 1
 394 0 l 1
 277 0 l 1
EndSplineSet
Validated: 1
Substitution2: "'salt' Stylistic Alternatives lookup 23 subtable" numbersign.alt01
Substitution2: "'ss06' Style Set 6 lookup 21 subtable" numbersign.alt01
Substitution2: "'aalt' Access All Alternates lookup 0 subtable" numbersign.alt01
EndChar

StartChar: numbersign.alt01
Encoding: 65554 -1 139
Width: 600
GlyphClass: 1
Flags: MW
HStem: 0 21G<83 83 83 192 285 285 285 394> 194 102<9 117 9 135 9 226 244 319 446 553> 402 102<47 154 47 172 47 263 281 356 483 591> 678 20G<206 315 315 315 408 517 517 517>
VStem: 9 582<194 504 296 504>
LayerCount: 2
Fore
SplineSet
83 0 m 1
 117 194 l 1
 9 194 l 1
 9 296 l 1
 135 296 l 1
 154 402 l 1
 47 402 l 1
 47 504 l 1
 172 504 l 1
 206 698 l 1
 315 698 l 1
 281 504 l 1
 374 504 l 1
 408 698 l 1
 517 698 l 1
 483 504 l 1
 591 504 l 1
 591 402 l 1
 465 402 l 1
 446 296 l 1
 553 296 l 1
 553 194 l 1
 428 194 l 1
 394 0 l 1
 285 0 l 1
 319 194 l 1
 226 194 l 1
 192 0 l 1
 83 0 l 1
244 296 m 1
 337 296 l 1
 356 402 l 1
 263 402 l 1
 244 296 l 1
EndSplineSet
Validated: 1
EndChar

StartChar: asciicircum
Encoding: 94 94 140
Width: 600
GlyphClass: 1
Flags: MW
HStem: 239 459<138 379 222 456>
VStem: 27 546<293 293>
LayerCount: 2
Fore
SplineSet
573 293 m 1
 456 239 l 1
 303 562 l 1
 291 562 l 1
 138 239 l 1
 27 293 l 1
 222 698 l 1
 379 698 l 1
 573 293 l 1
EndSplineSet
Validated: 1
EndChar

StartChar: asciitilde
Encoding: 126 126 141
Width: 600
GlyphClass: 1
Flags: MW
HStem: 173 123<386.5 415.5 386.5 447> 313 123<184.5 213.5>
VStem: 36 528<205 404>
LayerCount: 2
Fore
SplineSet
392 173 m 0
 338 173 300 199 264 249 c 0
 237 287 226 313 201 313 c 0
 168 313 154 265 142 185 c 1
 36 205 l 1
 54 341 98 436 208 436 c 0
 262 436 300 410 336 360 c 0
 363 322 374 296 399 296 c 0
 432 296 446 344 458 424 c 1
 564 404 l 1
 546 268 502 173 392 173 c 0
EndSplineSet
Validated: 1
EndChar

StartChar: plus
Encoding: 43 43 142
Width: 600
GlyphClass: 1
Flags: MW
HStem: 246 118<62 236 62 236 364 538>
VStem: 236 128<62 246 364 548>
LayerCount: 2
Fore
SplineSet
364 62 m 1
 236 62 l 1
 236 246 l 1
 62 246 l 1
 62 364 l 1
 236 364 l 1
 236 548 l 1
 364 548 l 1
 364 364 l 1
 538 364 l 1
 538 246 l 1
 364 246 l 1
 364 62 l 1
EndSplineSet
Validated: 1
EndChar

StartChar: minus
Encoding: 8722 8722 143
Width: 600
GlyphClass: 1
Flags: MW
HStem: 246 118<62 538 62 538>
VStem: 62 476<246 364 246 364>
LayerCount: 2
Fore
SplineSet
538 246 m 1
 62 246 l 1
 62 364 l 1
 538 364 l 1
 538 246 l 1
EndSplineSet
Validated: 1
EndChar

StartChar: plusminus
Encoding: 177 177 144
Width: 600
GlyphClass: 1
Flags: MW
HStem: 0 119<62 538 62 538> 350 118<62 236 62 236 364 538>
VStem: 236 128<184 350 468 634>
LayerCount: 2
Fore
SplineSet
364 184 m 1
 236 184 l 1
 236 350 l 1
 62 350 l 1
 62 468 l 1
 236 468 l 1
 236 634 l 1
 364 634 l 1
 364 468 l 1
 538 468 l 1
 538 350 l 1
 364 350 l 1
 364 184 l 1
538 0 m 1
 62 0 l 1
 62 119 l 1
 538 119 l 1
 538 0 l 1
EndSplineSet
Validated: 1
EndChar

StartChar: multiply
Encoding: 215 215 145
Width: 600
GlyphClass: 1
Flags: MW
HStem: 75 460<155 155 155 445>
VStem: 70 460<160 160 160 450>
LayerCount: 2
Fore
SplineSet
445 75 m 1
 300 220 l 1
 155 75 l 1
 70 160 l 1
 215 305 l 1
 70 450 l 1
 155 535 l 1
 300 390 l 1
 445 535 l 1
 530 450 l 1
 385 305 l 1
 530 160 l 1
 445 75 l 1
EndSplineSet
Validated: 1
EndChar

StartChar: divide
Encoding: 247 247 146
Width: 600
GlyphClass: 1
Flags: MW
HStem: 29 162<268.5 331.5> 246 118<62 538 62 538> 419 162<268.5 331.5>
VStem: 212 176<98 122 78.5 141 488 512>
LayerCount: 2
Fore
SplineSet
538 246 m 1
 62 246 l 1
 62 364 l 1
 538 364 l 1
 538 246 l 1
300 29 m 0
 237 29 212 59 212 98 c 2
 212 122 l 2
 212 160 237 191 300 191 c 0
 363 191 388 160 388 122 c 2
 388 98 l 2
 388 59 363 29 300 29 c 0
300 419 m 0
 237 419 212 450 212 488 c 2
 212 512 l 2
 212 551 237 581 300 581 c 0
 363 581 388 551 388 512 c 2
 388 488 l 2
 388 450 363 419 300 419 c 0
EndSplineSet
Validated: 1
EndChar

StartChar: equal
Encoding: 61 61 147
Width: 600
GlyphClass: 1
Flags: MW
HStem: 131 118<62 538 62 538> 361 118<62 538 62 538>
VStem: 62 476<131 249 131 249 361 479 131 479>
LayerCount: 2
Fore
SplineSet
538 361 m 1
 62 361 l 1
 62 479 l 1
 538 479 l 1
 538 361 l 1
538 131 m 1
 62 131 l 1
 62 249 l 1
 538 249 l 1
 538 131 l 1
EndSplineSet
Validated: 1
EndChar

StartChar: approxequal
Encoding: 8776 8776 148
Width: 600
GlyphClass: 1
Flags: MW
HStem: 94 123<388 409 380.5 448.5> 161 123<191 212 151.5 219.5> 325 123<388 409 380.5 448.5> 392 123<191 212 151.5 219.5>
VStem: 36 528<132 246 246 363>
LayerCount: 2
Fore
SplineSet
409 325 m 0xa8
 367 325 330 342 290 362 c 0
 256 379 232 392 207 392 c 0x98
 175 392 158 370 142 325 c 1xa8
 36 363 l 1
 57 453 112 515 191 515 c 0x98
 233 515 270 498 310 478 c 0
 344 461 368 448 393 448 c 0xa8
 425 448 442 470 458 515 c 1x98
 564 477 l 1
 543 387 488 325 409 325 c 0xa8
409 94 m 0
 367 94 330 111 290 131 c 0
 256 148 232 161 207 161 c 0x68
 175 161 158 139 142 94 c 1xa8
 36 132 l 1
 57 222 112 284 191 284 c 0x68
 233 284 270 267 310 247 c 0
 344 230 368 217 393 217 c 0xa8
 425 217 442 239 458 284 c 1x68
 564 246 l 1
 543 156 488 94 409 94 c 0
EndSplineSet
Validated: 1
EndChar

StartChar: notequal
Encoding: 8800 8800 149
Width: 600
GlyphClass: 1
Flags: MW
HStem: 131 118<62 143 62 210 62 269 327 538> 361 118<62 273 62 331 62 390 457 538>
VStem: 62 476<131 249 131 249 361 479 131 479>
LayerCount: 2
Fore
SplineSet
217 36 m 1
 91 36 l 1
 143 131 l 1
 62 131 l 1
 62 249 l 1
 210 249 l 1
 273 361 l 1
 62 361 l 1
 62 479 l 1
 331 479 l 1
 383 574 l 1
 509 574 l 1
 457 479 l 1
 538 479 l 1
 538 361 l 1
 390 361 l 1
 327 249 l 1
 538 249 l 1
 538 131 l 1
 269 131 l 1
 217 36 l 1
EndSplineSet
Validated: 1
EndChar

StartChar: less
Encoding: 60 60 150
Width: 600
GlyphClass: 1
Flags: MW
HStem: 6 598<515 515>
VStem: 85 430<6 374 6 374>
LayerCount: 2
Fore
SplineSet
515 6 m 1
 85 236 l 1
 85 374 l 1
 515 604 l 1
 515 466 l 1
 218 309 l 1
 218 301 l 1
 515 144 l 1
 515 6 l 1
EndSplineSet
Validated: 1
EndChar

StartChar: greater
Encoding: 62 62 151
Width: 600
GlyphClass: 1
Flags: MW
HStem: 6 598<85 85>
VStem: 85 430<6 374 144 374 236 604 236 604>
LayerCount: 2
Fore
SplineSet
85 6 m 1
 85 144 l 1
 382 301 l 1
 382 309 l 1
 85 466 l 1
 85 604 l 1
 515 374 l 1
 515 236 l 1
 85 6 l 1
EndSplineSet
Validated: 1
EndChar

StartChar: lessequal
Encoding: 8804 8804 152
Width: 600
GlyphClass: 1
Flags: MW
HStem: 0 116<85 515 85 515>
VStem: 85 430<0 116 0 116 0 438>
LayerCount: 2
Fore
SplineSet
515 0 m 1
 85 0 l 1
 85 116 l 1
 515 116 l 1
 515 0 l 1
515 595 m 1
 515 471 l 1
 226 373 l 1
 226 366 l 1
 515 270 l 1
 515 144 l 1
 85 301 l 1
 85 438 l 1
 515 595 l 1
EndSplineSet
Validated: 1
EndChar

StartChar: greaterequal
Encoding: 8805 8805 153
Width: 600
GlyphClass: 1
Flags: MW
HStem: 0 116<85 515 85 515>
VStem: 85 430<0 116 0 116 0 272 0 272 0 595>
LayerCount: 2
Fore
SplineSet
85 144 m 1
 85 272 l 1
 373 368 l 1
 373 375 l 1
 85 473 l 1
 85 595 l 1
 515 438 l 1
 515 301 l 1
 85 144 l 1
85 0 m 1
 85 116 l 1
 515 116 l 1
 515 0 l 1
 85 0 l 1
EndSplineSet
Validated: 1
EndChar

StartChar: uni2219
Encoding: 8729 8729 154
Width: 600
GlyphClass: 1
Flags: MW
HStem: 204 201<262.5 337.5>
VStem: 195 210<287 322 264.5 344.5>
LayerCount: 2
Fore
SplineSet
300 204 m 0
 225 204 195 242 195 287 c 2
 195 322 l 2
 195 367 225 405 300 405 c 0
 375 405 405 367 405 322 c 2
 405 287 l 2
 405 242 375 204 300 204 c 0
EndSplineSet
Validated: 1
EndChar

StartChar: periodcentered
Encoding: 183 183 155
Width: 600
GlyphClass: 1
Flags: MW
HStem: 204 201<262.5 337.5>
VStem: 195 210<287 322 264.5 344.5>
LayerCount: 2
Fore
SplineSet
300 204 m 0
 225 204 195 242 195 287 c 2
 195 322 l 2
 195 367 225 405 300 405 c 0
 375 405 405 367 405 322 c 2
 405 287 l 2
 405 242 375 204 300 204 c 0
EndSplineSet
Validated: 1
EndChar

StartChar: bullet
Encoding: 8226 8226 156
Width: 600
GlyphClass: 1
Flags: MW
HStem: 156 296<243.5 356.5>
VStem: 146 308<287 321 249.5 358.5>
LayerCount: 2
Fore
SplineSet
300 156 m 0
 187 156 146 212 146 287 c 2
 146 321 l 2
 146 396 187 452 300 452 c 0
 413 452 454 396 454 321 c 2
 454 287 l 2
 454 212 413 156 300 156 c 0
EndSplineSet
Validated: 1
EndChar

StartChar: uni2236
Encoding: 8758 8758 157
Width: 600
GlyphClass: 1
Flags: MW
HStem: -12 201<262.5 337.5> 327 201<262.5 337.5>
VStem: 195 210<71 106 48.5 128.5 410 445>
LayerCount: 2
Fore
SplineSet
300 -12 m 0
 225 -12 195 26 195 71 c 2
 195 106 l 2
 195 151 225 189 300 189 c 0
 375 189 405 151 405 106 c 2
 405 71 l 2
 405 26 375 -12 300 -12 c 0
300 327 m 0x60
 225 327 195 365 195 410 c 2
 195 445 l 2
 195 490 225 528 300 528 c 0
 375 528 405 490 405 445 c 2
 405 410 l 2
 405 365 375 327 300 327 c 0x60
EndSplineSet
Validated: 1
EndChar

StartChar: lozenge
Encoding: 9674 9674 158
Width: 600
GlyphClass: 1
Flags: MW
HStem: 0 21G<246 354 246 246> 678 20G<246 354 354 354>
VStem: 28 544<349 349>
LayerCount: 2
Fore
SplineSet
354 0 m 1
 246 0 l 1
 28 349 l 1
 246 698 l 1
 354 698 l 1
 572 349 l 1
 354 0 l 1
297 123 m 1
 303 123 l 1
 441 349 l 1
 303 575 l 1
 297 575 l 1
 159 349 l 1
 297 123 l 1
EndSplineSet
Validated: 1
EndChar

StartChar: logicalnot
Encoding: 172 172 159
Width: 600
GlyphClass: 1
Flags: MW
HStem: 246 118<62 401 62 522>
VStem: 401 121<54 246 246 246>
LayerCount: 2
Fore
SplineSet
522 54 m 1
 401 54 l 1
 401 246 l 1
 62 246 l 1
 62 364 l 1
 522 364 l 1
 522 54 l 1
EndSplineSet
Validated: 1
EndChar

StartChar: radical
Encoding: 8730 8730 160
Width: 600
GlyphClass: 1
Flags: MW
HStem: 0 105<299 307 299 390 213 307> 392 124<15 95 15 190> 678 20G<472 596 596 596>
VStem: 15 581<392 698 516 698>
LayerCount: 2
Fore
SplineSet
390 0 m 1
 213 0 l 1
 95 392 l 1
 15 392 l 1
 15 516 l 1
 190 516 l 1
 247 320 l 1
 299 105 l 1
 307 105 l 1
 363 320 l 1
 472 698 l 1
 596 698 l 1
 390 0 l 1
EndSplineSet
Validated: 1
EndChar

StartChar: integral
Encoding: 8747 8747 161
Width: 600
GlyphClass: 1
Flags: MW
HStem: -200 115<28 213 28 203> 625 115<371 546 371 546 361 546>
VStem: 213 148<-85 -51 -51 591 591 625>
LayerCount: 2
Fore
SplineSet
28 -200 m 1
 28 -85 l 1
 213 -85 l 1
 213 591 l 2
 213 678 263 740 371 740 c 2
 546 740 l 1
 546 625 l 1
 361 625 l 1
 361 -51 l 2
 361 -138 310 -200 203 -200 c 2
 28 -200 l 1
EndSplineSet
Validated: 1
EndChar

StartChar: infinity
Encoding: 8734 8734 162
Width: 600
GlyphClass: 1
Flags: MW
HStem: 126 102<160.5 189 404.5 439.5> 382 102<160.5 195.5 411 439.5>
VStem: 11 116<275.5 298 298 312 275.5 361.5> 473 116<298 312 312 334.5>
LayerCount: 2
Fore
SplineSet
161 126 m 0
 66 126 11 192 11 305 c 0
 11 418 69 484 169 484 c 0
 237 484 286 447 316 355 c 1
 320 355 l 1
 331 445 383 484 439 484 c 0
 534 484 589 418 589 305 c 0
 589 192 531 126 431 126 c 0
 363 126 314 163 284 255 c 1
 280 255 l 1
 269 165 217 126 161 126 c 0
174 228 m 0
 217 228 243 259 256 293 c 1
 239 339 217 382 174 382 c 0
 147 382 127 357 127 312 c 2
 127 298 l 2
 127 253 147 228 174 228 c 0
426 228 m 0
 453 228 473 253 473 298 c 2
 473 312 l 2
 473 357 453 382 426 382 c 0
 383 382 357 351 344 317 c 1
 361 271 383 228 426 228 c 0
EndSplineSet
Validated: 1
EndChar

StartChar: uni212E
Encoding: 8494 8494 163
Width: 600
GlyphClass: 1
Flags: MW
HStem: -12 56<277 349 277 363> 349 52<185 415 185 415 185 574> 656 54<277 323>
VStem: 26 159<245.5 349 401 452.5> 415 159<401 452.5 349 618>
LayerCount: 2
Fore
SplineSet
185 349 m 1
 185 85 l 1
 209 62 254 44 300 44 c 0
 398 44 456 101 497 180 c 1
 549 151 l 1
 501 62 426 -12 300 -12 c 0
 134 -12 26 142 26 349 c 0
 26 556 134 710 300 710 c 0
 466 710 574 556 574 349 c 1
 185 349 l 1
185 401 m 1
 415 401 l 1
 415 618 l 1
 390 641 346 656 300 656 c 0
 254 656 210 641 185 618 c 1
 185 401 l 1
EndSplineSet
Validated: 1
EndChar

StartChar: uni2113
Encoding: 8467 8467 164
Width: 600
GlyphClass: 1
Flags: MW
HStem: -12 128<313.5 352 313.5 390> 621 131<308 332>
VStem: 132 140<378 546 546 551> 362 136<550 560 560 581.5>
LayerCount: 2
Fore
SplineSet
334 -12 m 0
 225 -12 139 53 139 159 c 2
 139 162 l 1
 131 157 105 140 96 135 c 1
 32 238 l 1
 69 258 110 287 132 302 c 1
 132 546 l 2
 132 695 212 752 316 752 c 0
 433 752 498 680 498 562 c 0
 498 437 424 345 272 228 c 1
 272 187 l 2
 272 137 295 116 332 116 c 0
 372 116 396 140 435 219 c 1
 555 158 l 1
 516 57 446 -12 334 -12 c 0
320 621 m 0
 296 621 272 603 272 551 c 2
 272 378 l 1
 324 425 362 478 362 550 c 2
 362 560 l 2
 362 603 344 621 320 621 c 0
EndSplineSet
Validated: 1
EndChar

StartChar: uni2116
Encoding: 8470 8470 165
Width: 600
GlyphClass: 1
Flags: MW
HStem: 0 100<160 247 235 247 235 335> 226 77<369 589 369 589> 326 76<463 495 463 523> 598 100<105 117 105 105> 630 76<463 495>
VStem: 17 88<0 598> 247 88<100 698 0 698> 361 82<452 473 473 559> 515 82<473 559 559 580 452 581.5>
LayerCount: 2
Fore
SplineSet
479 326 m 0xef80
 391 326 361 388 361 516 c 0
 361 644 391 706 479 706 c 0
 567 706 597 644 597 516 c 0
 597 388 567 326 479 326 c 0xef80
105 0 m 1
 17 0 l 1
 17 698 l 1
 192 698 l 1
 218 363 l 1
 235 100 l 1
 247 100 l 1
 247 698 l 1
 335 698 l 1
 335 0 l 1
 160 0 l 1
 134 335 l 1
 117 598 l 1
 105 598 l 1xf780
 105 0 l 1
479 402 m 0
 511 402 515 428 515 473 c 2
 515 559 l 2
 515 604 511 630 479 630 c 0xef80
 447 630 443 604 443 559 c 2
 443 473 l 2
 443 428 447 402 479 402 c 0
589 226 m 1
 369 226 l 1
 369 303 l 1
 589 303 l 1
 589 226 l 1
EndSplineSet
Validated: 1
EndChar

StartChar: partialdiff
Encoding: 8706 8706 166
Width: 600
GlyphClass: 1
Flags: MW
HStem: -12 110<267 333 267 378.5> 392 112<267 278 180 333> 678 20G<94 312 312 312>
VStem: 41 153<179 217 217 273 179 329.5> 406 153<217 273 273 311 175.5 412>
LayerCount: 2
Fore
SplineSet
559 274 m 0
 559 77 455 -12 302 -12 c 0
 139 -12 41 89 41 255 c 0
 41 404 119 504 241 504 c 0
 315 504 365 467 397 408 c 1
 406 412 l 1
 368 518 260 608 94 698 c 1
 312 698 l 1
 436 623 559 489 559 274 c 0
300 98 m 0
 366 98 406 141 406 217 c 2
 406 273 l 2
 406 349 366 392 300 392 c 0
 234 392 194 349 194 273 c 2
 194 217 l 2
 194 141 234 98 300 98 c 0
EndSplineSet
Validated: 1
EndChar

StartChar: currency
Encoding: 164 164 167
Width: 600
GlyphClass: 1
Flags: MW
HStem: 107 107<283 317> 484 107<283 317 283 328.5>
VStem: 61 148<316 321 321 377> 391 148<321 377 377 382 316 411>
LayerCount: 2
Fore
SplineSet
300 107 m 0
 266 107 236 112 209 121 c 1
 147 16 l 1
 46 75 l 1
 112 187 l 1
 80 228 61 283 61 349 c 0
 61 415 80 470 112 511 c 1
 46 623 l 1
 147 682 l 1
 209 577 l 1
 236 586 266 591 300 591 c 0
 334 591 364 586 391 577 c 1
 453 682 l 1
 554 623 l 1
 488 511 l 1
 520 470 539 415 539 349 c 0
 539 283 520 228 488 187 c 1
 554 75 l 1
 453 16 l 1
 391 121 l 1
 364 112 334 107 300 107 c 0
300 214 m 0
 357 214 391 253 391 321 c 2
 391 377 l 2
 391 445 357 484 300 484 c 0
 243 484 209 445 209 377 c 2
 209 321 l 2
 209 253 243 214 300 214 c 0
EndSplineSet
Validated: 1
EndChar

StartChar: cent
Encoding: 162 162 168
Width: 600
GlyphClass: 1
Flags: MW
HStem: -8 112<363 372> 411 113<363 372>
VStem: 60 142<190 216 216 300 190 330> 258 114<-114 -8 -114 -6 -114 -6 524 630>
LayerCount: 2
Fore
SplineSet
372 -114 m 1
 258 -114 l 1
 258 -6 l 1
 133 17 60 114 60 258 c 0
 60 402 134 499 258 522 c 1
 258 630 l 1
 372 630 l 1
 372 524 l 1
 454 511 505 465 535 402 c 1
 428 344 l 1
 415 372 394 398 363 411 c 1
 363 104 l 1
 397 116 422 143 438 173 c 1
 543 114 l 1
 512 51 457 5 372 -8 c 1
 372 -114 l 1
202 216 m 2
 202 164 224 124 268 106 c 1
 268 410 l 1
 225 393 202 353 202 300 c 2
 202 216 l 2
EndSplineSet
Validated: 1
EndChar

StartChar: Euro
Encoding: 8364 8364 169
Width: 600
GlyphClass: 1
Flags: MW
HStem: -12 119<305 369.5 305 404> 223 90<207 429 207 207> 385 90<207 429 207 429 201 429> 591 119<305 369.5>
VStem: 45 156<313 385 313 463>
LayerCount: 2
Fore
SplineSet
336 -12 m 0
 153 -12 45 121 45 349 c 0
 45 577 153 710 336 710 c 0
 472 710 529 650 573 589 c 1
 464 513 l 1
 435 565 397 591 342 591 c 0
 268 591 223 548 207 475 c 1
 429 475 l 1
 429 385 l 1
 201 385 l 1
 201 313 l 1
 429 313 l 1
 429 223 l 1
 207 223 l 1
 223 150 268 107 342 107 c 0
 397 107 435 133 464 185 c 1
 573 109 l 1
 529 48 472 -12 336 -12 c 0
EndSplineSet
Validated: 1
EndChar

StartChar: florin
Encoding: 402 402 170
Width: 600
GlyphClass: 1
Flags: MW
HStem: -200 115<-50 153 -31 134> 323 115<77 221 58 241 389 543> 583 115<432 598 413 617>
VStem: -50 667
LayerCount: 2
Fore
SplineSet
-50 -200 m 1
 -31 -85 l 1
 153 -85 l 1
 221 323 l 1
 58 323 l 1
 77 438 l 1
 241 438 l 1
 261 559 l 2
 275 646 324 698 432 698 c 2
 617 698 l 1
 598 583 l 1
 413 583 l 1
 389 438 l 1
 561 438 l 1
 543 323 l 1
 369 323 l 1
 305 -61 l 2
 291 -148 241 -200 134 -200 c 2
 -50 -200 l 1
EndSplineSet
Validated: 1
EndChar

StartChar: sterling
Encoding: 163 163 171
Width: 600
GlyphClass: 1
Flags: MW
HStem: 0 128<224 553 224 553> 269 110<46 117 46 153 46 117 302 302 302 442> 581 129<309 367.5>
VStem: 86 153<480 512 461.5 565.5> 154 148<229 259>
LayerCount: 2
Fore
SplineSet
553 0 m 1xe8
 69 0 l 1
 69 136 l 1
 122 159 154 201 154 257 c 0xe8
 154 261 154 265 153 269 c 1
 46 269 l 1
 46 379 l 1
 117 379 l 1
 101 416 86 456 86 504 c 0
 86 627 186 710 335 710 c 0
 436 710 508 672 559 605 c 1
 460 512 l 1
 429 552 395 581 340 581 c 0
 278 581 239 544 239 480 c 0xf0
 239 443 253 411 267 379 c 1
 442 379 l 1
 442 269 l 1
 302 269 l 1
 302 262 l 2
 302 194 260 156 224 137 c 1
 224 128 l 1
 553 128 l 1
 553 0 l 1xe8
EndSplineSet
Validated: 1
EndChar

StartChar: dollar
Encoding: 36 36 172
Width: 600
GlyphClass: 1
Flags: MW
HStem: -5 119<357 367> 583 123<253 263>
VStem: 52 141<486 528 486 558> 253 114<-113 -10 -10 -10 707 811> 428 140<179 224.5>
LayerCount: 2
Fore
SplineSet
253 -113 m 1
 253 -10 l 1
 154 -2 77 37 30 96 c 1
 117 191 l 1
 159 146 209 121 263 113 c 1
 263 297 l 1
 240 301 l 2
 112 324 52 400 52 502 c 0
 52 614 124 689 253 706 c 1
 253 811 l 1
 367 811 l 1
 367 707 l 1
 450 696 509 662 549 616 c 1
 463 520 l 1
 435 551 399 571 357 580 c 1
 357 413 l 1
 380 409 l 2
 507 385 568 313 568 212 c 0
 568 102 496 18 367 -5 c 1
 367 -113 l 1
 253 -113 l 1
193 507 m 0
 193 465 214 445 263 432 c 1
 263 583 l 1
 214 575 193 549 193 507 c 0
428 202 m 0
 428 247 406 267 357 279 c 1
 357 114 l 1
 405 125 428 156 428 202 c 0
EndSplineSet
Validated: 1
EndChar

StartChar: yen
Encoding: 165 165 173
Width: 600
GlyphClass: 1
Flags: MW
HStem: 0 113<56 229 56 229 371 544> 221 113<56 160 56 229 56 160 441 544> 678 20G<0 156 156 156 449 600 600 600>
VStem: 229 142<113 221 113 221>
LayerCount: 2
Fore
SplineSet
56 0 m 1
 56 113 l 1
 229 113 l 1
 229 221 l 1
 56 221 l 1
 56 334 l 1
 160 334 l 1
 0 698 l 1
 156 698 l 1
 297 334 l 1
 307 334 l 1
 449 698 l 1
 600 698 l 1
 441 334 l 1
 544 334 l 1
 544 221 l 1
 371 221 l 1
 371 113 l 1
 544 113 l 1
 544 0 l 1
 56 0 l 1
EndSplineSet
Validated: 1
EndChar

StartChar: uni0E3F
Encoding: 3647 3647 174
Width: 600
GlyphClass: 1
Flags: MW
HStem: 0 105<64 348 348 359 348 358> 301 104<348 348> 594 104<198 244 64 254 198 198>
VStem: 64 134<104 104 104 302 401 594> 244 114<-113 0 -113 0 698 811> 404 144<481 514 514 536> 424 144<185 221 221 238.5 133.5 248>
LayerCount: 2
Fore
SplineSet
358 0 m 1xfa
 358 -113 l 1
 244 -113 l 1
 244 0 l 1
 64 0 l 1
 64 698 l 1
 244 698 l 1
 244 811 l 1
 358 811 l 1
 358 697 l 1
 479 691 548 617 548 512 c 0xfc
 548 434 508 386 433 365 c 1
 433 359 l 1
 518 339 568 285 568 192 c 0
 568 75 490 0 359 0 c 2
 358 0 l 1xfa
198 401 m 1
 254 401 l 1
 254 594 l 1
 198 594 l 1
 198 401 l 1
348 590 m 1
 348 405 l 1
 385 414 404 437 404 481 c 2
 404 514 l 2
 404 558 385 581 348 590 c 1
198 104 m 1
 254 104 l 1
 254 302 l 1
 198 302 l 1
 198 104 l 1
348 301 m 1
 348 105 l 1
 398 110 424 131 424 185 c 2
 424 221 l 2xfa
 424 275 398 296 348 301 c 1
EndSplineSet
Validated: 1
EndChar

StartChar: uni20A1
Encoding: 8353 8353 175
Width: 600
GlyphClass: 1
Flags: MW
HStem: -12 112<313 316 316 318> 598 112<309 326.5 309 326.5>
VStem: 41 142<262 288 288 410 261 448.5>
LayerCount: 2
Fore
SplineSet
311 -113 m 1
 318 -12 l 1
 316 -12 l 2
 299 -12 283 -11 268 -9 c 1
 261 -113 l 1
 190 -113 l 1
 199 10 l 1
 92 57 41 175 41 349 c 0
 41 548 107 673 247 703 c 1
 254 811 l 1
 325 811 l 1
 318 710 l 1
 335 710 352 709 368 706 c 1
 375 811 l 1
 446 811 l 1
 437 688 l 1
 495 663 540 617 569 546 c 1
 456 492 l 1
 448 514 438 533 427 548 c 1
 397 123 l 1
 423 140 442 167 456 206 c 1
 569 152 l 1
 533 62 471 13 389 -5 c 1
 382 -113 l 1
 311 -113 l 1
313 598 m 2
 309 598 l 1
 275 104 l 1
 286 102 299 100 313 100 c 2
 327 100 l 1
 361 592 l 1
 346 596 330 598 313 598 c 2
183 288 m 2
 183 234 190 187 210 154 c 1
 239 577 l 1
 198 546 183 486 183 410 c 2
 183 288 l 2
EndSplineSet
Validated: 1
EndChar

StartChar: uni20A4
Encoding: 8356 8356 176
Width: 600
GlyphClass: 1
Flags: MW
HStem: 0 128<224 553 224 553> 200 89<49 141 49 151 300 424> 357 89<49 93 49 127 49 93 278 278 278 424> 581 129<309 367.5>
VStem: 86 153<493.5 512 474 565.5> 151 149<289 289>
LayerCount: 2
Fore
SplineSet
553 128 m 1xf4
 553 0 l 1
 69 0 l 1
 69 136 l 1
 102 150 127 172 141 200 c 1
 49 200 l 1
 49 289 l 1
 151 289 l 1xf4
 146 312 137 334 127 357 c 1
 49 357 l 1
 49 446 l 1
 93 446 l 1
 89 464 86 483 86 504 c 0
 86 627 186 710 335 710 c 0
 436 710 508 672 559 605 c 1
 460 512 l 1
 429 552 395 581 340 581 c 0
 278 581 239 544 239 480 c 0xf8
 239 468 240 457 243 446 c 1
 424 446 l 1
 424 357 l 1
 278 357 l 1
 287 336 296 313 300 289 c 1
 424 289 l 1
 424 200 l 1
 288 200 l 1
 273 169 247 149 224 137 c 1
 224 128 l 1
 553 128 l 1xf4
EndSplineSet
Validated: 1
EndChar

StartChar: uni20A6
Encoding: 8358 8358 177
Width: 600
GlyphClass: 1
Flags: MW
HStem: 0 134<412 422 412 532 344 422> 231 94<23 68 23 68 532 577> 373 94<23 68 23 68 532 577> 564 134<178 188 178 178>
VStem: 68 110<0 231 231 231 325 373 373 373 467 564> 422 110<134 231 325 373 467 698>
LayerCount: 2
Fore
SplineSet
532 373 m 1
 532 325 l 1
 577 325 l 1
 577 231 l 1
 532 231 l 1
 532 0 l 1
 344 0 l 1
 278 238 l 1
 178 238 l 1
 178 0 l 1
 68 0 l 1
 68 231 l 1
 23 231 l 1
 23 325 l 1
 68 325 l 1
 68 373 l 1
 23 373 l 1
 23 467 l 1
 68 467 l 1
 68 698 l 1
 256 698 l 1
 322 460 l 1
 422 460 l 1
 422 698 l 1
 532 698 l 1
 532 467 l 1
 577 467 l 1
 577 373 l 1
 532 373 l 1
178 318 m 1
 256 318 l 1
 188 564 l 1
 178 564 l 1
 178 318 l 1
344 380 m 1
 412 134 l 1
 422 134 l 1
 422 380 l 1
 344 380 l 1
EndSplineSet
Validated: 1
EndChar

StartChar: uni20A8
Encoding: 8360 8360 178
Width: 600
GlyphClass: 1
Flags: MW
HStem: -12 98<403 441.5 403 477> 0 21G<37 156 37 37> 321 98<156 169 156 190> 379 97<500.5 516.5 458 522> 597 101<156 187 187 190 156 156>
VStem: 37 119<0 321 419 597> 248 120<487 529 529 553.5> 357 118<329 354.5 329 380.5> 472 118<112.5 137>
LayerCount: 2
Fore
SplineSet
156 0 m 1x6e80
 37 0 l 1x6e80
 37 698 l 1
 187 698 l 2
 303 698 368 631 368 516 c 0
 368 446 341 380 284 347 c 1
 342 166 l 2
 358 116 380 86 426 86 c 0
 457 86 472 99 472 126 c 0xae80
 472 148 462 164 438 188 c 2
 423 203 l 2
 380 246 357 283 357 337 c 0
 357 424 416 476 500 476 c 0
 533 476 571 468 600 449 c 1
 562 362 l 1
 546 373 531 379 513 379 c 0
 488 379 475 368 475 341 c 0x9d
 475 317 485 302 509 278 c 2
 524 263 l 2
 567 220 590 183 590 128 c 0
 590 45 537 -12 417 -12 c 0xae80
 321 -12 258 25 227 128 c 2
 169 321 l 1
 156 321 l 1
 156 0 l 1x6e80
156 419 m 1
 190 419 l 2
 231 419 248 438 248 487 c 2
 248 529 l 2
 248 578 231 597 190 597 c 2
 156 597 l 1
 156 419 l 1
EndSplineSet
Validated: 1
EndChar

StartChar: uni20A9
Encoding: 8361 8361 179
Width: 600
GlyphClass: 1
Flags: MW
HStem: 0 93<172 197 172 257 406 431> 270 91<8 65 8 68 8 65 535 592> 437 92<8 60 8 63 8 60 540 592> 678 20G<54 180 180 180 423 546 546 546>
VStem: 8 584<270 361 270 361 437 529 270 529>
LayerCount: 2
Fore
SplineSet
537 437 m 1
 535 361 l 1
 592 361 l 1
 592 270 l 1
 532 270 l 1
 523 0 l 1
 343 0 l 1
 312 444 l 1
 288 444 l 1
 257 0 l 1
 77 0 l 1
 68 270 l 1
 8 270 l 1
 8 361 l 1
 65 361 l 1
 63 437 l 1
 8 437 l 1
 8 529 l 1
 60 529 l 1
 54 698 l 1
 180 698 l 1
 180 522 l 1
 423 522 l 1
 423 698 l 1
 546 698 l 1
 540 529 l 1
 592 529 l 1
 592 437 l 1
 537 437 l 1
172 93 m 1
 197 93 l 1
 222 444 l 1
 172 444 l 1
 172 93 l 1
406 93 m 1
 431 93 l 1
 431 444 l 1
 381 444 l 1
 406 93 l 1
EndSplineSet
Validated: 1
EndChar

StartChar: uni20AA
Encoding: 8362 8362 180
Width: 600
GlyphClass: 1
Flags: MW
HStem: 0 90<279 364 364 381> 608 90<137 223 137 137>
VStem: 34 103<0 608> 184 95<90 531 90 531 90 531> 325 95<167 499 499 500 167 538.5> 467 103<199 698>
LayerCount: 2
Fore
SplineSet
184 0 m 1
 184 531 l 1
 279 531 l 1
 279 90 l 1
 364 90 l 2
 420 90 467 120 467 199 c 2
 467 698 l 1
 570 698 l 1
 570 198 l 2
 570 65 491 0 381 0 c 2
 184 0 l 1
137 0 m 1
 34 0 l 1
 34 698 l 1
 233 698 l 2
 343 698 420 633 420 500 c 2
 420 167 l 1
 325 167 l 1
 325 499 l 2
 325 578 279 608 223 608 c 2
 137 608 l 1
 137 0 l 1
EndSplineSet
Validated: 1
EndChar

StartChar: uni20AB
Encoding: 8363 8363 181
Width: 600
GlyphClass: 1
Flags: MW
HStem: 0 107<82 542 82 542> 156 104<268.5 275> 440 104<268.5 275 187.5 322.5> 584 105<253 379 253 379 519 569> 720 20G<379 519 519 519>
VStem: 70 144<318 341 341 359 318 417> 379 140<166 253 253 253 324 376 376 392 447 584 166 584 689 740>
LayerCount: 2
Fore
SplineSet
379 166 m 1
 379 253 l 1
 373 253 l 1
 351 201 314 156 236 156 c 0
 139 156 70 216 70 350 c 0
 70 484 139 544 236 544 c 0
 314 544 351 499 373 447 c 1
 379 447 l 1
 379 584 l 1
 253 584 l 1
 253 689 l 1
 379 689 l 1
 379 740 l 1
 519 740 l 1
 519 689 l 1
 569 689 l 1
 569 584 l 1
 519 584 l 1
 519 166 l 1
 379 166 l 1
296 260 m 0
 349 260 379 292 379 324 c 2
 379 376 l 2
 379 408 349 440 296 440 c 0
 241 440 214 405 214 359 c 2
 214 341 l 2
 214 295 241 260 296 260 c 0
542 0 m 1
 82 0 l 1
 82 107 l 1
 542 107 l 1
 542 0 l 1
EndSplineSet
Validated: 1
EndChar

StartChar: uni20AD
Encoding: 8365 8365 182
Width: 600
GlyphClass: 1
Flags: MW
HStem: 0 21G<69 219 69 69 433 433 433 601> 296 120<19 69 19 69 219 259 420 420 420 555> 678 20G<69 219 219 219 424 585 585 585>
VStem: 69 150<0 296 0 296 416 698>
LayerCount: 2
Fore
SplineSet
219 296 m 1
 219 0 l 1
 69 0 l 1
 69 296 l 1
 19 296 l 1
 19 416 l 1
 69 416 l 1
 69 698 l 1
 219 698 l 1
 219 416 l 1
 259 416 l 1
 424 698 l 1
 585 698 l 1
 410 416 l 1
 555 416 l 1
 555 296 l 1
 420 296 l 1
 601 0 l 1
 433 0 l 1
 259 296 l 1
 219 296 l 1
EndSplineSet
Validated: 1
EndChar

StartChar: uni20AE
Encoding: 8366 8366 183
Width: 600
GlyphClass: 1
Flags: MW
HStem: 0 21G<229 371 229 229> 581 117<24 229 24 576 371 371 371 576>
VStem: 229 142<0 116 116 116 0 278 278 300 300 300 462 581>
LayerCount: 2
Fore
SplineSet
500 234 m 1
 371 178 l 1
 371 0 l 1
 229 0 l 1
 229 116 l 1
 100 60 l 1
 100 160 l 1
 229 216 l 1
 229 300 l 1
 100 244 l 1
 100 344 l 1
 229 400 l 1
 229 581 l 1
 24 581 l 1
 24 698 l 1
 576 698 l 1
 576 581 l 1
 371 581 l 1
 371 462 l 1
 500 518 l 1
 500 418 l 1
 371 362 l 1
 371 278 l 1
 500 334 l 1
 500 234 l 1
EndSplineSet
Validated: 1
EndChar

StartChar: uni20B1
Encoding: 8369 8369 184
Width: 600
GlyphClass: 1
Flags: MW
HStem: 0 21G<76 218 76 76> 171 95<218 293 218 293 293 318> 317 94<25 76 25 76 531 579> 460 94<25 76 25 76 531 531 531 579> 604 94<218 218 218 293>
VStem: 76 142<0 171 266 317 317 317 411 460 460 460 554 604> 387 144<411 460 411 464 411 464>
LayerCount: 2
Fore
SplineSet
218 171 m 1
 218 0 l 1
 76 0 l 1
 76 317 l 1
 25 317 l 1
 25 411 l 1
 76 411 l 1
 76 460 l 1
 25 460 l 1
 25 554 l 1
 76 554 l 1
 76 698 l 1
 318 698 l 2
 423 698 491 656 518 554 c 1
 579 554 l 1
 579 460 l 1
 531 460 l 1
 531 411 l 1
 579 411 l 1
 579 317 l 1
 518 317 l 1
 492 213 424 171 318 171 c 2
 218 171 l 1
218 604 m 1
 218 549 l 1
 382 549 l 1
 372 587 348 604 293 604 c 2
 218 604 l 1
218 407 m 1
 387 407 l 1
 387 464 l 1
 218 464 l 1
 218 407 l 1
218 266 m 1
 293 266 l 2
 350 266 374 283 383 322 c 1
 218 322 l 1
 218 266 l 1
EndSplineSet
Validated: 1
EndChar

StartChar: uni20B2
Encoding: 8370 8370 185
Width: 600
GlyphClass: 1
Flags: MW
HStem: -13 115<310 316> 267 106<354 416 339 545> 594 116<290 296>
VStem: 35 149<259.5 287 287 410 249.5 463> 416 129<218 234 234 267 267 267>
LayerCount: 2
Fore
SplineSet
180 -113 m 1
 197 5 l 1
 87 49 35 169 35 350 c 0
 35 576 117 707 296 710 c 1
 310 811 l 1
 426 811 l 1
 410 691 l 1
 473 665 515 612 539 532 c 1
 426 492 l 1
 417 522 404 549 382 568 c 1
 354 373 l 1
 545 373 l 1
 545 234 l 2
 545 88 459 -9 310 -13 c 1
 296 -113 l 1
 180 -113 l 1
224 132 m 1
 290 594 l 1
 215 588 184 527 184 410 c 2
 184 287 l 2
 184 212 196 161 224 132 c 1
316 102 m 1
 388 107 416 157 416 218 c 2
 416 267 l 1
 339 267 l 1
 316 102 l 1
EndSplineSet
Validated: 1
EndChar

StartChar: uni20B4
Encoding: 8372 8372 186
Width: 600
GlyphClass: 1
Flags: MW
HStem: -12 114<286.5 338.5 286.5 356.5> 230 82<27 95 27 144 311 573> 402 82<27 293 27 364 497 573> 593 117<265.5 314.5>
VStem: 87 136<161 189.5> 370 135<529 542>
LayerCount: 2
Fore
SplineSet
308 -12 m 0
 163 -12 87 75 87 181 c 0
 87 198 89 216 95 230 c 1
 27 230 l 1
 27 312 l 1
 144 312 l 1
 293 396 l 1
 293 402 l 1
 27 402 l 1
 27 484 l 1
 364 484 l 1
 368 493 370 502 370 516 c 0
 370 568 340 593 289 593 c 0
 242 593 205 572 173 538 c 1
 98 627 l 1
 142 678 211 710 295 710 c 0
 429 710 505 630 505 538 c 0
 505 520 502 498 497 484 c 1
 573 484 l 1
 573 402 l 1
 460 402 l 1
 311 318 l 1
 311 312 l 1
 573 312 l 1
 573 230 l 1
 231 230 l 1
 225 217 223 202 223 188 c 0
 223 134 257 102 316 102 c 0
 361 102 405 121 454 173 c 1
 530 84 l 1
 483 27 405 -12 308 -12 c 0
EndSplineSet
Validated: 1
EndChar

StartChar: uni20B5
Encoding: 8373 8373 187
Width: 600
GlyphClass: 1
Flags: MW
HStem: -12 113<315 321 315 321> 596 114<295 302>
VStem: 41 150<260.5 288 288 410 253.5 461.5>
LayerCount: 2
Fore
SplineSet
186 -113 m 1
 203 8 l 1
 93 53 41 172 41 349 c 0
 41 574 126 702 302 710 c 1
 316 811 l 1
 431 811 l 1
 415 695 l 1
 493 667 535 606 556 534 c 1
 439 495 l 1
 428 528 414 558 388 576 c 1
 321 101 l 1
 388 103 417 157 431 221 c 1
 563 189 l 1
 535 67 460 -12 316 -12 c 2
 315 -12 l 1
 301 -113 l 1
 186 -113 l 1
230 137 m 1
 295 596 l 1
 230 586 191 535 191 410 c 2
 191 288 l 2
 191 219 203 168 230 137 c 1
EndSplineSet
Validated: 1
EndChar

StartChar: uni20B8
Encoding: 8376 8376 188
Width: 600
GlyphClass: 1
Flags: MW
HStem: 0 21G<225 375 225 225> 416 105<44 225 44 556 375 556 375 375> 593 105<45 555 45 555>
VStem: 225 150<0 416 0 416>
LayerCount: 2
Fore
SplineSet
555 593 m 1
 45 593 l 1
 45 698 l 1
 555 698 l 1
 555 593 l 1
556 416 m 1
 375 416 l 1
 375 0 l 1
 225 0 l 1
 225 416 l 1
 44 416 l 1
 44 521 l 1
 556 521 l 1
 556 416 l 1
EndSplineSet
Validated: 1
EndChar

StartChar: uni20B9
Encoding: 8377 8377 189
Width: 600
GlyphClass: 1
Flags: MW
HStem: 0 21G<352 529 352 352> 246 109<46 167 167 168 46 167> 427 92<46 288 46 288 433 433 433 564> 589 109<46 167 46 564 354 354 354 564>
VStem: 288 145<427 427 427 519>
LayerCount: 2
Fore
SplineSet
529 0 m 1
 352 0 l 1
 168 246 l 1
 46 246 l 1
 46 355 l 1
 167 355 l 2
 233 355 283 373 288 427 c 1
 46 427 l 1
 46 519 l 1
 288 519 l 1
 282 570 232 589 167 589 c 2
 46 589 l 1
 46 698 l 1
 564 698 l 1
 564 589 l 1
 354 589 l 1
 354 584 l 1
 382 579 410 559 424 519 c 1
 564 519 l 1
 564 427 l 1
 433 427 l 1
 426 352 386 302 319 273 c 1
 529 0 l 1
EndSplineSet
Validated: 1
EndChar

StartChar: uni20BA
Encoding: 8378 8378 190
Width: 600
GlyphClass: 1
Flags: MW
HStem: 0 122<248 294 294 313> 678 20G<109 248 248 248>
VStem: 109 139<122 199 199 199 368 369 369 369 538 698> 436 142<235.5 305>
LayerCount: 2
Fore
SplineSet
109 0 m 1
 109 199 l 1
 39 167 l 1
 39 271 l 1
 109 303 l 1
 109 369 l 1
 39 337 l 1
 39 441 l 1
 109 473 l 1
 109 698 l 1
 248 698 l 1
 248 538 l 1
 409 612 l 1
 409 508 l 1
 248 434 l 1
 248 368 l 1
 409 442 l 1
 409 338 l 1
 248 264 l 1
 248 122 l 1
 294 122 l 2
 390 122 436 166 436 305 c 1
 578 305 l 1
 578 135 498 0 313 0 c 2
 109 0 l 1
EndSplineSet
Validated: 1
EndChar

StartChar: uni20BD
Encoding: 8381 8381 191
Width: 600
GlyphClass: 1
Flags: MW
HStem: 0 21G<92 243 92 92> 114 109<32 92 32 92 243 449> 275 109<32 92 32 92 243 314 314 349> 587 111<243 243 243 314>
VStem: 92 151<0 114 0 114 223 275 384 587> 408 157<470 501 501 531.5>
LayerCount: 2
Fore
SplineSet
449 114 m 1
 243 114 l 1
 243 0 l 1
 92 0 l 1
 92 114 l 1
 32 114 l 1
 32 223 l 1
 92 223 l 1
 92 275 l 1
 32 275 l 1
 32 384 l 1
 92 384 l 1
 92 698 l 1
 352 698 l 2
 489 698 565 615 565 486 c 0
 565 357 489 275 352 275 c 2
 243 275 l 1
 243 223 l 1
 449 223 l 1
 449 114 l 1
243 587 m 1
 243 384 l 1
 314 384 l 2
 384 384 408 409 408 470 c 2
 408 501 l 2
 408 562 384 587 314 587 c 2
 243 587 l 1
EndSplineSet
Validated: 1
EndChar

StartChar: uni20BF
Encoding: 8383 8383 192
Width: 600
GlyphClass: 1
Flags: MW
HStem: 0 101<77 299 252 299 299 313 252 252> 302 100<223 280 223 280 280 299> 597 101<77 223 252 280>
VStem: 77 146<101 302 402 597> 168 84<-113 0 -113 0 698 811> 313 84<-113 0 0 0 698 811> 381 153<485 514 514 545> 403 153<187 217 217 239 141.5 248.5>
LayerCount: 2
Fore
SplineSet
313 -113 m 1xf5
 313 0 l 1
 252 0 l 1
 252 -113 l 1
 168 -113 l 1
 168 0 l 1xed
 77 0 l 1
 77 698 l 1xf5
 168 698 l 1
 168 811 l 1
 252 811 l 1
 252 698 l 1
 313 698 l 1
 313 811 l 1
 397 811 l 1
 397 689 l 1xed
 486 667 534 603 534 512 c 0xf2
 534 434 496 387 420 365 c 1
 420 359 l 1
 507 338 556 286 556 192 c 0
 556 91 497 22 397 4 c 1
 397 -113 l 1
 313 -113 l 1xf5
223 597 m 1xf2
 223 402 l 1
 280 402 l 2
 350 402 381 424 381 485 c 2
 381 514 l 2
 381 576 350 597 280 597 c 2
 223 597 l 1xf2
223 302 m 1
 223 101 l 1
 299 101 l 2
 371 101 403 124 403 187 c 2
 403 217 l 2xf5
 403 280 371 302 299 302 c 2
 223 302 l 1
EndSplineSet
Validated: 1
EndChar

StartChar: fi
Encoding: 64257 64257 193
Width: 600
GlyphClass: 3
Flags: MW
HStem: 0 21G<75 75 75 223 387 387 387 535> 401 115<31 75 31 75 223 387> 582 169<428 494> 625 115<232 329 232 329 223 329>
VStem: 75 148<0 401 0 401 516 591 591 625> 372 178<652 681 632.5 701> 387 148<0 401 401 401>
LayerCount: 2
Fore
SplineSet
75 0 m 1xda
 75 401 l 1
 31 401 l 1
 31 516 l 1
 75 516 l 1
 75 591 l 2
 75 678 125 740 232 740 c 2
 329 740 l 1
 329 625 l 1
 223 625 l 1
 223 516 l 1
 535 516 l 1
 535 0 l 1
 387 0 l 1
 387 401 l 1
 223 401 l 1
 223 0 l 1
 75 0 l 1xda
461 582 m 0xec
 395 582 372 613 372 652 c 2
 372 681 l 2
 372 721 395 751 461 751 c 0
 527 751 550 721 550 681 c 2
 550 652 l 2
 550 613 527 582 461 582 c 0xec
EndSplineSet
Validated: 1
EndChar

StartChar: fl
Encoding: 64258 64258 194
Width: 600
GlyphClass: 3
Flags: MW
HStem: 0 21G<75 75 75 223 387 535 387 387> 401 115<31 75 31 75 223 331> 625 115<232 330 232 330 223 330>
VStem: 75 148<0 401 0 401 516 591 591 625> 387 148<0 740 0 740>
LayerCount: 2
Fore
SplineSet
75 0 m 1
 75 401 l 1
 31 401 l 1
 31 516 l 1
 75 516 l 1
 75 591 l 2
 75 678 125 740 232 740 c 2
 330 740 l 1
 330 625 l 1
 223 625 l 1
 223 516 l 1
 331 516 l 1
 331 401 l 1
 223 401 l 1
 223 0 l 1
 75 0 l 1
387 0 m 1
 387 740 l 1
 535 740 l 1
 535 0 l 1
 387 0 l 1
EndSplineSet
Validated: 1
EndChar

StartChar: aacute
Encoding: 225 225 195
Width: 600
GlyphClass: 2
Flags: MW
HStem: -12 97<250.5 257.5> 0 107<456.5 572 515 572 515 572> 221 80<284 288 288 367> 420 108<242 307> 570 237<308 319>
VStem: 52 145<122 140 140 160 122 196> 220 222<613 746> 367 148<159 221 221 221 301 327 327 333 107 357.5>
AnchorPoint: "Anchor-1" 572 0 basechar 0
AnchorPoint: "Anchor-0" 292 0 basechar 0
LayerCount: 2
Fore
SplineSet
572 0 m 1x75
 487 0 l 2x75
 426 0 386 33 380 91 c 1
 375 91 l 1
 357 24 297 -12 218 -12 c 0xb5
 118 -12 52 45 52 142 c 0
 52 250 133 301 284 301 c 2
 367 301 l 1
 367 327 l 2
 367 388 341 420 273 420 c 0
 211 420 175 393 147 355 c 1
 66 427 l 1
 100 485 175 528 290 528 c 0
 431 528 515 463 515 333 c 2
 515 107 l 1
 572 107 l 1
 572 0 l 1x75
274 85 m 0xb5
 326 85 367 111 367 159 c 2
 367 221 l 1
 288 221 l 2
 229 221 197 200 197 160 c 2
 197 140 l 2
 197 104 227 85 274 85 c 0xb5
442 746 m 1x0a
 308 570 l 1
 220 613 l 1
 319 807 l 1
 442 746 l 1x0a
EndSplineSet
Validated: 1
Substitution2: "'salt' Stylistic Alternatives lookup 23 subtable" aacute.alt01
Substitution2: "'ss01' Style Set 1 lookup 16 subtable" aacute.alt01
Substitution2: "'aalt' Access All Alternates lookup 0 subtable" aacute.alt01
EndChar

StartChar: abreve
Encoding: 259 259 196
Width: 600
GlyphClass: 2
Flags: MW
HStem: -12 97<250.5 257.5> 0 107<456.5 572 515 572 515 572> 221 80<284 288 288 367> 420 108<242 307> 570 103<272.5 311.5 272.5 352>
VStem: 52 145<122 140 140 160 122 196> 98 388<740 740> 367 148<159 221 221 221 301 327 327 333 107 357.5>
AnchorPoint: "Anchor-1" 572 0 basechar 0
AnchorPoint: "Anchor-0" 292 0 basechar 0
LayerCount: 2
Fore
SplineSet
572 0 m 1x75
 487 0 l 2x75
 426 0 386 33 380 91 c 1
 375 91 l 1
 357 24 297 -12 218 -12 c 0xb5
 118 -12 52 45 52 142 c 0
 52 250 133 301 284 301 c 2
 367 301 l 1
 367 327 l 2
 367 388 341 420 273 420 c 0
 211 420 175 393 147 355 c 1
 66 427 l 1
 100 485 175 528 290 528 c 0
 431 528 515 463 515 333 c 2
 515 107 l 1
 572 107 l 1
 572 0 l 1x75
274 85 m 0xb5
 326 85 367 111 367 159 c 2
 367 221 l 1
 288 221 l 2
 229 221 197 200 197 160 c 2
 197 140 l 2
 197 104 227 85 274 85 c 0xb5
292 570 m 0x0a
 172 570 123 668 98 740 c 1
 181 782 l 1
 202 750 l 2
 233 702 253 673 292 673 c 0
 331 673 351 702 382 750 c 2
 403 782 l 1
 486 740 l 1
 461 668 412 570 292 570 c 0x0a
EndSplineSet
Validated: 1
Substitution2: "'salt' Stylistic Alternatives lookup 23 subtable" abreve.alt01
Substitution2: "'ss01' Style Set 1 lookup 16 subtable" abreve.alt01
Substitution2: "'aalt' Access All Alternates lookup 0 subtable" abreve.alt01
EndChar

StartChar: uni01CE
Encoding: 462 462 197
Width: 600
GlyphClass: 2
Flags: MW
HStem: -12 97<250.5 257.5> 0 107<456.5 572 515 572 515 572> 221 80<284 288 288 367> 420 108<242 307> 578 217<173 354 173 230>
VStem: 52 145<122 140 140 160 122 196> 98 388<737 737> 367 148<159 221 221 221 301 327 327 333 107 357.5>
AnchorPoint: "Anchor-1" 572 0 basechar 0
AnchorPoint: "Anchor-0" 292 0 basechar 0
LayerCount: 2
Fore
SplineSet
572 0 m 1x75
 487 0 l 2x75
 426 0 386 33 380 91 c 1
 375 91 l 1
 357 24 297 -12 218 -12 c 0xb5
 118 -12 52 45 52 142 c 0
 52 250 133 301 284 301 c 2
 367 301 l 1
 367 327 l 2
 367 388 341 420 273 420 c 0
 211 420 175 393 147 355 c 1
 66 427 l 1
 100 485 175 528 290 528 c 0
 431 528 515 463 515 333 c 2
 515 107 l 1
 572 107 l 1
 572 0 l 1x75
274 85 m 0xb5
 326 85 367 111 367 159 c 2
 367 221 l 1
 288 221 l 2
 229 221 197 200 197 160 c 2
 197 140 l 2
 197 104 227 85 274 85 c 0xb5
354 578 m 1x0a
 230 578 l 1
 98 737 l 1
 173 795 l 1
 294 680 l 1
 415 795 l 1
 486 737 l 1
 354 578 l 1x0a
EndSplineSet
Validated: 1
Substitution2: "'aalt' Access All Alternates lookup 0 subtable" uni01CE.alt01
EndChar

StartChar: acircumflex
Encoding: 226 226 198
Width: 600
GlyphClass: 2
Flags: MW
HStem: -12 97<250.5 257.5> 0 107<456.5 572 515 572 515 572> 221 80<284 288 288 367> 420 108<242 307> 569 217<169 354 230 411>
VStem: 52 145<122 140 140 160 122 196> 98 388<627 627> 367 148<159 221 221 221 301 327 327 333 107 357.5>
AnchorPoint: "Anchor-1" 572 0 basechar 0
AnchorPoint: "Anchor-0" 292 0 basechar 0
LayerCount: 2
Fore
SplineSet
572 0 m 1x75
 487 0 l 2x75
 426 0 386 33 380 91 c 1
 375 91 l 1
 357 24 297 -12 218 -12 c 0xb5
 118 -12 52 45 52 142 c 0
 52 250 133 301 284 301 c 2
 367 301 l 1
 367 327 l 2
 367 388 341 420 273 420 c 0
 211 420 175 393 147 355 c 1
 66 427 l 1
 100 485 175 528 290 528 c 0
 431 528 515 463 515 333 c 2
 515 107 l 1
 572 107 l 1
 572 0 l 1x75
274 85 m 0xb5
 326 85 367 111 367 159 c 2
 367 221 l 1
 288 221 l 2
 229 221 197 200 197 160 c 2
 197 140 l 2
 197 104 227 85 274 85 c 0xb5
230 786 m 1x0a
 354 786 l 1
 486 627 l 1
 411 569 l 1
 290 684 l 1
 169 569 l 1
 98 627 l 1
 230 786 l 1x0a
EndSplineSet
Validated: 1
Substitution2: "'salt' Stylistic Alternatives lookup 23 subtable" acircumflex.alt01
Substitution2: "'ss01' Style Set 1 lookup 16 subtable" acircumflex.alt01
Substitution2: "'aalt' Access All Alternates lookup 0 subtable" acircumflex.alt01
EndChar

StartChar: adieresis
Encoding: 228 228 199
Width: 600
GlyphClass: 2
Flags: MW
HStem: -12 97<250.5 257.5> 0 107<456.5 572 515 572 515 572> 221 80<284 288 288 367> 420 108<242 307> 591 151<152.5 212 372 431.5>
VStem: 52 145<122 140 140 160 122 196> 102 161<654 680 636.5 697.5> 321 161<654 680 636.5 697.5> 367 148<159 221 221 221 301 327 327 333 107 357.5>
AnchorPoint: "Anchor-1" 572 0 basechar 0
AnchorPoint: "Anchor-0" 292 0 basechar 0
LayerCount: 2
Fore
SplineSet
572 0 m 1x7480
 487 0 l 2x7480
 426 0 386 33 380 91 c 1
 375 91 l 1
 357 24 297 -12 218 -12 c 0xb480
 118 -12 52 45 52 142 c 0
 52 250 133 301 284 301 c 2
 367 301 l 1
 367 327 l 2
 367 388 341 420 273 420 c 0
 211 420 175 393 147 355 c 1
 66 427 l 1
 100 485 175 528 290 528 c 0
 431 528 515 463 515 333 c 2
 515 107 l 1
 572 107 l 1
 572 0 l 1x7480
274 85 m 0xb480
 326 85 367 111 367 159 c 2
 367 221 l 1
 288 221 l 2
 229 221 197 200 197 160 c 2
 197 140 l 2
 197 104 227 85 274 85 c 0xb480
182 591 m 0x0b
 123 591 102 619 102 654 c 2
 102 680 l 2
 102 715 123 742 182 742 c 0
 242 742 263 715 263 680 c 2
 263 654 l 2
 263 619 242 591 182 591 c 0x0b
402 591 m 0
 342 591 321 619 321 654 c 2
 321 680 l 2
 321 715 342 742 402 742 c 0
 461 742 482 715 482 680 c 2
 482 654 l 2
 482 619 461 591 402 591 c 0
EndSplineSet
Validated: 1
Substitution2: "'salt' Stylistic Alternatives lookup 23 subtable" adieresis.alt01
Substitution2: "'ss01' Style Set 1 lookup 16 subtable" adieresis.alt01
Substitution2: "'aalt' Access All Alternates lookup 0 subtable" adieresis.alt01
EndChar

StartChar: uni1EA1
Encoding: 7841 7841 200
Width: 600
GlyphClass: 2
Flags: MW
HStem: -203 151<262.5 321.5> -12 97<250.5 257.5> 0 107<456.5 572 515 572 515 572> 221 80<284 288 288 367> 420 108<242 307>
VStem: 52 145<122 140 140 160 122 196> 211 162<-141 -115 -158.5 -97> 367 148<159 221 221 221 301 327 327 333 107 357.5>
AnchorPoint: "Anchor-2" 292 516 basechar 0
AnchorPoint: "Anchor-1" 572 0 basechar 0
LayerCount: 2
Fore
SplineSet
572 0 m 1x3d
 487 0 l 2x3d
 426 0 386 33 380 91 c 1
 375 91 l 1
 357 24 297 -12 218 -12 c 0x5d
 118 -12 52 45 52 142 c 0
 52 250 133 301 284 301 c 2
 367 301 l 1
 367 327 l 2
 367 388 341 420 273 420 c 0
 211 420 175 393 147 355 c 1
 66 427 l 1
 100 485 175 528 290 528 c 0
 431 528 515 463 515 333 c 2
 515 107 l 1
 572 107 l 1
 572 0 l 1x3d
274 85 m 0x5d
 326 85 367 111 367 159 c 2
 367 221 l 1
 288 221 l 2
 229 221 197 200 197 160 c 2
 197 140 l 2
 197 104 227 85 274 85 c 0x5d
292 -203 m 0x82
 233 -203 211 -176 211 -141 c 2
 211 -115 l 2
 211 -79 233 -52 292 -52 c 0
 351 -52 373 -79 373 -115 c 2
 373 -141 l 2
 373 -176 351 -203 292 -203 c 0x82
EndSplineSet
Validated: 1
Substitution2: "'salt' Stylistic Alternatives lookup 23 subtable" uni1EA1.alt01
Substitution2: "'ss01' Style Set 1 lookup 16 subtable" uni1EA1.alt01
Substitution2: "'aalt' Access All Alternates lookup 0 subtable" uni1EA1.alt01
EndChar

StartChar: agrave
Encoding: 224 224 201
Width: 600
GlyphClass: 2
Flags: MW
HStem: -12 97<250.5 257.5> 0 107<456.5 572 515 572 515 572> 221 80<284 288 288 367> 420 108<242 307> 570 237<265 276>
VStem: 52 145<122 140 140 160 122 196> 142 222<613 746> 367 148<159 221 221 221 301 327 327 333 107 357.5>
AnchorPoint: "Anchor-1" 572 0 basechar 0
AnchorPoint: "Anchor-0" 292 0 basechar 0
LayerCount: 2
Fore
SplineSet
572 0 m 1x75
 487 0 l 2x75
 426 0 386 33 380 91 c 1
 375 91 l 1
 357 24 297 -12 218 -12 c 0xb5
 118 -12 52 45 52 142 c 0
 52 250 133 301 284 301 c 2
 367 301 l 1
 367 327 l 2
 367 388 341 420 273 420 c 0
 211 420 175 393 147 355 c 1
 66 427 l 1
 100 485 175 528 290 528 c 0
 431 528 515 463 515 333 c 2
 515 107 l 1
 572 107 l 1
 572 0 l 1x75
274 85 m 0xb5
 326 85 367 111 367 159 c 2
 367 221 l 1
 288 221 l 2
 229 221 197 200 197 160 c 2
 197 140 l 2
 197 104 227 85 274 85 c 0xb5
276 570 m 1x0a
 142 746 l 1
 265 807 l 1
 364 613 l 1
 276 570 l 1x0a
EndSplineSet
Validated: 1
Substitution2: "'salt' Stylistic Alternatives lookup 23 subtable" agrave.alt01
Substitution2: "'ss01' Style Set 1 lookup 16 subtable" agrave.alt01
Substitution2: "'aalt' Access All Alternates lookup 0 subtable" agrave.alt01
EndChar

StartChar: uni1EA3
Encoding: 7843 7843 202
Width: 600
GlyphClass: 2
Flags: MW
HStem: -12 97<250.5 257.5> 0 107<456.5 572 515 572 515 572> 221 80<284 288 288 367> 420 108<242 307> 687 106<172 315 172 294>
VStem: 52 145<122 140 140 160 122 196> 294 119<687 739.5> 367 148<159 221 221 221 301 327 327 333 107 357.5>
AnchorPoint: "Anchor-1" 572 0 basechar 0
AnchorPoint: "Anchor-0" 292 0 basechar 0
LayerCount: 2
Fore
SplineSet
572 0 m 1x75
 487 0 l 2x75
 426 0 386 33 380 91 c 1
 375 91 l 1
 357 24 297 -12 218 -12 c 0xb5
 118 -12 52 45 52 142 c 0
 52 250 133 301 284 301 c 2
 367 301 l 1
 367 327 l 2
 367 388 341 420 273 420 c 0
 211 420 175 393 147 355 c 1
 66 427 l 1
 100 485 175 528 290 528 c 0
 431 528 515 463 515 333 c 2
 515 107 l 1
 572 107 l 1
 572 0 l 1x75
274 85 m 0xb5
 326 85 367 111 367 159 c 2
 367 221 l 1
 288 221 l 2
 229 221 197 200 197 160 c 2
 197 140 l 2
 197 104 227 85 274 85 c 0xb5
172 687 m 1x0a
 172 793 l 1
 315 793 l 2
 390 793 413 759 413 720 c 0
 413 681 389 634 356 594 c 2
 328 560 l 1
 253 595 l 1
 294 687 l 1
 172 687 l 1x0a
EndSplineSet
Validated: 1
Substitution2: "'salt' Stylistic Alternatives lookup 23 subtable" uni1EA3.alt01
Substitution2: "'ss01' Style Set 1 lookup 16 subtable" uni1EA3.alt01
Substitution2: "'aalt' Access All Alternates lookup 0 subtable" uni1EA3.alt01
EndChar

StartChar: amacron
Encoding: 257 257 203
Width: 600
GlyphClass: 2
Flags: MW
HStem: -12 97<250.5 257.5> 0 107<456.5 572 515 572 515 572> 221 80<284 288 288 367> 420 108<242 307> 615 103<139 445 139 445>
VStem: 52 145<122 140 140 160 122 196> 139 306<615 718 615 718> 367 148<159 221 221 221 301 327 327 333 107 357.5>
AnchorPoint: "Anchor-1" 572 0 basechar 0
AnchorPoint: "Anchor-0" 292 0 basechar 0
LayerCount: 2
Fore
SplineSet
572 0 m 1x75
 487 0 l 2x75
 426 0 386 33 380 91 c 1
 375 91 l 1
 357 24 297 -12 218 -12 c 0xb5
 118 -12 52 45 52 142 c 0
 52 250 133 301 284 301 c 2
 367 301 l 1
 367 327 l 2
 367 388 341 420 273 420 c 0
 211 420 175 393 147 355 c 1
 66 427 l 1
 100 485 175 528 290 528 c 0
 431 528 515 463 515 333 c 2
 515 107 l 1
 572 107 l 1
 572 0 l 1x75
274 85 m 0xb5
 326 85 367 111 367 159 c 2
 367 221 l 1
 288 221 l 2
 229 221 197 200 197 160 c 2
 197 140 l 2
 197 104 227 85 274 85 c 0xb5
139 615 m 1x0a
 139 718 l 1
 445 718 l 1
 445 615 l 1
 139 615 l 1x0a
EndSplineSet
Validated: 1
Substitution2: "'salt' Stylistic Alternatives lookup 23 subtable" amacron.alt01
Substitution2: "'ss01' Style Set 1 lookup 16 subtable" amacron.alt01
Substitution2: "'aalt' Access All Alternates lookup 0 subtable" amacron.alt01
EndChar

StartChar: aogonek
Encoding: 261 261 204
Width: 600
GlyphClass: 2
Flags: MW
HStem: -212 74<486 508 486 513.5> -12 97<250 257.5> 0 107<475 572 515 572> 221 80<284 288 288 367> 420 108<242 307>
VStem: 52 145<122 140 140 160 122 196> 358 100<-117.5 -99> 367 148<159 221 221 221 301 327 327 333 107 357.5>
AnchorPoint: "Anchor-2" 292 516 basechar 0
AnchorPoint: "Anchor-0" 292 0 basechar 0
LayerCount: 2
Fore
SplineSet
572 107 m 1xbd
 572 0 l 1
 474 -60 458 -81 458 -105 c 0
 458 -130 476 -138 496 -138 c 0
 520 -138 537 -126 551 -110 c 1
 604 -161 l 1
 587 -193 545 -212 482 -212 c 0
 416 -212 358 -191 358 -127 c 0
 358 -71 403 -38 477 -4 c 1
 475 0 l 1xbe
 420 4 385 36 380 91 c 1
 375 91 l 1
 357 24 297 -12 218 -12 c 0xde
 118 -12 52 45 52 142 c 0
 52 250 133 301 284 301 c 2
 367 301 l 1
 367 327 l 2
 367 388 341 420 273 420 c 0
 211 420 175 393 147 355 c 1
 66 427 l 1
 100 485 175 528 290 528 c 0
 431 528 515 463 515 333 c 2
 515 107 l 1
 572 107 l 1xbd
367 221 m 1xdd
 288 221 l 2
 229 221 197 200 197 160 c 2
 197 140 l 2
 197 104 227 85 273 85 c 0
 326 85 367 111 367 159 c 2
 367 221 l 1xdd
EndSplineSet
Validated: 1
Substitution2: "'salt' Stylistic Alternatives lookup 23 subtable" aogonek.alt01
Substitution2: "'ss01' Style Set 1 lookup 16 subtable" aogonek.alt01
Substitution2: "'aalt' Access All Alternates lookup 0 subtable" aogonek.alt01
EndChar

StartChar: aring
Encoding: 229 229 205
Width: 600
GlyphClass: 2
Flags: MW
HStem: -12 97<250.5 257.5> 0 107<456.5 572 515 572 515 572> 221 80<284 288 288 367> 420 108<242 307> 549 75<275.5 308.5 275.5 333.5> 760 75<275.5 308.5>
VStem: 52 145<122 140 140 160 122 196> 144 97<659 675 675 709 659 733> 343 97<675 709 709 725> 367 148<159 221 221 221 301 327 327 333 107 357.5>
AnchorPoint: "Anchor-1" 572 0 basechar 0
AnchorPoint: "Anchor-0" 292 0 basechar 0
LayerCount: 2
Fore
SplineSet
572 0 m 1x7240
 487 0 l 2x7240
 426 0 386 33 380 91 c 1
 375 91 l 1
 357 24 297 -12 218 -12 c 0xb240
 118 -12 52 45 52 142 c 0
 52 250 133 301 284 301 c 2
 367 301 l 1
 367 327 l 2
 367 388 341 420 273 420 c 0
 211 420 175 393 147 355 c 1
 66 427 l 1
 100 485 175 528 290 528 c 0
 431 528 515 463 515 333 c 2
 515 107 l 1
 572 107 l 1
 572 0 l 1x7240
274 85 m 0xb240
 326 85 367 111 367 159 c 2
 367 221 l 1
 288 221 l 2
 229 221 197 200 197 160 c 2
 197 140 l 2
 197 104 227 85 274 85 c 0xb240
292 549 m 0x0d80
 209 549 144 609 144 692 c 0
 144 774 209 835 292 835 c 0
 375 835 440 775 440 692 c 0
 440 610 375 549 292 549 c 0x0d80
292 624 m 0
 325 624 343 644 343 675 c 2
 343 709 l 2
 343 741 325 760 292 760 c 0
 259 760 241 740 241 709 c 2
 241 675 l 2
 241 643 259 624 292 624 c 0
EndSplineSet
Validated: 1
Substitution2: "'salt' Stylistic Alternatives lookup 23 subtable" aring.alt01
Substitution2: "'ss01' Style Set 1 lookup 16 subtable" aring.alt01
Substitution2: "'aalt' Access All Alternates lookup 0 subtable" aring.alt01
EndChar

StartChar: aringacute
Encoding: 507 507 206
Width: 600
GlyphClass: 2
Flags: MW
HStem: -12 97<250.5 257.5> 0 107<456.5 572 515 572 515 572> 221 80<284 288 288 367> 420 108<242 307> 555 70<274 310 274 334.5> 725 70<274 310>
VStem: 52 145<122 140 140 160 122 196> 140 97<654 670 670 680 654 712.5> 347 97<670 680 680 696> 367 148<159 221 221 221 301 327 327 333 107 357.5>
AnchorPoint: "Anchor-1" 572 0 basechar 0
AnchorPoint: "Anchor-0" 292 0 basechar 0
LayerCount: 2
Fore
SplineSet
572 0 m 1x7240
 487 0 l 2x7240
 426 0 386 33 380 91 c 1
 375 91 l 1
 357 24 297 -12 218 -12 c 0xb240
 118 -12 52 45 52 142 c 0
 52 250 133 301 284 301 c 2
 367 301 l 1
 367 327 l 2
 367 388 341 420 273 420 c 0
 211 420 175 393 147 355 c 1
 66 427 l 1
 100 485 175 528 290 528 c 0
 431 528 515 463 515 333 c 2
 515 107 l 1
 572 107 l 1
 572 0 l 1x7240
274 85 m 0xb240
 326 85 367 111 367 159 c 2
 367 221 l 1
 288 221 l 2
 229 221 197 200 197 160 c 2
 197 140 l 2
 197 104 227 85 274 85 c 0xb240
435 899 m 1x0d80
 285 806 l 1
 232 863 l 1
 361 980 l 1
 435 899 l 1x0d80
292 555 m 0
 207 555 140 599 140 675 c 0
 140 750 207 795 292 795 c 0
 377 795 444 751 444 675 c 0
 444 600 377 555 292 555 c 0
292 625 m 0
 328 625 347 639 347 670 c 2
 347 680 l 2
 347 712 328 725 292 725 c 0
 256 725 237 711 237 680 c 2
 237 670 l 2
 237 638 256 625 292 625 c 0
EndSplineSet
Validated: 1
Substitution2: "'salt' Stylistic Alternatives lookup 23 subtable" aringacute.alt01
Substitution2: "'ss01' Style Set 1 lookup 16 subtable" aringacute.alt01
Substitution2: "'aalt' Access All Alternates lookup 0 subtable" aringacute.alt01
EndChar

StartChar: atilde
Encoding: 227 227 207
Width: 600
GlyphClass: 2
Flags: MW
HStem: -12 97<250.5 257.5> 0 107<456.5 572 515 572 515 572> 221 80<284 288 288 367> 420 108<242 307> 592 107<358 382.5 358 394.5> 634 107<201.5 226>
VStem: 52 145<122 140 140 160 122 196> 102 380<656 677> 367 148<159 221 221 221 301 327 327 333 107 357.5>
AnchorPoint: "Anchor-1" 572 0 basechar 0
AnchorPoint: "Anchor-0" 292 0 basechar 0
LayerCount: 2
Fore
SplineSet
572 0 m 1x7280
 487 0 l 2x7280
 426 0 386 33 380 91 c 1
 375 91 l 1
 357 24 297 -12 218 -12 c 0xb280
 118 -12 52 45 52 142 c 0
 52 250 133 301 284 301 c 2
 367 301 l 1
 367 327 l 2
 367 388 341 420 273 420 c 0
 211 420 175 393 147 355 c 1
 66 427 l 1
 100 485 175 528 290 528 c 0
 431 528 515 463 515 333 c 2
 515 107 l 1
 572 107 l 1
 572 0 l 1x7280
274 85 m 0xb280
 326 85 367 111 367 159 c 2
 367 221 l 1
 288 221 l 2
 229 221 197 200 197 160 c 2
 197 140 l 2
 197 104 227 85 274 85 c 0xb280
368 592 m 0x09
 338 592 316 601 291 612 c 0
 262 624 239 634 213 634 c 0
 190 634 175 626 154 609 c 1
 102 677 l 1
 126 713 163 741 216 741 c 0x05
 246 741 268 732 293 721 c 0
 322 709 345 699 371 699 c 0
 394 699 409 707 430 724 c 1
 482 656 l 1
 458 620 421 592 368 592 c 0x09
EndSplineSet
Validated: 1
Substitution2: "'salt' Stylistic Alternatives lookup 23 subtable" atilde.alt01
Substitution2: "'ss01' Style Set 1 lookup 16 subtable" atilde.alt01
Substitution2: "'aalt' Access All Alternates lookup 0 subtable" atilde.alt01
EndChar

StartChar: uni1EAF
Encoding: 7855 7855 208
Width: 600
GlyphClass: 2
Flags: MW
HStem: -12 97<250.5 257.5> 0 107<456.5 572 515 572 515 572> 221 80<284 288 288 367> 420 108<242 307> 563 101<271 313 271 353>
VStem: 52 145<122 140 140 160 122 196> 90 404<712 712> 367 148<159 221 221 221 301 327 327 333 107 357.5>
AnchorPoint: "Anchor-1" 572 0 basechar 0
AnchorPoint: "Anchor-0" 292 0 basechar 0
LayerCount: 2
Fore
SplineSet
572 0 m 1x75
 487 0 l 2x75
 426 0 386 33 380 91 c 1
 375 91 l 1
 357 24 297 -12 218 -12 c 0xb5
 118 -12 52 45 52 142 c 0
 52 250 133 301 284 301 c 2
 367 301 l 1
 367 327 l 2
 367 388 341 420 273 420 c 0
 211 420 175 393 147 355 c 1
 66 427 l 1
 100 485 175 528 290 528 c 0
 431 528 515 463 515 333 c 2
 515 107 l 1
 572 107 l 1
 572 0 l 1x75
274 85 m 0xb5
 326 85 367 111 367 159 c 2
 367 221 l 1
 288 221 l 2
 229 221 197 200 197 160 c 2
 197 140 l 2
 197 104 227 85 274 85 c 0xb5
292 563 m 0x0a
 170 563 116 644 90 712 c 1
 165 759 l 1
 186 731 l 2
 225 679 250 664 292 664 c 0
 334 664 359 679 398 731 c 2
 419 759 l 1
 494 712 l 1
 468 644 414 563 292 563 c 0x0a
445 900 m 1
 311 724 l 1
 232 763 l 1
 331 957 l 1
 445 900 l 1
EndSplineSet
Validated: 1
Substitution2: "'salt' Stylistic Alternatives lookup 23 subtable" uni1EAF.alt01
Substitution2: "'ss01' Style Set 1 lookup 16 subtable" uni1EAF.alt01
Substitution2: "'aalt' Access All Alternates lookup 0 subtable" uni1EAF.alt01
EndChar

StartChar: uni1EB7
Encoding: 7863 7863 209
Width: 600
GlyphClass: 2
Flags: MW
HStem: -203 151<262.5 321.5> -12 97<250.5 257.5> 0 107<456.5 572 515 572 515 572> 221 80<284 288 288 367> 420 108<242 307> 570 103<272.5 311.5 272.5 352>
VStem: 52 145<122 140 140 160 122 196> 98 388<740 740> 211 162<-141 -115 -158.5 -97> 367 148<159 221 221 221 301 327 327 333 107 357.5>
AnchorPoint: "Anchor-1" 572 0 basechar 0
LayerCount: 2
Fore
SplineSet
572 0 m 1x3a40
 487 0 l 2x3a40
 426 0 386 33 380 91 c 1
 375 91 l 1
 357 24 297 -12 218 -12 c 0x5a40
 118 -12 52 45 52 142 c 0
 52 250 133 301 284 301 c 2
 367 301 l 1
 367 327 l 2
 367 388 341 420 273 420 c 0
 211 420 175 393 147 355 c 1
 66 427 l 1
 100 485 175 528 290 528 c 0
 431 528 515 463 515 333 c 2
 515 107 l 1
 572 107 l 1
 572 0 l 1x3a40
274 85 m 0x5a40
 326 85 367 111 367 159 c 2
 367 221 l 1
 288 221 l 2
 229 221 197 200 197 160 c 2
 197 140 l 2
 197 104 227 85 274 85 c 0x5a40
292 570 m 0x05
 172 570 123 668 98 740 c 1
 181 782 l 1
 202 750 l 2
 233 702 253 673 292 673 c 0
 331 673 351 702 382 750 c 2
 403 782 l 1
 486 740 l 1
 461 668 412 570 292 570 c 0x05
292 -203 m 0x8080
 233 -203 211 -176 211 -141 c 2
 211 -115 l 2
 211 -79 233 -52 292 -52 c 0
 351 -52 373 -79 373 -115 c 2
 373 -141 l 2
 373 -176 351 -203 292 -203 c 0x8080
EndSplineSet
Validated: 1
Substitution2: "'salt' Stylistic Alternatives lookup 23 subtable" uni1EB7.alt01
Substitution2: "'ss01' Style Set 1 lookup 16 subtable" uni1EB7.alt01
Substitution2: "'aalt' Access All Alternates lookup 0 subtable" uni1EB7.alt01
EndChar

StartChar: uni1EB1
Encoding: 7857 7857 210
Width: 600
GlyphClass: 2
Flags: MW
HStem: -12 97<250.5 257.5> 0 107<456.5 572 515 572 515 572> 221 80<284 288 288 367> 420 108<242 307> 563 101<271 313 271 353>
VStem: 52 145<122 140 140 160 122 196> 90 404<712 712> 367 148<159 221 221 221 301 327 327 333 107 357.5>
AnchorPoint: "Anchor-1" 572 0 basechar 0
AnchorPoint: "Anchor-0" 292 0 basechar 0
LayerCount: 2
Fore
SplineSet
572 0 m 1x75
 487 0 l 2x75
 426 0 386 33 380 91 c 1
 375 91 l 1
 357 24 297 -12 218 -12 c 0xb5
 118 -12 52 45 52 142 c 0
 52 250 133 301 284 301 c 2
 367 301 l 1
 367 327 l 2
 367 388 341 420 273 420 c 0
 211 420 175 393 147 355 c 1
 66 427 l 1
 100 485 175 528 290 528 c 0
 431 528 515 463 515 333 c 2
 515 107 l 1
 572 107 l 1
 572 0 l 1x75
274 85 m 0xb5
 326 85 367 111 367 159 c 2
 367 221 l 1
 288 221 l 2
 229 221 197 200 197 160 c 2
 197 140 l 2
 197 104 227 85 274 85 c 0xb5
292 563 m 0x0a
 170 563 116 644 90 712 c 1
 165 759 l 1
 186 731 l 2
 225 679 250 664 292 664 c 0
 334 664 359 679 398 731 c 2
 419 759 l 1
 494 712 l 1
 468 644 414 563 292 563 c 0x0a
273 724 m 1
 139 900 l 1
 253 957 l 1
 352 763 l 1
 273 724 l 1
EndSplineSet
Validated: 1
Substitution2: "'salt' Stylistic Alternatives lookup 23 subtable" uni1EB1.alt01
Substitution2: "'ss01' Style Set 1 lookup 16 subtable" uni1EB1.alt01
Substitution2: "'aalt' Access All Alternates lookup 0 subtable" uni1EB1.alt01
EndChar

StartChar: uni1EB3
Encoding: 7859 7859 211
Width: 600
GlyphClass: 2
Flags: MW
HStem: -12 97<250.5 257.5> 0 107<456.5 572 515 572 515 572> 221 80<284 288 288 367> 420 108<242 307> 563 101<271 313 271 353> 842 101<162 298 162 284>
VStem: 52 145<122 140 140 160 122 196> 284 112<842 890> 367 148<159 221 221 221 301 327 327 333 107 357.5>
AnchorPoint: "Anchor-1" 572 0 basechar 0
AnchorPoint: "Anchor-0" 292 0 basechar 0
LayerCount: 2
Fore
SplineSet
572 0 m 1x7280
 487 0 l 2x7280
 426 0 386 33 380 91 c 1
 375 91 l 1
 357 24 297 -12 218 -12 c 0xb280
 118 -12 52 45 52 142 c 0
 52 250 133 301 284 301 c 2
 367 301 l 1
 367 327 l 2
 367 388 341 420 273 420 c 0
 211 420 175 393 147 355 c 1
 66 427 l 1
 100 485 175 528 290 528 c 0
 431 528 515 463 515 333 c 2
 515 107 l 1
 572 107 l 1
 572 0 l 1x7280
274 85 m 0xb280
 326 85 367 111 367 159 c 2
 367 221 l 1
 288 221 l 2
 229 221 197 200 197 160 c 2
 197 140 l 2
 197 104 227 85 274 85 c 0xb280
292 563 m 0x0d
 170 563 116 644 90 712 c 1
 165 759 l 1
 186 731 l 2
 225 679 250 664 292 664 c 0
 334 664 359 679 398 731 c 2
 419 759 l 1
 494 712 l 1
 468 644 414 563 292 563 c 0x0d
162 842 m 1
 162 943 l 1
 298 943 l 2
 373 943 396 909 396 871 c 0
 396 831 367 785 334 744 c 2
 307 711 l 1
 241 743 l 1
 284 842 l 1
 162 842 l 1
EndSplineSet
Validated: 1
Substitution2: "'salt' Stylistic Alternatives lookup 23 subtable" uni1EB3.alt01
Substitution2: "'ss01' Style Set 1 lookup 16 subtable" uni1EB3.alt01
Substitution2: "'aalt' Access All Alternates lookup 0 subtable" uni1EB3.alt01
EndChar

StartChar: uni1EB5
Encoding: 7861 7861 212
Width: 600
GlyphClass: 2
Flags: MW
HStem: -12 97<250.5 257.5> 0 107<456.5 572 515 572 515 572> 221 80<284 288 288 367> 420 108<242 307> 563 101<271 313 271 353> 778 103<359 383.5 359 393.5> 820 103<200.5 225>
VStem: 52 145<122 140 140 160 122 196> 90 404<712 712> 367 148<159 221 221 221 301 327 327 333 107 357.5>
AnchorPoint: "Anchor-1" 572 0 basechar 0
AnchorPoint: "Anchor-0" 292 0 basechar 0
LayerCount: 2
Fore
SplineSet
572 0 m 1x7140
 487 0 l 2x7140
 426 0 386 33 380 91 c 1
 375 91 l 1
 357 24 297 -12 218 -12 c 0xb140
 118 -12 52 45 52 142 c 0
 52 250 133 301 284 301 c 2
 367 301 l 1
 367 327 l 2
 367 388 341 420 273 420 c 0
 211 420 175 393 147 355 c 1
 66 427 l 1
 100 485 175 528 290 528 c 0
 431 528 515 463 515 333 c 2
 515 107 l 1
 572 107 l 1
 572 0 l 1x7140
274 85 m 0xb140
 326 85 367 111 367 159 c 2
 367 221 l 1
 288 221 l 2
 229 221 197 200 197 160 c 2
 197 140 l 2
 197 104 227 85 274 85 c 0xb140
292 563 m 0x0c80
 170 563 116 644 90 712 c 1
 165 759 l 1
 186 731 l 2
 225 679 250 664 292 664 c 0
 334 664 359 679 398 731 c 2
 419 759 l 1
 494 712 l 1
 468 644 414 563 292 563 c 0x0c80
367 778 m 0
 337 778 315 787 290 798 c 0
 261 810 238 820 212 820 c 0
 189 820 174 812 153 795 c 1
 103 859 l 1
 127 895 164 923 217 923 c 0x0a80
 247 923 269 914 294 903 c 0
 323 891 346 881 372 881 c 0
 395 881 410 889 431 906 c 1
 481 842 l 1
 457 806 420 778 367 778 c 0
EndSplineSet
Validated: 1
Substitution2: "'salt' Stylistic Alternatives lookup 23 subtable" uni1EB5.alt01
Substitution2: "'ss01' Style Set 1 lookup 16 subtable" uni1EB5.alt01
Substitution2: "'aalt' Access All Alternates lookup 0 subtable" uni1EB5.alt01
EndChar

StartChar: uni1EA5
Encoding: 7845 7845 213
Width: 600
GlyphClass: 2
Flags: MW
HStem: -12 97<250.5 257.5> 0 107<456.5 572 515 572 515 572> 221 80<284 288 288 367> 420 108<242 307> 561 396<166 485 414 485>
VStem: 52 145<122 140 140 160 122 196> 100 499<625 900> 367 148<159 221 221 221 301 327 327 333 107 357.5>
AnchorPoint: "Anchor-1" 572 0 basechar 0
AnchorPoint: "Anchor-0" 292 0 basechar 0
LayerCount: 2
Fore
SplineSet
572 0 m 1x75
 487 0 l 2x75
 426 0 386 33 380 91 c 1
 375 91 l 1
 357 24 297 -12 218 -12 c 0xb5
 118 -12 52 45 52 142 c 0
 52 250 133 301 284 301 c 2
 367 301 l 1
 367 327 l 2
 367 388 341 420 273 420 c 0
 211 420 175 393 147 355 c 1
 66 427 l 1
 100 485 175 528 290 528 c 0
 431 528 515 463 515 333 c 2
 515 107 l 1
 572 107 l 1
 572 0 l 1x75
274 85 m 0xb5
 326 85 367 111 367 159 c 2
 367 221 l 1
 288 221 l 2
 229 221 197 200 197 160 c 2
 197 140 l 2
 197 104 227 85 274 85 c 0xb5
599 900 m 1x0a
 465 724 l 1
 386 763 l 1
 485 957 l 1
 599 900 l 1x0a
245 772 m 1
 339 772 l 1
 484 625 l 1
 414 561 l 1
 290 665 l 1
 166 561 l 1
 100 625 l 1
 245 772 l 1
EndSplineSet
Validated: 1
Substitution2: "'salt' Stylistic Alternatives lookup 23 subtable" uni1EA5.alt01
Substitution2: "'ss01' Style Set 1 lookup 16 subtable" uni1EA5.alt01
Substitution2: "'aalt' Access All Alternates lookup 0 subtable" uni1EA5.alt01
EndChar

StartChar: uni1EAD
Encoding: 7853 7853 214
Width: 600
GlyphClass: 2
Flags: MW
HStem: -203 151<262.5 321.5> -12 97<250.5 257.5> 0 107<456.5 572 515 572 515 572> 221 80<284 288 288 367> 420 108<242 307> 569 217<169 354 230 411>
VStem: 52 145<122 140 140 160 122 196> 98 388<627 627> 211 162<-141 -115 -158.5 -97> 367 148<159 221 221 221 301 327 327 333 107 357.5>
AnchorPoint: "Anchor-1" 572 0 basechar 0
LayerCount: 2
Fore
SplineSet
572 0 m 1x3a40
 487 0 l 2x3a40
 426 0 386 33 380 91 c 1
 375 91 l 1
 357 24 297 -12 218 -12 c 0x5a40
 118 -12 52 45 52 142 c 0
 52 250 133 301 284 301 c 2
 367 301 l 1
 367 327 l 2
 367 388 341 420 273 420 c 0
 211 420 175 393 147 355 c 1
 66 427 l 1
 100 485 175 528 290 528 c 0
 431 528 515 463 515 333 c 2
 515 107 l 1
 572 107 l 1
 572 0 l 1x3a40
274 85 m 0x5a40
 326 85 367 111 367 159 c 2
 367 221 l 1
 288 221 l 2
 229 221 197 200 197 160 c 2
 197 140 l 2
 197 104 227 85 274 85 c 0x5a40
230 786 m 1x05
 354 786 l 1
 486 627 l 1
 411 569 l 1
 290 684 l 1
 169 569 l 1
 98 627 l 1
 230 786 l 1x05
292 -203 m 0x8080
 233 -203 211 -176 211 -141 c 2
 211 -115 l 2
 211 -79 233 -52 292 -52 c 0
 351 -52 373 -79 373 -115 c 2
 373 -141 l 2
 373 -176 351 -203 292 -203 c 0x8080
EndSplineSet
Validated: 1
Substitution2: "'salt' Stylistic Alternatives lookup 23 subtable" uni1EAD.alt01
Substitution2: "'ss01' Style Set 1 lookup 16 subtable" uni1EAD.alt01
Substitution2: "'aalt' Access All Alternates lookup 0 subtable" uni1EAD.alt01
EndChar

StartChar: uni1EA7
Encoding: 7847 7847 215
Width: 600
GlyphClass: 2
Flags: MW
HStem: -12 97<250.5 257.5> 0 107<456.5 572 515 572 515 572> 221 80<284 288 288 367> 420 108<242 307> 561 396<99 166 99 414>
VStem: -15 499<625 900> 52 145<122 140 140 160 122 196> 367 148<159 221 221 221 301 327 327 333 107 357.5>
AnchorPoint: "Anchor-1" 572 0 basechar 0
AnchorPoint: "Anchor-0" 292 0 basechar 0
LayerCount: 2
Fore
SplineSet
572 0 m 1x73
 487 0 l 2x73
 426 0 386 33 380 91 c 1
 375 91 l 1
 357 24 297 -12 218 -12 c 0xb3
 118 -12 52 45 52 142 c 0
 52 250 133 301 284 301 c 2
 367 301 l 1
 367 327 l 2
 367 388 341 420 273 420 c 0
 211 420 175 393 147 355 c 1
 66 427 l 1
 100 485 175 528 290 528 c 0
 431 528 515 463 515 333 c 2
 515 107 l 1
 572 107 l 1
 572 0 l 1x73
274 85 m 0xb3
 326 85 367 111 367 159 c 2
 367 221 l 1
 288 221 l 2
 229 221 197 200 197 160 c 2
 197 140 l 2
 197 104 227 85 274 85 c 0xb3
119 724 m 1x0c
 -15 900 l 1
 99 957 l 1
 198 763 l 1
 119 724 l 1x0c
245 772 m 1
 339 772 l 1
 484 625 l 1
 414 561 l 1
 290 665 l 1
 166 561 l 1
 100 625 l 1
 245 772 l 1
EndSplineSet
Validated: 1
Substitution2: "'salt' Stylistic Alternatives lookup 23 subtable" uni1EA7.alt01
Substitution2: "'ss01' Style Set 1 lookup 16 subtable" uni1EA7.alt01
Substitution2: "'aalt' Access All Alternates lookup 0 subtable" uni1EA7.alt01
EndChar

StartChar: uni1EA9
Encoding: 7849 7849 216
Width: 600
GlyphClass: 2
Flags: MW
HStem: -12 97<250.5 257.5> 0 107<456.5 572 515 572 515 572> 221 80<284 288 288 367> 420 108<242 307> 842 101<330 464 330 449>
VStem: 52 145<122 140 140 160 122 196> 367 148<159 221 221 221 301 327 327 333 107 357.5> 449 113<842 890>
AnchorPoint: "Anchor-1" 572 0 basechar 0
AnchorPoint: "Anchor-0" 292 0 basechar 0
LayerCount: 2
Fore
SplineSet
572 0 m 1x76
 487 0 l 2x76
 426 0 386 33 380 91 c 1
 375 91 l 1
 357 24 297 -12 218 -12 c 0xb6
 118 -12 52 45 52 142 c 0
 52 250 133 301 284 301 c 2
 367 301 l 1
 367 327 l 2
 367 388 341 420 273 420 c 0
 211 420 175 393 147 355 c 1
 66 427 l 1
 100 485 175 528 290 528 c 0
 431 528 515 463 515 333 c 2
 515 107 l 1
 572 107 l 1
 572 0 l 1x76
274 85 m 0xb6
 326 85 367 111 367 159 c 2
 367 221 l 1
 288 221 l 2
 229 221 197 200 197 160 c 2
 197 140 l 2
 197 104 227 85 274 85 c 0xb6
330 842 m 1x09
 330 943 l 1
 464 943 l 2
 538 943 562 909 562 871 c 0
 562 831 532 784 499 744 c 2
 472 711 l 1
 406 745 l 1
 449 842 l 1
 330 842 l 1x09
245 772 m 1
 339 772 l 1
 484 625 l 1
 414 561 l 1
 290 665 l 1
 166 561 l 1
 100 625 l 1
 245 772 l 1
EndSplineSet
Validated: 1
Substitution2: "'salt' Stylistic Alternatives lookup 23 subtable" uni1EA9.alt01
Substitution2: "'ss01' Style Set 1 lookup 16 subtable" uni1EA9.alt01
Substitution2: "'aalt' Access All Alternates lookup 0 subtable" uni1EA9.alt01
EndChar

StartChar: uni1EAB
Encoding: 7851 7851 217
Width: 600
GlyphClass: 2
Flags: MW
HStem: -12 97<250.5 257.5> 0 107<456.5 572 515 572 515 572> 221 80<284 288 288 367> 420 108<242 307> 788 103<359 383.5 359 393.5> 830 103<200.5 225>
VStem: 52 145<122 140 140 160 122 196> 102 380<625 625> 367 148<159 221 221 221 301 327 327 333 107 357.5>
AnchorPoint: "Anchor-1" 572 0 basechar 0
AnchorPoint: "Anchor-0" 292 0 basechar 0
LayerCount: 2
Fore
SplineSet
572 0 m 1x7280
 487 0 l 2x7280
 426 0 386 33 380 91 c 1
 375 91 l 1
 357 24 297 -12 218 -12 c 0xb280
 118 -12 52 45 52 142 c 0
 52 250 133 301 284 301 c 2
 367 301 l 1
 367 327 l 2
 367 388 341 420 273 420 c 0
 211 420 175 393 147 355 c 1
 66 427 l 1
 100 485 175 528 290 528 c 0
 431 528 515 463 515 333 c 2
 515 107 l 1
 572 107 l 1
 572 0 l 1x7280
274 85 m 0xb280
 326 85 367 111 367 159 c 2
 367 221 l 1
 288 221 l 2
 229 221 197 200 197 160 c 2
 197 140 l 2
 197 104 227 85 274 85 c 0xb280
217 933 m 0x05
 247 933 269 924 294 913 c 0
 323 901 346 891 372 891 c 0
 395 891 410 899 431 916 c 1
 481 852 l 1
 457 816 420 788 367 788 c 0x09
 337 788 315 797 290 808 c 0
 261 820 238 830 212 830 c 0
 189 830 174 822 153 805 c 1
 103 869 l 1
 127 905 164 933 217 933 c 0x05
244 759 m 1
 340 759 l 1
 482 625 l 1
 415 561 l 1
 291 656 l 1
 167 561 l 1
 102 625 l 1
 244 759 l 1
EndSplineSet
Validated: 1
Substitution2: "'salt' Stylistic Alternatives lookup 23 subtable" uni1EAB.alt01
Substitution2: "'ss01' Style Set 1 lookup 16 subtable" uni1EAB.alt01
Substitution2: "'aalt' Access All Alternates lookup 0 subtable" uni1EAB.alt01
EndChar

StartChar: aacute.alt01
Encoding: 65555 -1 218
Width: 600
GlyphClass: 2
Flags: MW
HStem: -12 115<264 274.5> 0 21G<393 393 393 541> 413 115<264 274.5 176 323> 496 20G<393 541 541 541> 570 237<307 318>
VStem: 39 154<182 218 218 298 182 351.5> 219 222<613 746> 393 148<0 94 94 94 182 334 334 361 422 516 0 516>
AnchorPoint: "Anchor-1" 541 0 basechar 0
AnchorPoint: "Anchor-0" 291 0 basechar 0
LayerCount: 2
Fore
SplineSet
393 0 m 1x55
 393 94 l 1
 386 94 l 1
 360 32 316 -12 233 -12 c 0
 119 -12 39 71 39 258 c 0
 39 445 119 528 233 528 c 0xa5
 316 528 360 484 386 422 c 1
 393 422 l 1
 393 516 l 1
 541 516 l 1
 541 0 l 1
 393 0 l 1x55
297 103 m 0xa5
 349 103 393 128 393 182 c 2
 393 334 l 2
 393 388 349 413 297 413 c 0
 231 413 193 370 193 298 c 2
 193 218 l 2
 193 146 231 103 297 103 c 0xa5
441 746 m 1x0a
 307 570 l 1
 219 613 l 1
 318 807 l 1
 441 746 l 1x0a
EndSplineSet
Validated: 1
EndChar

StartChar: abreve.alt01
Encoding: 65556 -1 219
Width: 600
GlyphClass: 2
Flags: MW
HStem: -12 115<264 274.5> 0 21G<393 393 393 541> 413 115<264 274.5 176 323> 496 20G<393 541 541 541> 570 103<271.5 310.5 271.5 351>
VStem: 39 154<182 218 218 298 182 351.5> 97 388<740 740> 393 148<0 94 94 94 182 334 334 361 422 516 0 516>
AnchorPoint: "Anchor-1" 541 0 basechar 0
AnchorPoint: "Anchor-0" 291 0 basechar 0
LayerCount: 2
Fore
SplineSet
393 0 m 1x55
 393 94 l 1
 386 94 l 1
 360 32 316 -12 233 -12 c 0
 119 -12 39 71 39 258 c 0
 39 445 119 528 233 528 c 0xa5
 316 528 360 484 386 422 c 1
 393 422 l 1
 393 516 l 1
 541 516 l 1
 541 0 l 1
 393 0 l 1x55
297 103 m 0xa5
 349 103 393 128 393 182 c 2
 393 334 l 2
 393 388 349 413 297 413 c 0
 231 413 193 370 193 298 c 2
 193 218 l 2
 193 146 231 103 297 103 c 0xa5
291 570 m 0x0a
 171 570 122 668 97 740 c 1
 180 782 l 1
 201 750 l 2
 232 702 252 673 291 673 c 0
 330 673 350 702 381 750 c 2
 402 782 l 1
 485 740 l 1
 460 668 411 570 291 570 c 0x0a
EndSplineSet
Validated: 1
EndChar

StartChar: uni01CE.alt01
Encoding: 65557 -1 220
Width: 600
GlyphClass: 2
Flags: MW
HStem: -12 115<264 274.5> 0 21G<393 393 393 541> 413 115<264 274.5 176 323> 496 20G<393 541 541 541> 578 217<172 353 172 229>
VStem: 39 154<182 218 218 298 182 351.5> 97 388<737 737> 393 148<0 94 94 94 182 334 334 361 422 516 0 516>
AnchorPoint: "Anchor-1" 541 0 basechar 0
AnchorPoint: "Anchor-0" 291 0 basechar 0
LayerCount: 2
Fore
SplineSet
393 0 m 1x55
 393 94 l 1
 386 94 l 1
 360 32 316 -12 233 -12 c 0
 119 -12 39 71 39 258 c 0
 39 445 119 528 233 528 c 0xa5
 316 528 360 484 386 422 c 1
 393 422 l 1
 393 516 l 1
 541 516 l 1
 541 0 l 1
 393 0 l 1x55
297 103 m 0xa5
 349 103 393 128 393 182 c 2
 393 334 l 2
 393 388 349 413 297 413 c 0
 231 413 193 370 193 298 c 2
 193 218 l 2
 193 146 231 103 297 103 c 0xa5
353 578 m 1x0a
 229 578 l 1
 97 737 l 1
 172 795 l 1
 293 680 l 1
 414 795 l 1
 485 737 l 1
 353 578 l 1x0a
EndSplineSet
Validated: 1
EndChar

StartChar: acircumflex.alt01
Encoding: 65558 -1 221
Width: 600
GlyphClass: 2
Flags: MW
HStem: -12 115<264 274.5> 0 21G<393 393 393 541> 413 115<264 274.5 176 323> 496 20G<393 541 541 541> 569 217<168 353 229 410>
VStem: 39 154<182 218 218 298 182 351.5> 97 388<627 627> 393 148<0 94 94 94 182 334 334 361 422 516 0 516>
AnchorPoint: "Anchor-1" 541 0 basechar 0
AnchorPoint: "Anchor-0" 291 0 basechar 0
LayerCount: 2
Fore
SplineSet
393 0 m 1x55
 393 94 l 1
 386 94 l 1
 360 32 316 -12 233 -12 c 0
 119 -12 39 71 39 258 c 0
 39 445 119 528 233 528 c 0xa5
 316 528 360 484 386 422 c 1
 393 422 l 1
 393 516 l 1
 541 516 l 1
 541 0 l 1
 393 0 l 1x55
297 103 m 0xa5
 349 103 393 128 393 182 c 2
 393 334 l 2
 393 388 349 413 297 413 c 0
 231 413 193 370 193 298 c 2
 193 218 l 2
 193 146 231 103 297 103 c 0xa5
229 786 m 1x0a
 353 786 l 1
 485 627 l 1
 410 569 l 1
 289 684 l 1
 168 569 l 1
 97 627 l 1
 229 786 l 1x0a
EndSplineSet
Validated: 1
EndChar

StartChar: adieresis.alt01
Encoding: 65559 -1 222
Width: 600
GlyphClass: 2
Flags: MW
HStem: -12 115<264 274.5> 0 21G<393 393 393 541> 413 115<264 274.5 176 323> 496 20G<393 541 541 541> 591 151<151.5 211 371 430.5>
VStem: 39 154<182 218 218 298 182 351.5> 101 161<654 680 636.5 697.5> 320 161<654 680 636.5 697.5> 393 148<0 94 94 94 182 334 334 361 422 516 0 516>
AnchorPoint: "Anchor-1" 541 0 basechar 0
AnchorPoint: "Anchor-0" 291 0 basechar 0
LayerCount: 2
Fore
SplineSet
393 0 m 1x5480
 393 94 l 1
 386 94 l 1
 360 32 316 -12 233 -12 c 0
 119 -12 39 71 39 258 c 0
 39 445 119 528 233 528 c 0xa480
 316 528 360 484 386 422 c 1
 393 422 l 1
 393 516 l 1
 541 516 l 1
 541 0 l 1
 393 0 l 1x5480
297 103 m 0xa480
 349 103 393 128 393 182 c 2
 393 334 l 2
 393 388 349 413 297 413 c 0
 231 413 193 370 193 298 c 2
 193 218 l 2
 193 146 231 103 297 103 c 0xa480
181 591 m 0x0b
 122 591 101 619 101 654 c 2
 101 680 l 2
 101 715 122 742 181 742 c 0
 241 742 262 715 262 680 c 2
 262 654 l 2
 262 619 241 591 181 591 c 0x0b
401 591 m 0
 341 591 320 619 320 654 c 2
 320 680 l 2
 320 715 341 742 401 742 c 0
 460 742 481 715 481 680 c 2
 481 654 l 2
 481 619 460 591 401 591 c 0
EndSplineSet
Validated: 1
EndChar

StartChar: uni1EA1.alt01
Encoding: 65560 -1 223
Width: 600
GlyphClass: 2
Flags: MW
HStem: -203 151<261.5 320.5> -12 115<264 274.5> 0 21G<393 393 393 541> 413 115<264 274.5 176 323> 496 20G<393 541 541 541>
VStem: 39 154<182 218 218 298 182 351.5> 210 162<-141 -115 -158.5 -97> 393 148<0 94 94 94 182 334 334 361 422 516 0 516>
AnchorPoint: "Anchor-2" 291 516 basechar 0
AnchorPoint: "Anchor-1" 541 0 basechar 0
LayerCount: 2
Fore
SplineSet
393 0 m 1x2d
 393 94 l 1
 386 94 l 1
 360 32 316 -12 233 -12 c 0
 119 -12 39 71 39 258 c 0
 39 445 119 528 233 528 c 0x55
 316 528 360 484 386 422 c 1
 393 422 l 1
 393 516 l 1
 541 516 l 1
 541 0 l 1
 393 0 l 1x2d
297 103 m 0x55
 349 103 393 128 393 182 c 2
 393 334 l 2
 393 388 349 413 297 413 c 0
 231 413 193 370 193 298 c 2
 193 218 l 2
 193 146 231 103 297 103 c 0x55
291 -203 m 0x82
 232 -203 210 -176 210 -141 c 2
 210 -115 l 2
 210 -79 232 -52 291 -52 c 0
 350 -52 372 -79 372 -115 c 2
 372 -141 l 2
 372 -176 350 -203 291 -203 c 0x82
EndSplineSet
Validated: 1
EndChar

StartChar: agrave.alt01
Encoding: 65561 -1 224
Width: 600
GlyphClass: 2
Flags: MW
HStem: -12 115<264 274.5> 0 21G<393 393 393 541> 413 115<264 274.5 176 323> 496 20G<393 541 541 541> 570 237<264 275>
VStem: 39 154<182 218 218 298 182 351.5> 141 222<613 746> 393 148<0 94 94 94 182 334 334 361 422 516 0 516>
AnchorPoint: "Anchor-1" 541 0 basechar 0
AnchorPoint: "Anchor-0" 291 0 basechar 0
LayerCount: 2
Fore
SplineSet
393 0 m 1x55
 393 94 l 1
 386 94 l 1
 360 32 316 -12 233 -12 c 0
 119 -12 39 71 39 258 c 0
 39 445 119 528 233 528 c 0xa5
 316 528 360 484 386 422 c 1
 393 422 l 1
 393 516 l 1
 541 516 l 1
 541 0 l 1
 393 0 l 1x55
297 103 m 0xa5
 349 103 393 128 393 182 c 2
 393 334 l 2
 393 388 349 413 297 413 c 0
 231 413 193 370 193 298 c 2
 193 218 l 2
 193 146 231 103 297 103 c 0xa5
275 570 m 1x0a
 141 746 l 1
 264 807 l 1
 363 613 l 1
 275 570 l 1x0a
EndSplineSet
Validated: 1
EndChar

StartChar: uni1EA3.alt01
Encoding: 65562 -1 225
Width: 600
GlyphClass: 2
Flags: MW
HStem: -12 115<264 274.5> 0 21G<393 393 393 541> 413 115<264 274.5 176 323> 496 20G<393 541 541 541> 687 106<171 314 171 293>
VStem: 39 154<182 218 218 298 182 351.5> 293 119<687 739.5> 393 148<0 94 94 94 182 334 334 361 422 516 0 516>
AnchorPoint: "Anchor-1" 541 0 basechar 0
AnchorPoint: "Anchor-0" 291 0 basechar 0
LayerCount: 2
Fore
SplineSet
393 0 m 1x55
 393 94 l 1
 386 94 l 1
 360 32 316 -12 233 -12 c 0
 119 -12 39 71 39 258 c 0
 39 445 119 528 233 528 c 0xa5
 316 528 360 484 386 422 c 1
 393 422 l 1
 393 516 l 1
 541 516 l 1
 541 0 l 1
 393 0 l 1x55
297 103 m 0xa5
 349 103 393 128 393 182 c 2
 393 334 l 2
 393 388 349 413 297 413 c 0
 231 413 193 370 193 298 c 2
 193 218 l 2
 193 146 231 103 297 103 c 0xa5
171 687 m 1x0a
 171 793 l 1
 314 793 l 2
 389 793 412 759 412 720 c 0
 412 681 388 634 355 594 c 2
 327 560 l 1
 252 595 l 1
 293 687 l 1
 171 687 l 1x0a
EndSplineSet
Validated: 1
EndChar

StartChar: amacron.alt01
Encoding: 65563 -1 226
Width: 600
GlyphClass: 2
Flags: MW
HStem: -12 115<264 274.5> 0 21G<393 393 393 541> 413 115<264 274.5 176 323> 496 20G<393 541 541 541> 615 103<138 444 138 444>
VStem: 39 154<182 218 218 298 182 351.5> 138 306<615 718 615 718> 393 148<0 94 94 94 182 334 334 361 422 516 0 516>
AnchorPoint: "Anchor-1" 541 0 basechar 0
AnchorPoint: "Anchor-0" 291 0 basechar 0
LayerCount: 2
Fore
SplineSet
393 0 m 1x55
 393 94 l 1
 386 94 l 1
 360 32 316 -12 233 -12 c 0
 119 -12 39 71 39 258 c 0
 39 445 119 528 233 528 c 0xa5
 316 528 360 484 386 422 c 1
 393 422 l 1
 393 516 l 1
 541 516 l 1
 541 0 l 1
 393 0 l 1x55
297 103 m 0xa5
 349 103 393 128 393 182 c 2
 393 334 l 2
 393 388 349 413 297 413 c 0
 231 413 193 370 193 298 c 2
 193 218 l 2
 193 146 231 103 297 103 c 0xa5
138 615 m 1x0a
 138 718 l 1
 444 718 l 1
 444 615 l 1
 138 615 l 1x0a
EndSplineSet
Validated: 1
EndChar

StartChar: aogonek.alt01
Encoding: 65564 -1 227
Width: 600
GlyphClass: 2
Flags: MW
HStem: -212 74<455 477 455 482.5> -12 115<264 274.5> 0 21G<393 445 393 393 541 541> 413 115<264 274.5 176 323> 496 20G<393 541 541 541>
VStem: 39 154<182 218 218 298 182 351.5> 327 100<-117.5 -99> 393 148<0 94 94 94 182 334 334 361 422 516 0 516>
AnchorPoint: "Anchor-2" 291 516 basechar 0
AnchorPoint: "Anchor-0" 291 0 basechar 0
LayerCount: 2
Fore
SplineSet
451 -212 m 0xb6
 385 -212 327 -191 327 -127 c 0xd6
 327 -71 372 -38 446 -4 c 1
 445 0 l 1
 393 0 l 1xb5
 393 94 l 1
 386 94 l 1
 360 32 316 -12 233 -12 c 0
 119 -12 39 71 39 258 c 0
 39 445 119 528 233 528 c 0xd5
 316 528 360 484 386 422 c 1
 393 422 l 1
 393 516 l 1
 541 516 l 1
 541 0 l 1xad
 443 -60 427 -81 427 -105 c 0
 427 -130 445 -138 465 -138 c 0
 489 -138 506 -126 520 -110 c 1
 573 -161 l 1
 556 -193 514 -212 451 -212 c 0xb6
297 103 m 0
 349 103 393 128 393 182 c 2
 393 334 l 2xd5
 393 388 349 413 297 413 c 0
 231 413 193 370 193 298 c 2
 193 218 l 2
 193 146 231 103 297 103 c 0
EndSplineSet
Validated: 1
EndChar

StartChar: aring.alt01
Encoding: 65565 -1 228
Width: 600
GlyphClass: 2
Flags: MW
HStem: -12 115<264 274.5> 0 21G<393 393 393 541> 413 115<264 274.5 176 323> 496 20G<393 541 541 541> 549 75<274.5 307.5 274.5 332.5> 760 75<274.5 307.5>
VStem: 39 154<182 218 218 298 182 351.5> 143 97<659 675 675 709 659 733> 342 97<675 709 709 725> 393 148<0 94 94 94 182 334 334 361 422 516 0 516>
AnchorPoint: "Anchor-1" 541 0 basechar 0
AnchorPoint: "Anchor-0" 291 0 basechar 0
LayerCount: 2
Fore
SplineSet
393 0 m 1x5240
 393 94 l 1
 386 94 l 1
 360 32 316 -12 233 -12 c 0
 119 -12 39 71 39 258 c 0
 39 445 119 528 233 528 c 0xa240
 316 528 360 484 386 422 c 1
 393 422 l 1
 393 516 l 1
 541 516 l 1
 541 0 l 1
 393 0 l 1x5240
297 103 m 0xa240
 349 103 393 128 393 182 c 2
 393 334 l 2
 393 388 349 413 297 413 c 0
 231 413 193 370 193 298 c 2
 193 218 l 2
 193 146 231 103 297 103 c 0xa240
291 549 m 0x0d80
 208 549 143 609 143 692 c 0
 143 774 208 835 291 835 c 0
 374 835 439 775 439 692 c 0
 439 610 374 549 291 549 c 0x0d80
291 624 m 0
 324 624 342 644 342 675 c 2
 342 709 l 2
 342 741 324 760 291 760 c 0
 258 760 240 740 240 709 c 2
 240 675 l 2
 240 643 258 624 291 624 c 0
EndSplineSet
Validated: 1
EndChar

StartChar: aringacute.alt01
Encoding: 65566 -1 229
Width: 600
GlyphClass: 2
Flags: MW
HStem: -12 115<264 274.5> 0 21G<393 393 393 541> 413 115<264 274.5 176 323> 496 20G<393 541 541 541> 555 70<273 309 273 333.5> 725 70<273 309>
VStem: 39 154<182 218 218 298 182 351.5> 139 97<654 670 670 680 654 712.5> 346 97<670 680 680 696> 393 148<0 94 94 94 182 334 334 361 422 516 0 516>
AnchorPoint: "Anchor-1" 541 0 basechar 0
AnchorPoint: "Anchor-0" 291 0 basechar 0
LayerCount: 2
Fore
SplineSet
393 0 m 1x5240
 393 94 l 1
 386 94 l 1
 360 32 316 -12 233 -12 c 0
 119 -12 39 71 39 258 c 0
 39 445 119 528 233 528 c 0xa240
 316 528 360 484 386 422 c 1
 393 422 l 1
 393 516 l 1
 541 516 l 1
 541 0 l 1
 393 0 l 1x5240
297 103 m 0xa240
 349 103 393 128 393 182 c 2
 393 334 l 2
 393 388 349 413 297 413 c 0
 231 413 193 370 193 298 c 2
 193 218 l 2
 193 146 231 103 297 103 c 0xa240
434 899 m 1x0d80
 284 806 l 1
 231 863 l 1
 360 980 l 1
 434 899 l 1x0d80
291 555 m 0
 206 555 139 599 139 675 c 0
 139 750 206 795 291 795 c 0
 376 795 443 751 443 675 c 0
 443 600 376 555 291 555 c 0
291 625 m 0
 327 625 346 639 346 670 c 2
 346 680 l 2
 346 712 327 725 291 725 c 0
 255 725 236 711 236 680 c 2
 236 670 l 2
 236 638 255 625 291 625 c 0
EndSplineSet
Validated: 1
EndChar

StartChar: atilde.alt01
Encoding: 65567 -1 230
Width: 600
GlyphClass: 2
Flags: MW
HStem: -12 115<264 274.5> 0 21G<393 393 393 541> 413 115<264 274.5 176 323> 496 20G<393 541 541 541> 592 107<357 381.5 357 393.5> 634 107<200.5 225>
VStem: 39 154<182 218 218 298 182 351.5> 101 380<656 677> 393 148<0 94 94 94 182 334 334 361 422 516 0 516>
AnchorPoint: "Anchor-1" 541 0 basechar 0
AnchorPoint: "Anchor-0" 291 0 basechar 0
LayerCount: 2
Fore
SplineSet
393 0 m 1x5280
 393 94 l 1
 386 94 l 1
 360 32 316 -12 233 -12 c 0
 119 -12 39 71 39 258 c 0
 39 445 119 528 233 528 c 0xa280
 316 528 360 484 386 422 c 1
 393 422 l 1
 393 516 l 1
 541 516 l 1
 541 0 l 1
 393 0 l 1x5280
297 103 m 0xa280
 349 103 393 128 393 182 c 2
 393 334 l 2
 393 388 349 413 297 413 c 0
 231 413 193 370 193 298 c 2
 193 218 l 2
 193 146 231 103 297 103 c 0xa280
367 592 m 0x09
 337 592 315 601 290 612 c 0
 261 624 238 634 212 634 c 0
 189 634 174 626 153 609 c 1
 101 677 l 1
 125 713 162 741 215 741 c 0x05
 245 741 267 732 292 721 c 0
 321 709 344 699 370 699 c 0
 393 699 408 707 429 724 c 1
 481 656 l 1
 457 620 420 592 367 592 c 0x09
EndSplineSet
Validated: 1
EndChar

StartChar: uni1EAF.alt01
Encoding: 65568 -1 231
Width: 600
GlyphClass: 2
Flags: MW
HStem: -12 115<264 274.5> 0 21G<393 393 393 541> 413 115<264 274.5 176 323> 496 20G<393 541 541 541> 563 101<270 312 270 352>
VStem: 39 154<182 218 218 298 182 351.5> 89 404<712 712> 393 148<0 94 94 94 182 334 334 361 422 516 0 516>
AnchorPoint: "Anchor-1" 541 0 basechar 0
AnchorPoint: "Anchor-0" 291 0 basechar 0
LayerCount: 2
Fore
SplineSet
393 0 m 1x55
 393 94 l 1
 386 94 l 1
 360 32 316 -12 233 -12 c 0
 119 -12 39 71 39 258 c 0
 39 445 119 528 233 528 c 0xa5
 316 528 360 484 386 422 c 1
 393 422 l 1
 393 516 l 1
 541 516 l 1
 541 0 l 1
 393 0 l 1x55
297 103 m 0xa5
 349 103 393 128 393 182 c 2
 393 334 l 2
 393 388 349 413 297 413 c 0
 231 413 193 370 193 298 c 2
 193 218 l 2
 193 146 231 103 297 103 c 0xa5
291 563 m 0x0a
 169 563 115 644 89 712 c 1
 164 759 l 1
 185 731 l 2
 224 679 249 664 291 664 c 0
 333 664 358 679 397 731 c 2
 418 759 l 1
 493 712 l 1
 467 644 413 563 291 563 c 0x0a
444 900 m 1
 310 724 l 1
 231 763 l 1
 330 957 l 1
 444 900 l 1
EndSplineSet
Validated: 1
EndChar

StartChar: uni1EB7.alt01
Encoding: 65569 -1 232
Width: 600
GlyphClass: 2
Flags: MW
HStem: -203 151<261.5 320.5> -12 115<264 274.5> 0 21G<393 393 393 541> 413 115<264 274.5 176 323> 496 20G<393 541 541 541> 570 103<271.5 310.5 271.5 351>
VStem: 39 154<182 218 218 298 182 351.5> 97 388<740 740> 210 162<-141 -115 -158.5 -97> 393 148<0 94 94 94 182 334 334 361 422 516 0 516>
AnchorPoint: "Anchor-1" 541 0 basechar 0
LayerCount: 2
Fore
SplineSet
393 0 m 1x2a40
 393 94 l 1
 386 94 l 1
 360 32 316 -12 233 -12 c 0
 119 -12 39 71 39 258 c 0
 39 445 119 528 233 528 c 0x5240
 316 528 360 484 386 422 c 1
 393 422 l 1
 393 516 l 1
 541 516 l 1
 541 0 l 1
 393 0 l 1x2a40
297 103 m 0x5240
 349 103 393 128 393 182 c 2
 393 334 l 2
 393 388 349 413 297 413 c 0
 231 413 193 370 193 298 c 2
 193 218 l 2
 193 146 231 103 297 103 c 0x5240
291 570 m 0x05
 171 570 122 668 97 740 c 1
 180 782 l 1
 201 750 l 2
 232 702 252 673 291 673 c 0
 330 673 350 702 381 750 c 2
 402 782 l 1
 485 740 l 1
 460 668 411 570 291 570 c 0x05
291 -203 m 0x8080
 232 -203 210 -176 210 -141 c 2
 210 -115 l 2
 210 -79 232 -52 291 -52 c 0
 350 -52 372 -79 372 -115 c 2
 372 -141 l 2
 372 -176 350 -203 291 -203 c 0x8080
EndSplineSet
Validated: 1
EndChar

StartChar: uni1EB1.alt01
Encoding: 65570 -1 233
Width: 600
GlyphClass: 2
Flags: MW
HStem: -12 115<264 274.5> 0 21G<393 393 393 541> 413 115<264 274.5 176 323> 496 20G<393 541 541 541> 563 101<270 312 270 352>
VStem: 39 154<182 218 218 298 182 351.5> 89 404<712 712> 393 148<0 94 94 94 182 334 334 361 422 516 0 516>
AnchorPoint: "Anchor-1" 541 0 basechar 0
AnchorPoint: "Anchor-0" 291 0 basechar 0
LayerCount: 2
Fore
SplineSet
393 0 m 1x55
 393 94 l 1
 386 94 l 1
 360 32 316 -12 233 -12 c 0
 119 -12 39 71 39 258 c 0
 39 445 119 528 233 528 c 0xa5
 316 528 360 484 386 422 c 1
 393 422 l 1
 393 516 l 1
 541 516 l 1
 541 0 l 1
 393 0 l 1x55
297 103 m 0xa5
 349 103 393 128 393 182 c 2
 393 334 l 2
 393 388 349 413 297 413 c 0
 231 413 193 370 193 298 c 2
 193 218 l 2
 193 146 231 103 297 103 c 0xa5
291 563 m 0x0a
 169 563 115 644 89 712 c 1
 164 759 l 1
 185 731 l 2
 224 679 249 664 291 664 c 0
 333 664 358 679 397 731 c 2
 418 759 l 1
 493 712 l 1
 467 644 413 563 291 563 c 0x0a
272 724 m 1
 138 900 l 1
 252 957 l 1
 351 763 l 1
 272 724 l 1
EndSplineSet
Validated: 1
EndChar

StartChar: uni1EB3.alt01
Encoding: 65571 -1 234
Width: 600
GlyphClass: 2
Flags: MW
HStem: -12 115<264 274.5> 0 21G<393 393 393 541> 413 115<264 274.5 176 323> 496 20G<393 541 541 541> 563 101<270 312 270 352> 842 101<161 297 161 283>
VStem: 39 154<182 218 218 298 182 351.5> 283 112<842 890> 393 148<0 94 94 94 182 334 334 361 422 516 0 516>
AnchorPoint: "Anchor-1" 541 0 basechar 0
AnchorPoint: "Anchor-0" 291 0 basechar 0
LayerCount: 2
Fore
SplineSet
393 0 m 1x5280
 393 94 l 1
 386 94 l 1
 360 32 316 -12 233 -12 c 0
 119 -12 39 71 39 258 c 0
 39 445 119 528 233 528 c 0xa280
 316 528 360 484 386 422 c 1
 393 422 l 1
 393 516 l 1
 541 516 l 1
 541 0 l 1
 393 0 l 1x5280
297 103 m 0xa280
 349 103 393 128 393 182 c 2
 393 334 l 2
 393 388 349 413 297 413 c 0
 231 413 193 370 193 298 c 2
 193 218 l 2
 193 146 231 103 297 103 c 0xa280
291 563 m 0x0d
 169 563 115 644 89 712 c 1
 164 759 l 1
 185 731 l 2
 224 679 249 664 291 664 c 0
 333 664 358 679 397 731 c 2
 418 759 l 1
 493 712 l 1
 467 644 413 563 291 563 c 0x0d
161 842 m 1
 161 943 l 1
 297 943 l 2
 372 943 395 909 395 871 c 0
 395 831 366 785 333 744 c 2
 306 711 l 1
 240 743 l 1
 283 842 l 1
 161 842 l 1
EndSplineSet
Validated: 1
EndChar

StartChar: uni1EB5.alt01
Encoding: 65572 -1 235
Width: 600
GlyphClass: 2
Flags: MW
HStem: -12 115<264 274.5> 0 21G<393 393 393 541> 413 115<264 274.5 176 323> 496 20G<393 541 541 541> 563 101<270 312 270 352> 778 103<358 382.5 358 392.5> 820 103<199.5 224>
VStem: 39 154<182 218 218 298 182 351.5> 89 404<712 712> 393 148<0 94 94 94 182 334 334 361 422 516 0 516>
AnchorPoint: "Anchor-1" 541 0 basechar 0
AnchorPoint: "Anchor-0" 291 0 basechar 0
LayerCount: 2
Fore
SplineSet
393 0 m 1x5140
 393 94 l 1
 386 94 l 1
 360 32 316 -12 233 -12 c 0
 119 -12 39 71 39 258 c 0
 39 445 119 528 233 528 c 0xa140
 316 528 360 484 386 422 c 1
 393 422 l 1
 393 516 l 1
 541 516 l 1
 541 0 l 1
 393 0 l 1x5140
297 103 m 0xa140
 349 103 393 128 393 182 c 2
 393 334 l 2
 393 388 349 413 297 413 c 0
 231 413 193 370 193 298 c 2
 193 218 l 2
 193 146 231 103 297 103 c 0xa140
291 563 m 0x0c80
 169 563 115 644 89 712 c 1
 164 759 l 1
 185 731 l 2
 224 679 249 664 291 664 c 0
 333 664 358 679 397 731 c 2
 418 759 l 1
 493 712 l 1
 467 644 413 563 291 563 c 0x0c80
366 778 m 0
 336 778 314 787 289 798 c 0
 260 810 237 820 211 820 c 0
 188 820 173 812 152 795 c 1
 102 859 l 1
 126 895 163 923 216 923 c 0x0a80
 246 923 268 914 293 903 c 0
 322 891 345 881 371 881 c 0
 394 881 409 889 430 906 c 1
 480 842 l 1
 456 806 419 778 366 778 c 0
EndSplineSet
Validated: 1
EndChar

StartChar: uni1EA5.alt01
Encoding: 65573 -1 236
Width: 600
GlyphClass: 2
Flags: MW
HStem: -12 115<264 274.5> 0 21G<393 393 393 541> 413 115<264 274.5 176 323> 496 20G<393 541 541 541> 561 396<165 484 413 484>
VStem: 39 154<182 218 218 298 182 351.5> 99 499<625 900> 393 148<0 94 94 94 182 334 334 361 422 516 0 516>
AnchorPoint: "Anchor-1" 541 0 basechar 0
AnchorPoint: "Anchor-0" 291 0 basechar 0
LayerCount: 2
Fore
SplineSet
393 0 m 1x55
 393 94 l 1
 386 94 l 1
 360 32 316 -12 233 -12 c 0
 119 -12 39 71 39 258 c 0
 39 445 119 528 233 528 c 0xa5
 316 528 360 484 386 422 c 1
 393 422 l 1
 393 516 l 1
 541 516 l 1
 541 0 l 1
 393 0 l 1x55
297 103 m 0xa5
 349 103 393 128 393 182 c 2
 393 334 l 2
 393 388 349 413 297 413 c 0
 231 413 193 370 193 298 c 2
 193 218 l 2
 193 146 231 103 297 103 c 0xa5
598 900 m 1x0a
 464 724 l 1
 385 763 l 1
 484 957 l 1
 598 900 l 1x0a
244 772 m 1
 338 772 l 1
 483 625 l 1
 413 561 l 1
 289 665 l 1
 165 561 l 1
 99 625 l 1
 244 772 l 1
EndSplineSet
Validated: 1
EndChar

StartChar: uni1EAD.alt01
Encoding: 65574 -1 237
Width: 600
GlyphClass: 2
Flags: MW
HStem: -203 151<261.5 320.5> -12 115<264 274.5> 0 21G<393 393 393 541> 413 115<264 274.5 176 323> 496 20G<393 541 541 541> 569 217<168 353 229 410>
VStem: 39 154<182 218 218 298 182 351.5> 97 388<627 627> 210 162<-141 -115 -158.5 -97> 393 148<0 94 94 94 182 334 334 361 422 516 0 516>
AnchorPoint: "Anchor-1" 541 0 basechar 0
LayerCount: 2
Fore
SplineSet
393 0 m 1x2a40
 393 94 l 1
 386 94 l 1
 360 32 316 -12 233 -12 c 0
 119 -12 39 71 39 258 c 0
 39 445 119 528 233 528 c 0x5240
 316 528 360 484 386 422 c 1
 393 422 l 1
 393 516 l 1
 541 516 l 1
 541 0 l 1
 393 0 l 1x2a40
297 103 m 0x5240
 349 103 393 128 393 182 c 2
 393 334 l 2
 393 388 349 413 297 413 c 0
 231 413 193 370 193 298 c 2
 193 218 l 2
 193 146 231 103 297 103 c 0x5240
229 786 m 1x05
 353 786 l 1
 485 627 l 1
 410 569 l 1
 289 684 l 1
 168 569 l 1
 97 627 l 1
 229 786 l 1x05
291 -203 m 0x8080
 232 -203 210 -176 210 -141 c 2
 210 -115 l 2
 210 -79 232 -52 291 -52 c 0
 350 -52 372 -79 372 -115 c 2
 372 -141 l 2
 372 -176 350 -203 291 -203 c 0x8080
EndSplineSet
Validated: 1
EndChar

StartChar: uni1EA7.alt01
Encoding: 65575 -1 238
Width: 600
GlyphClass: 2
Flags: MW
HStem: -12 115<264 274.5> 0 21G<393 393 393 541> 413 115<264 274.5 176 323> 496 20G<393 541 541 541> 561 396<98 165 98 413>
VStem: -16 499<625 900> 39 154<182 218 218 298 182 351.5> 393 148<0 94 94 94 182 334 334 361 422 516 0 516>
AnchorPoint: "Anchor-1" 541 0 basechar 0
AnchorPoint: "Anchor-0" 291 0 basechar 0
LayerCount: 2
Fore
SplineSet
393 0 m 1x53
 393 94 l 1
 386 94 l 1
 360 32 316 -12 233 -12 c 0
 119 -12 39 71 39 258 c 0
 39 445 119 528 233 528 c 0xa3
 316 528 360 484 386 422 c 1
 393 422 l 1
 393 516 l 1
 541 516 l 1
 541 0 l 1
 393 0 l 1x53
297 103 m 0xa3
 349 103 393 128 393 182 c 2
 393 334 l 2
 393 388 349 413 297 413 c 0
 231 413 193 370 193 298 c 2
 193 218 l 2
 193 146 231 103 297 103 c 0xa3
118 724 m 1x0c
 -16 900 l 1
 98 957 l 1
 197 763 l 1
 118 724 l 1x0c
244 772 m 1
 338 772 l 1
 483 625 l 1
 413 561 l 1
 289 665 l 1
 165 561 l 1
 99 625 l 1
 244 772 l 1
EndSplineSet
Validated: 1
EndChar

StartChar: uni1EA9.alt01
Encoding: 65576 -1 239
Width: 600
GlyphClass: 2
Flags: MW
HStem: -12 115<264 274.5> 0 21G<393 393 393 541> 413 115<264 274.5 176 323> 496 20G<393 541 541 541> 842 101<329 463 329 448>
VStem: 39 154<182 218 218 298 182 351.5> 393 148<0 94 94 94 182 334 334 361 422 516 0 516> 448 113<842 890>
AnchorPoint: "Anchor-1" 541 0 basechar 0
AnchorPoint: "Anchor-0" 291 0 basechar 0
LayerCount: 2
Fore
SplineSet
393 0 m 1x56
 393 94 l 1
 386 94 l 1
 360 32 316 -12 233 -12 c 0
 119 -12 39 71 39 258 c 0
 39 445 119 528 233 528 c 0xa6
 316 528 360 484 386 422 c 1
 393 422 l 1
 393 516 l 1
 541 516 l 1
 541 0 l 1
 393 0 l 1x56
297 103 m 0xa6
 349 103 393 128 393 182 c 2
 393 334 l 2
 393 388 349 413 297 413 c 0
 231 413 193 370 193 298 c 2
 193 218 l 2
 193 146 231 103 297 103 c 0xa6
329 842 m 1x09
 329 943 l 1
 463 943 l 2
 537 943 561 909 561 871 c 0
 561 831 531 784 498 744 c 2
 471 711 l 1
 405 745 l 1
 448 842 l 1
 329 842 l 1x09
244 772 m 1
 338 772 l 1
 483 625 l 1
 413 561 l 1
 289 665 l 1
 165 561 l 1
 99 625 l 1
 244 772 l 1
EndSplineSet
Validated: 1
EndChar

StartChar: uni1EAB.alt01
Encoding: 65577 -1 240
Width: 600
GlyphClass: 2
Flags: MW
HStem: -12 115<264 274.5> 0 21G<393 393 393 541> 413 115<264 274.5 176 323> 496 20G<393 541 541 541> 788 103<358 382.5 358 392.5> 830 103<199.5 224>
VStem: 39 154<182 218 218 298 182 351.5> 101 380<625 625> 393 148<0 94 94 94 182 334 334 361 422 516 0 516>
AnchorPoint: "Anchor-1" 541 0 basechar 0
AnchorPoint: "Anchor-0" 291 0 basechar 0
LayerCount: 2
Fore
SplineSet
393 0 m 1x5280
 393 94 l 1
 386 94 l 1
 360 32 316 -12 233 -12 c 0
 119 -12 39 71 39 258 c 0
 39 445 119 528 233 528 c 0xa280
 316 528 360 484 386 422 c 1
 393 422 l 1
 393 516 l 1
 541 516 l 1
 541 0 l 1
 393 0 l 1x5280
297 103 m 0xa280
 349 103 393 128 393 182 c 2
 393 334 l 2
 393 388 349 413 297 413 c 0
 231 413 193 370 193 298 c 2
 193 218 l 2
 193 146 231 103 297 103 c 0xa280
216 933 m 0x05
 246 933 268 924 293 913 c 0
 322 901 345 891 371 891 c 0
 394 891 409 899 430 916 c 1
 480 852 l 1
 456 816 419 788 366 788 c 0x09
 336 788 314 797 289 808 c 0
 260 820 237 830 211 830 c 0
 188 830 173 822 152 805 c 1
 102 869 l 1
 126 905 163 933 216 933 c 0x05
243 759 m 1
 339 759 l 1
 481 625 l 1
 414 561 l 1
 290 656 l 1
 166 561 l 1
 101 625 l 1
 243 759 l 1
EndSplineSet
Validated: 1
EndChar

StartChar: ae
Encoding: 230 230 241
Width: 600
GlyphClass: 2
Flags: MW
HStem: -12 90<152.5 168.5> 285 20G<186 226 226 226 345 475 475 475> 508 20G<129.5 198.5 391 467.5>
VStem: 4 116<119.5 138 138 157 119.5 194.5> 226 119<179 213 213 228 174.5 228 305 349> 475 109<228 349 228 374>
AnchorPoint: "Anchor-2" 298 516 basechar 0
LayerCount: 2
Fore
SplineSet
137 -12 m 0
 62 -12 4 39 4 141 c 0
 4 248 69 305 186 305 c 2
 226 305 l 1
 226 362 l 2
 226 407 206 436 168 436 c 0
 132 436 117 410 105 368 c 1
 13 401 l 1
 35 487 91 528 168 528 c 0
 229 528 270 502 293 455 c 1
 297 455 l 1
 325 504 365 528 417 528 c 0
 518 528 584 438 584 297 c 2
 584 228 l 1
 345 228 l 1
 345 213 l 2
 345 136 370 84 417 84 c 0
 454 84 471 117 481 156 c 1
 578 129 l 1
 558 51 511 -12 418 -12 c 0
 349 -12 286 23 262 105 c 1
 258 105 l 1
 246 24 200 -12 137 -12 c 0
169 78 m 0
 211 78 226 114 226 179 c 2
 226 228 l 1
 197 228 l 2
 148 228 120 204 120 157 c 2
 120 138 l 2
 120 101 136 78 169 78 c 0
410 438 m 0
 366 438 345 399 345 349 c 2
 345 305 l 1
 475 305 l 1
 475 349 l 2
 475 399 454 438 410 438 c 0
EndSplineSet
Validated: 1
EndChar

StartChar: aeacute
Encoding: 509 509 242
Width: 600
GlyphClass: 1
Flags: MW
HStem: -12 90<152.5 168.5> 285 20G<186 226 226 226 345 475 475 475> 508 20G<129.5 198.5 391 467.5> 570 237<314 325>
VStem: 4 116<119.5 138 138 157 119.5 194.5> 226 119<179 213 213 228 174.5 228 305 349> 226 222<613 746> 475 109<228 349 228 374>
LayerCount: 2
Fore
SplineSet
137 -12 m 0xed
 62 -12 4 39 4 141 c 0
 4 248 69 305 186 305 c 2
 226 305 l 1
 226 362 l 2
 226 407 206 436 168 436 c 0
 132 436 117 410 105 368 c 1
 13 401 l 1
 35 487 91 528 168 528 c 0
 229 528 270 502 293 455 c 1
 297 455 l 1
 325 504 365 528 417 528 c 0
 518 528 584 438 584 297 c 2
 584 228 l 1
 345 228 l 1
 345 213 l 2
 345 136 370 84 417 84 c 0
 454 84 471 117 481 156 c 1
 578 129 l 1
 558 51 511 -12 418 -12 c 0
 349 -12 286 23 262 105 c 1
 258 105 l 1
 246 24 200 -12 137 -12 c 0xed
169 78 m 0
 211 78 226 114 226 179 c 2
 226 228 l 1
 197 228 l 2
 148 228 120 204 120 157 c 2
 120 138 l 2
 120 101 136 78 169 78 c 0
410 438 m 0
 366 438 345 399 345 349 c 2
 345 305 l 1
 475 305 l 1
 475 349 l 2
 475 399 454 438 410 438 c 0
448 746 m 1x12
 314 570 l 1
 226 613 l 1
 325 807 l 1
 448 746 l 1x12
EndSplineSet
Validated: 1
EndChar

StartChar: cacute
Encoding: 263 263 243
Width: 600
GlyphClass: 2
Flags: MW
HStem: -12 118<287 350.5 287 378.5> 410 118<286.5 347.5> 570 237<330 341>
VStem: 60 154<182 216 216 300 182 341.5> 242 222<613 746>
AnchorPoint: "Anchor-0" 301 0 basechar 0
LayerCount: 2
Fore
SplineSet
321 -12 m 0
 158 -12 60 91 60 258 c 0
 60 425 159 528 320 528 c 0
 433 528 499 477 535 402 c 1
 421 340 l 1
 403 380 375 410 320 410 c 0
 253 410 214 368 214 300 c 2
 214 216 l 2
 214 148 252 106 322 106 c 0
 379 106 409 136 431 178 c 1
 543 114 l 1
 506 39 436 -12 321 -12 c 0
464 746 m 1x28
 330 570 l 1
 242 613 l 1
 341 807 l 1
 464 746 l 1x28
EndSplineSet
Validated: 1
EndChar

StartChar: ccaron
Encoding: 269 269 244
Width: 600
GlyphClass: 2
Flags: MW
HStem: -12 118<287 350.5 287 378.5> 410 118<286.5 347.5> 578 217<195 376 195 252>
VStem: 60 154<182 216 216 300 182 341.5> 120 388<737 737>
AnchorPoint: "Anchor-0" 301 0 basechar 0
LayerCount: 2
Fore
SplineSet
321 -12 m 0xd0
 158 -12 60 91 60 258 c 0
 60 425 159 528 320 528 c 0
 433 528 499 477 535 402 c 1
 421 340 l 1
 403 380 375 410 320 410 c 0
 253 410 214 368 214 300 c 2
 214 216 l 2
 214 148 252 106 322 106 c 0
 379 106 409 136 431 178 c 1
 543 114 l 1
 506 39 436 -12 321 -12 c 0xd0
376 578 m 1x28
 252 578 l 1
 120 737 l 1
 195 795 l 1
 316 680 l 1
 437 795 l 1
 508 737 l 1
 376 578 l 1x28
EndSplineSet
Validated: 1
EndChar

StartChar: ccedilla
Encoding: 231 231 245
Width: 600
GlyphClass: 2
Flags: MW
HStem: -212 71<287.5 315.5 287.5 349> -12 118<331 331> 410 118<286.5 347.5>
VStem: 60 154<184.5 216 216 300 182 341.5> 347 100<-124.5 -108.5>
AnchorPoint: "Anchor-2" 314 516 basechar 0
LayerCount: 2
Fore
SplineSet
320 528 m 0
 433 528 499 477 535 402 c 1
 421 340 l 1
 403 380 375 410 320 410 c 0
 253 410 214 368 214 300 c 2
 214 216 l 2
 214 148 252 106 322 106 c 0
 379 106 409 136 431 178 c 1
 543 114 l 1
 507 41 440 -9 331 -12 c 1
 322 -55 l 1
 326 -59 l 1
 342 -55 358 -52 374 -52 c 0
 414 -52 447 -72 447 -121 c 0
 447 -189 383 -212 315 -212 c 0
 246 -212 208 -188 191 -168 c 1
 237 -112 l 1
 250 -128 272 -141 303 -141 c 0
 328 -141 347 -133 347 -116 c 0
 347 -101 334 -82 272 -76 c 2
 251 -74 l 1
 265 -7 l 1
 136 14 60 111 60 258 c 0
 60 425 159 528 320 528 c 0
EndSplineSet
Validated: 1
EndChar

StartChar: ccircumflex
Encoding: 265 265 246
Width: 600
GlyphClass: 2
Flags: MW
HStem: -12 118<287 350.5 287 378.5> 410 118<286.5 347.5> 569 217<191 376 252 433>
VStem: 60 154<182 216 216 300 182 341.5> 120 388<627 627>
AnchorPoint: "Anchor-0" 301 0 basechar 0
LayerCount: 2
Fore
SplineSet
321 -12 m 0xd0
 158 -12 60 91 60 258 c 0
 60 425 159 528 320 528 c 0
 433 528 499 477 535 402 c 1
 421 340 l 1
 403 380 375 410 320 410 c 0
 253 410 214 368 214 300 c 2
 214 216 l 2
 214 148 252 106 322 106 c 0
 379 106 409 136 431 178 c 1
 543 114 l 1
 506 39 436 -12 321 -12 c 0xd0
252 786 m 1x28
 376 786 l 1
 508 627 l 1
 433 569 l 1
 312 684 l 1
 191 569 l 1
 120 627 l 1
 252 786 l 1x28
EndSplineSet
Validated: 1
EndChar

StartChar: cdotaccent
Encoding: 267 267 247
Width: 600
GlyphClass: 2
Flags: MW
HStem: -12 118<287 350.5 287 378.5> 410 118<286.5 347.5> 582 169<281 347>
VStem: 60 154<182 216 216 300 182 341.5> 225 178<652 681 632.5 701>
AnchorPoint: "Anchor-0" 301 0 basechar 0
LayerCount: 2
Fore
SplineSet
321 -12 m 0
 158 -12 60 91 60 258 c 0
 60 425 159 528 320 528 c 0
 433 528 499 477 535 402 c 1
 421 340 l 1
 403 380 375 410 320 410 c 0
 253 410 214 368 214 300 c 2
 214 216 l 2
 214 148 252 106 322 106 c 0
 379 106 409 136 431 178 c 1
 543 114 l 1
 506 39 436 -12 321 -12 c 0
314 582 m 0x28
 248 582 225 613 225 652 c 2
 225 681 l 2
 225 721 248 751 314 751 c 0
 380 751 403 721 403 681 c 2
 403 652 l 2
 403 613 380 582 314 582 c 0x28
EndSplineSet
Validated: 1
EndChar

StartChar: dcaron
Encoding: 271 271 248
Width: 600
GlyphClass: 1
Flags: MW
HStem: -12 109<135.5 264.5> 0 21G<314 455 314 314> 419 109<135.5 264.5> 720 20G<314 455 455 455 508 637 637 637>
VStem: 27 147<165.5 200 200 316 163.5 350.5> 314 141<0 93 93 93 180 336 336 364 423 740 0 740> 506 131
LayerCount: 2
Fore
SplineSet
185 -12 m 0xbe
 86 -12 27 73 27 258 c 0
 27 443 86 528 185 528 c 0
 254 528 286 485 306 423 c 1
 314 423 l 1
 314 740 l 1
 455 740 l 1
 455 0 l 1
 314 0 l 1x7e
 314 93 l 1
 306 93 l 1
 286 31 254 -12 185 -12 c 0xbe
244 97 m 0
 285 97 314 124 314 180 c 2
 314 336 l 2
 314 392 285 419 244 419 c 0
 200 419 174 389 174 316 c 2
 174 200 l 2
 174 127 200 97 244 97 c 0
506 529 m 1
 508 740 l 1
 637 740 l 1
 583 529 l 1
 506 529 l 1
EndSplineSet
Validated: 1
EndChar

StartChar: dcroat
Encoding: 273 273 249
Width: 600
GlyphClass: 1
Flags: MW
HStem: -12 115<264 274.5> 0 21G<393 393 393 541> 413 115<264 274.5 176 323> 580 110<253 393 253 393 541 596> 720 20G<393 541 541 541>
VStem: 39 154<182 218 218 298 182 351.5> 393 148<0 94 94 94 182 334 334 361 422 580 0 580 690 740>
LayerCount: 2
Fore
SplineSet
393 0 m 1x7e
 393 94 l 1
 386 94 l 1
 360 32 316 -12 233 -12 c 0xbe
 119 -12 39 71 39 258 c 0
 39 445 119 528 233 528 c 0
 316 528 360 484 386 422 c 1
 393 422 l 1
 393 580 l 1
 253 580 l 1
 253 690 l 1
 393 690 l 1
 393 740 l 1
 541 740 l 1
 541 690 l 1
 596 690 l 1
 596 580 l 1
 541 580 l 1
 541 0 l 1
 393 0 l 1x7e
297 103 m 0xbe
 349 103 393 128 393 182 c 2
 393 334 l 2
 393 388 349 413 297 413 c 0
 231 413 193 370 193 298 c 2
 193 218 l 2
 193 146 231 103 297 103 c 0xbe
EndSplineSet
Validated: 1
EndChar

StartChar: eth
Encoding: 240 240 250
Width: 600
GlyphClass: 1
Flags: MW
HStem: -12 110<269 335 269 380> 388 112<267 279.5 181 333.5> 720 20G<71 297 297 297>
VStem: 40 153<179 217 217 271 179 327.5> 408 153<217 273 273 311 176.5 408>
LayerCount: 2
Fore
SplineSet
433 753 m 1
 483 693 l 1
 408 649 l 1
 495 560 561 440 561 278 c 0
 561 75 457 -12 303 -12 c 0
 138 -12 40 89 40 253 c 0
 40 402 120 500 242 500 c 0
 317 500 367 463 399 404 c 1
 408 408 l 1
 390 469 350 528 294 582 c 1
 202 528 l 1
 151 588 l 1
 233 636 l 1
 185 674 130 709 71 740 c 1
 297 740 l 1
 314 729 331 716 348 703 c 1
 433 753 l 1
302 98 m 0
 368 98 408 141 408 217 c 2
 408 273 l 2
 408 349 366 388 301 388 c 0
 233 388 193 346 193 271 c 2
 193 217 l 2
 193 141 236 98 302 98 c 0
EndSplineSet
Validated: 1
EndChar

StartChar: eacute
Encoding: 233 233 251
Width: 600
GlyphClass: 2
Flags: MW
HStem: -12 114<279.5 349.5 279.5 369.5> 222 83<197 405 197 550 197 405> 422 106<270 334> 570 237<317 328>
VStem: 50 147<180 213 213 222 180 305 305 313 180 340.5> 229 222<613 746> 405 145<222 313 222 346.5>
AnchorPoint: "Anchor-1" 409 0 basechar 0
AnchorPoint: "Anchor-0" 306 0 basechar 0
LayerCount: 2
Fore
SplineSet
314 -12 m 0xea
 141 -12 50 91 50 256 c 0
 50 425 146 528 301 528 c 0
 455 528 550 427 550 266 c 2
 550 222 l 1
 197 222 l 1
 197 213 l 2
 197 147 240 102 319 102 c 0
 380 102 423 128 455 166 c 1
 535 79 l 1
 495 30 425 -12 314 -12 c 0xea
302 422 m 0
 238 422 197 379 197 313 c 2
 197 305 l 1
 405 305 l 1
 405 313 l 2
 405 380 366 422 302 422 c 0
451 746 m 1x14
 317 570 l 1
 229 613 l 1
 328 807 l 1
 451 746 l 1x14
EndSplineSet
Validated: 1
EndChar

StartChar: ebreve
Encoding: 277 277 252
Width: 600
GlyphClass: 2
Flags: MW
HStem: -12 114<279.5 349.5 279.5 369.5> 222 83<197 405 197 550 197 405> 422 106<270 334> 570 103<281.5 320.5 281.5 361>
VStem: 50 147<180 213 213 222 180 305 305 313 180 340.5> 107 388<740 740> 405 145<222 313 222 346.5>
AnchorPoint: "Anchor-1" 409 0 basechar 0
AnchorPoint: "Anchor-0" 306 0 basechar 0
LayerCount: 2
Fore
SplineSet
314 -12 m 0xea
 141 -12 50 91 50 256 c 0
 50 425 146 528 301 528 c 0
 455 528 550 427 550 266 c 2
 550 222 l 1
 197 222 l 1
 197 213 l 2
 197 147 240 102 319 102 c 0
 380 102 423 128 455 166 c 1
 535 79 l 1
 495 30 425 -12 314 -12 c 0xea
302 422 m 0
 238 422 197 379 197 313 c 2
 197 305 l 1
 405 305 l 1
 405 313 l 2
 405 380 366 422 302 422 c 0
301 570 m 0x14
 181 570 132 668 107 740 c 1
 190 782 l 1
 211 750 l 2
 242 702 262 673 301 673 c 0
 340 673 360 702 391 750 c 2
 412 782 l 1
 495 740 l 1
 470 668 421 570 301 570 c 0x14
EndSplineSet
Validated: 1
EndChar

StartChar: ecaron
Encoding: 283 283 253
Width: 600
GlyphClass: 2
Flags: MW
HStem: -12 114<279.5 349.5 279.5 369.5> 222 83<197 405 197 550 197 405> 422 106<270 334> 578 217<182 363 182 239>
VStem: 50 147<180 213 213 222 180 305 305 313 180 340.5> 107 388<737 737> 405 145<222 313 222 346.5>
AnchorPoint: "Anchor-1" 409 0 basechar 0
AnchorPoint: "Anchor-0" 306 0 basechar 0
LayerCount: 2
Fore
SplineSet
314 -12 m 0xea
 141 -12 50 91 50 256 c 0
 50 425 146 528 301 528 c 0
 455 528 550 427 550 266 c 2
 550 222 l 1
 197 222 l 1
 197 213 l 2
 197 147 240 102 319 102 c 0
 380 102 423 128 455 166 c 1
 535 79 l 1
 495 30 425 -12 314 -12 c 0xea
302 422 m 0
 238 422 197 379 197 313 c 2
 197 305 l 1
 405 305 l 1
 405 313 l 2
 405 380 366 422 302 422 c 0
363 578 m 1x14
 239 578 l 1
 107 737 l 1
 182 795 l 1
 303 680 l 1
 424 795 l 1
 495 737 l 1
 363 578 l 1x14
EndSplineSet
Validated: 1
EndChar

StartChar: ecircumflex
Encoding: 234 234 254
Width: 600
GlyphClass: 2
Flags: MW
HStem: -12 114<279.5 349.5 279.5 369.5> 222 83<197 405 197 550 197 405> 422 106<270 334> 569 217<178 363 239 420>
VStem: 50 147<180 213 213 222 180 305 305 313 180 340.5> 107 388<627 627> 405 145<222 313 222 346.5>
AnchorPoint: "Anchor-1" 409 0 basechar 0
AnchorPoint: "Anchor-0" 306 0 basechar 0
LayerCount: 2
Fore
SplineSet
314 -12 m 0xea
 141 -12 50 91 50 256 c 0
 50 425 146 528 301 528 c 0
 455 528 550 427 550 266 c 2
 550 222 l 1
 197 222 l 1
 197 213 l 2
 197 147 240 102 319 102 c 0
 380 102 423 128 455 166 c 1
 535 79 l 1
 495 30 425 -12 314 -12 c 0xea
302 422 m 0
 238 422 197 379 197 313 c 2
 197 305 l 1
 405 305 l 1
 405 313 l 2
 405 380 366 422 302 422 c 0
239 786 m 1x14
 363 786 l 1
 495 627 l 1
 420 569 l 1
 299 684 l 1
 178 569 l 1
 107 627 l 1
 239 786 l 1x14
EndSplineSet
Validated: 1
EndChar

StartChar: edieresis
Encoding: 235 235 255
Width: 600
GlyphClass: 2
Flags: MW
HStem: -12 114<279.5 349.5 279.5 369.5> 222 83<197 405 197 550 197 405> 422 106<270 334> 591 151<161.5 221 381 440.5>
VStem: 50 147<180 213 213 222 180 305 305 313 180 340.5> 111 161<654 680 636.5 697.5> 330 161<654 680 636.5 697.5> 405 145<222 313 222 346.5>
AnchorPoint: "Anchor-1" 409 0 basechar 0
AnchorPoint: "Anchor-0" 306 0 basechar 0
LayerCount: 2
Fore
SplineSet
314 -12 m 0xe9
 141 -12 50 91 50 256 c 0
 50 425 146 528 301 528 c 0
 455 528 550 427 550 266 c 2
 550 222 l 1
 197 222 l 1
 197 213 l 2
 197 147 240 102 319 102 c 0
 380 102 423 128 455 166 c 1
 535 79 l 1
 495 30 425 -12 314 -12 c 0xe9
302 422 m 0
 238 422 197 379 197 313 c 2
 197 305 l 1
 405 305 l 1
 405 313 l 2
 405 380 366 422 302 422 c 0
191 591 m 0x16
 132 591 111 619 111 654 c 2
 111 680 l 2
 111 715 132 742 191 742 c 0
 251 742 272 715 272 680 c 2
 272 654 l 2
 272 619 251 591 191 591 c 0x16
411 591 m 0
 351 591 330 619 330 654 c 2
 330 680 l 2
 330 715 351 742 411 742 c 0
 470 742 491 715 491 680 c 2
 491 654 l 2
 491 619 470 591 411 591 c 0
EndSplineSet
Validated: 1
EndChar

StartChar: edotaccent
Encoding: 279 279 256
Width: 600
GlyphClass: 2
Flags: MW
HStem: -12 114<279.5 349.5 279.5 369.5> 222 83<197 405 197 550 197 405> 422 106<270 334> 582 169<268 334>
VStem: 50 147<180 213 213 222 180 305 305 313 180 340.5> 212 178<652 681 632.5 701> 405 145<222 313 222 346.5>
AnchorPoint: "Anchor-1" 409 0 basechar 0
AnchorPoint: "Anchor-0" 306 0 basechar 0
LayerCount: 2
Fore
SplineSet
314 -12 m 0
 141 -12 50 91 50 256 c 0
 50 425 146 528 301 528 c 0
 455 528 550 427 550 266 c 2
 550 222 l 1
 197 222 l 1
 197 213 l 2
 197 147 240 102 319 102 c 0
 380 102 423 128 455 166 c 1
 535 79 l 1
 495 30 425 -12 314 -12 c 0
302 422 m 0
 238 422 197 379 197 313 c 2
 197 305 l 1
 405 305 l 1
 405 313 l 2
 405 380 366 422 302 422 c 0
301 582 m 0x14
 235 582 212 613 212 652 c 2
 212 681 l 2
 212 721 235 751 301 751 c 0
 367 751 390 721 390 681 c 2
 390 652 l 2
 390 613 367 582 301 582 c 0x14
EndSplineSet
Validated: 1
EndChar

StartChar: uni1EB9
Encoding: 7865 7865 257
Width: 600
GlyphClass: 2
Flags: MW
HStem: -203 151<276.5 335.5> -12 114<279.5 349.5 279.5 369.5> 222 83<197 405 197 550 197 405> 422 106<270 334>
VStem: 50 147<180 213 213 222 180 305 305 313 180 340.5> 225 162<-141 -115 -158.5 -97> 405 145<222 313 222 346.5>
AnchorPoint: "Anchor-2" 301 516 basechar 0
AnchorPoint: "Anchor-1" 409 0 basechar 0
LayerCount: 2
Fore
SplineSet
314 -12 m 0
 141 -12 50 91 50 256 c 0
 50 425 146 528 301 528 c 0
 455 528 550 427 550 266 c 2
 550 222 l 1
 197 222 l 1
 197 213 l 2
 197 147 240 102 319 102 c 0
 380 102 423 128 455 166 c 1
 535 79 l 1
 495 30 425 -12 314 -12 c 0
302 422 m 0
 238 422 197 379 197 313 c 2
 197 305 l 1
 405 305 l 1
 405 313 l 2
 405 380 366 422 302 422 c 0
306 -203 m 0x84
 247 -203 225 -176 225 -141 c 2
 225 -115 l 2
 225 -79 247 -52 306 -52 c 0
 365 -52 387 -79 387 -115 c 2
 387 -141 l 2
 387 -176 365 -203 306 -203 c 0x84
EndSplineSet
Validated: 1
EndChar

StartChar: egrave
Encoding: 232 232 258
Width: 600
GlyphClass: 2
Flags: MW
HStem: -12 114<279.5 349.5 279.5 369.5> 222 83<197 405 197 550 197 405> 422 106<270 334> 570 237<274 285>
VStem: 50 147<180 213 213 222 180 305 305 313 180 340.5> 151 222<613 746> 405 145<222 313 222 346.5>
AnchorPoint: "Anchor-1" 409 0 basechar 0
AnchorPoint: "Anchor-0" 306 0 basechar 0
LayerCount: 2
Fore
SplineSet
314 -12 m 0xea
 141 -12 50 91 50 256 c 0
 50 425 146 528 301 528 c 0
 455 528 550 427 550 266 c 2
 550 222 l 1
 197 222 l 1
 197 213 l 2
 197 147 240 102 319 102 c 0
 380 102 423 128 455 166 c 1
 535 79 l 1
 495 30 425 -12 314 -12 c 0xea
302 422 m 0
 238 422 197 379 197 313 c 2
 197 305 l 1
 405 305 l 1
 405 313 l 2
 405 380 366 422 302 422 c 0
285 570 m 1x14
 151 746 l 1
 274 807 l 1
 373 613 l 1
 285 570 l 1x14
EndSplineSet
Validated: 1
EndChar

StartChar: uni1EBB
Encoding: 7867 7867 259
Width: 600
GlyphClass: 2
Flags: MW
HStem: -12 114<279.5 349.5 279.5 369.5> 222 83<197 405 197 550 197 405> 422 106<270 334> 687 106<181 324 181 303>
VStem: 50 147<180 213 213 222 180 305 305 313 180 340.5> 303 119<687 739.5> 405 145<222 313 222 346.5>
AnchorPoint: "Anchor-1" 409 0 basechar 0
AnchorPoint: "Anchor-0" 306 0 basechar 0
LayerCount: 2
Fore
SplineSet
314 -12 m 0xea
 141 -12 50 91 50 256 c 0
 50 425 146 528 301 528 c 0
 455 528 550 427 550 266 c 2
 550 222 l 1
 197 222 l 1
 197 213 l 2
 197 147 240 102 319 102 c 0
 380 102 423 128 455 166 c 1
 535 79 l 1
 495 30 425 -12 314 -12 c 0xea
302 422 m 0
 238 422 197 379 197 313 c 2
 197 305 l 1
 405 305 l 1
 405 313 l 2
 405 380 366 422 302 422 c 0
181 687 m 1x14
 181 793 l 1
 324 793 l 2
 399 793 422 759 422 720 c 0
 422 681 398 634 365 594 c 2
 337 560 l 1
 262 595 l 1
 303 687 l 1
 181 687 l 1x14
EndSplineSet
Validated: 1
EndChar

StartChar: emacron
Encoding: 275 275 260
Width: 600
GlyphClass: 2
Flags: MW
HStem: -12 114<279.5 349.5 279.5 369.5> 222 83<197 405 197 550 197 405> 422 106<270 334> 615 103<148 454 148 454>
VStem: 50 147<180 213 213 222 180 305 305 313 180 340.5> 148 306<615 718 615 718> 405 145<222 313 222 346.5>
AnchorPoint: "Anchor-1" 409 0 basechar 0
AnchorPoint: "Anchor-0" 306 0 basechar 0
LayerCount: 2
Fore
SplineSet
314 -12 m 0xea
 141 -12 50 91 50 256 c 0
 50 425 146 528 301 528 c 0
 455 528 550 427 550 266 c 2
 550 222 l 1
 197 222 l 1
 197 213 l 2
 197 147 240 102 319 102 c 0
 380 102 423 128 455 166 c 1
 535 79 l 1
 495 30 425 -12 314 -12 c 0xea
302 422 m 0
 238 422 197 379 197 313 c 2
 197 305 l 1
 405 305 l 1
 405 313 l 2
 405 380 366 422 302 422 c 0
148 615 m 1x14
 148 718 l 1
 454 718 l 1
 454 615 l 1
 148 615 l 1x14
EndSplineSet
Validated: 1
EndChar

StartChar: eogonek
Encoding: 281 281 261
Width: 600
GlyphClass: 2
Flags: MW
HStem: -212 74<367 389 367 394.5> -12 114<279.5 316 279.5 357> 222 83<197 405 197 550 197 405> 422 106<270 334>
VStem: 50 147<180 213 213 222 305 313 180 341> 239 100<-117.5 -101> 405 145<222 313 222 346.5>
AnchorPoint: "Anchor-2" 301 516 basechar 0
AnchorPoint: "Anchor-0" 306 0 basechar 0
LayerCount: 2
Fore
SplineSet
363 -212 m 0
 298 -212 239 -191 239 -128 c 0
 239 -74 284 -43 357 -12 c 1
 355 -7 l 1
 345 -10 327 -12 305 -12 c 0
 151 -12 50 84 50 257 c 0
 50 425 146 528 301 528 c 0
 455 528 550 427 550 266 c 2
 550 222 l 1
 197 222 l 1
 197 213 l 2
 197 147 240 102 319 102 c 0
 380 102 423 128 455 166 c 1
 535 79 l 1
 511 53 488 36 432 -7 c 0
 361 -62 339 -77 339 -105 c 0
 339 -130 357 -138 377 -138 c 0
 401 -138 418 -126 432 -110 c 1
 485 -161 l 1
 468 -193 426 -212 363 -212 c 0
197 305 m 1
 405 305 l 1
 405 313 l 2
 405 380 366 422 302 422 c 0
 238 422 197 379 197 313 c 2
 197 305 l 1
EndSplineSet
Validated: 1
EndChar

StartChar: uni1EBD
Encoding: 7869 7869 262
Width: 600
GlyphClass: 2
Flags: MW
HStem: -12 114<279.5 349.5 279.5 369.5> 222 83<197 405 197 550 197 405> 422 106<270 334> 592 107<367 391.5 367 403.5> 634 107<210.5 235>
VStem: 50 147<180 213 213 222 180 305 305 313 180 340.5> 111 380<656 677> 405 145<222 313 222 346.5>
AnchorPoint: "Anchor-1" 409 0 basechar 0
AnchorPoint: "Anchor-0" 306 0 basechar 0
LayerCount: 2
Fore
SplineSet
314 -12 m 0xe5
 141 -12 50 91 50 256 c 0
 50 425 146 528 301 528 c 0
 455 528 550 427 550 266 c 2
 550 222 l 1
 197 222 l 1
 197 213 l 2
 197 147 240 102 319 102 c 0
 380 102 423 128 455 166 c 1
 535 79 l 1
 495 30 425 -12 314 -12 c 0xe5
302 422 m 0
 238 422 197 379 197 313 c 2
 197 305 l 1
 405 305 l 1
 405 313 l 2
 405 380 366 422 302 422 c 0
377 592 m 0x12
 347 592 325 601 300 612 c 0
 271 624 248 634 222 634 c 0
 199 634 184 626 163 609 c 1
 111 677 l 1
 135 713 172 741 225 741 c 0x0a
 255 741 277 732 302 721 c 0
 331 709 354 699 380 699 c 0
 403 699 418 707 439 724 c 1
 491 656 l 1
 467 620 430 592 377 592 c 0x12
EndSplineSet
Validated: 1
EndChar

StartChar: uni1EBF
Encoding: 7871 7871 263
Width: 600
GlyphClass: 2
Flags: MW
HStem: -12 114<279.5 349.5 279.5 369.5> 222 83<197 405 197 550 197 405> 422 106<270 334> 561 396<175 494 423 494>
VStem: 50 147<180 213 213 222 180 305 305 313 180 340.5> 109 499<625 900> 405 145<222 313 222 346.5>
AnchorPoint: "Anchor-1" 409 0 basechar 0
AnchorPoint: "Anchor-0" 306 0 basechar 0
LayerCount: 2
Fore
SplineSet
314 -12 m 0xea
 141 -12 50 91 50 256 c 0
 50 425 146 528 301 528 c 0
 455 528 550 427 550 266 c 2
 550 222 l 1
 197 222 l 1
 197 213 l 2
 197 147 240 102 319 102 c 0
 380 102 423 128 455 166 c 1
 535 79 l 1
 495 30 425 -12 314 -12 c 0xea
302 422 m 0
 238 422 197 379 197 313 c 2
 197 305 l 1
 405 305 l 1
 405 313 l 2
 405 380 366 422 302 422 c 0
608 900 m 1x14
 474 724 l 1
 395 763 l 1
 494 957 l 1
 608 900 l 1x14
254 772 m 1
 348 772 l 1
 493 625 l 1
 423 561 l 1
 299 665 l 1
 175 561 l 1
 109 625 l 1
 254 772 l 1
EndSplineSet
Validated: 1
EndChar

